<?xml version="1.0" encoding="UTF-8"?>
<svg width="40px" height="5px" viewBox="0 0 40 5" version="1.1" xmlns="http://www.w3.org/2000/svg" xmlns:xlink="http://www.w3.org/1999/xlink">
    <!-- Generator: Sketch 57.1 (83088) - https://sketch.com -->
    <desc>Created with Sketch.</desc>
    <g id="页面-1" stroke="none" stroke-width="1">
        <g id="logo-beta" transform="translate(0.600000, 0.090000)" fill="#668C9D">
            <path d="M17.94,-2.30926389e-14 L17.66,-2.30926389e-14 L16.88,-2.30926389e-14 L16.86,-2.30926389e-14 C16.8,-2.30926389e-14 16.76,0.04 16.76,0.1 L16.76,0.12 L16.76,2.51 L16.76,4.8 L17.66,4.8 L17.66,3.9 L17.66,3.51 L17.66,2.51 L17.66,2.51 L17.66,0.85 L18.17,0.85 C18.97,0.85 19.61,1.56 19.61,2.45 C19.61,3.24 18.98,3.88 18.2,3.9 L18.2,4.8 C19.28,4.79 20.19,4.03 20.44,2.96 C20.8,1.43 19.51,-2.30926389e-14 17.94,-2.30926389e-14 Z" id="路径"></path>
            <path d="M3.66,1.52 C3.66,0.68 2.95,-2.30926389e-14 2.07,-2.30926389e-14 L1.01,-2.30926389e-14 L0.16,-2.30926389e-14 L0.11,-2.30926389e-14 C0.05,-2.30926389e-14 0.01,0.04 0.01,0.1 L0.01,0.75 C0.01,0.81 0.05,0.85 0.11,0.85 L0.16,0.85 L1.01,0.85 L2.07,0.85 C2.48,0.85 2.81,1.15 2.81,1.52 C2.81,1.89 2.48,2.19 2.07,2.19 L0.9,2.19 L0.9,2.19 L0.1,2.19 C0.04,2.19 1.26565425e-14,2.23 1.26565425e-14,2.29 L1.26565425e-14,4.79 L0.9,4.79 L0.9,3.05 L1.4,3.05 L2.58,4.8 L3.65,4.8 L2.44,3 C3.14,2.84 3.66,2.24 3.66,1.52 Z" id="路径"></path>
            <path d="M5.09,2.2 L4.39,2.2 C4.33,2.2 4.29,2.24 4.29,2.3 L4.29,4.8 L5.19,4.8 L5.19,2.3 C5.19,2.25 5.15,2.2 5.09,2.2 Z" id="路径"></path>
            <path d="M5.09,0.85 L4.39,0.85 C4.33,0.85 4.29,0.89 4.29,0.95 L4.29,1.65 C4.29,1.71 4.33,1.75 4.39,1.75 L5.09,1.75 C5.15,1.75 5.19,1.71 5.19,1.65 L5.19,0.95 C5.19,0.9 5.15,0.85 5.09,0.85 Z" id="路径"></path>
            <path d="M9.9,0.85 C9.43,0.85 9.06,1.04 8.78,1.42 C8.53,1.04 8.19,0.85 7.76,0.85 C7.57,0.85 7.41,0.88 7.28,0.95 C7.16,1.01 7.02,1.13 6.85,1.31 L6.85,1.22 L6.85,1.22 L6.85,1.13 C6.85,1.07 6.81,1.03 6.75,1.03 L6.05,1.03 C5.99,1.03 5.95,1.07 5.95,1.13 L5.95,4.8 L5.97,4.8 L6.85,4.8 L6.85,4.8 L6.85,2.82 C6.85,2.42 6.91,2.12 7.02,1.94 C7.13,1.75 7.31,1.66 7.56,1.66 C7.95,1.66 8.15,2 8.15,2.69 L8.15,4.81 L9.03,4.81 L9.03,2.82 C9.03,2.41 9.09,2.12 9.2,1.93 C9.31,1.75 9.49,1.65 9.73,1.65 C9.94,1.65 10.09,1.73 10.18,1.88 C10.27,2.03 10.31,2.29 10.31,2.66 L10.31,4.79 L11.19,4.79 L11.19,2.42 C11.19,1.37 10.76,0.85 9.9,0.85 Z" id="路径"></path>
            <path d="M24.66,0.97 L23.99,0.97 C23.94,0.97 23.89,1.01 23.89,1.07 L23.89,1.31 L23.89,1.41 C23.54,1.05 23.15,0.87 22.72,0.87 C22.22,0.87 21.8,1.06 21.46,1.43 C21.13,1.8 20.96,2.27 20.96,2.83 C20.96,3.4 21.13,3.88 21.46,4.26 C21.8,4.63 22.22,4.82 22.74,4.82 C23.15,4.82 23.53,4.65 23.89,4.32 L23.89,4.36 L23.89,4.61 L23.89,4.71 L24.76,4.71 L24.76,4.61 L24.76,4.36 L24.76,4.22 L24.76,3.46 L24.76,2.22 L24.76,1.31 L24.76,1.07 C24.76,1.02 24.72,0.97 24.66,0.97 Z M23.65,3.72 C23.45,3.94 23.19,4.05 22.87,4.05 C22.57,4.05 22.32,3.94 22.13,3.71 C21.94,3.48 21.84,3.19 21.84,2.83 C21.84,2.5 21.94,2.21 22.14,1.99 C22.34,1.76 22.59,1.65 22.88,1.65 C23.19,1.65 23.45,1.76 23.65,1.98 C23.85,2.21 23.95,2.5 23.95,2.85 C23.95,3.2 23.85,3.49 23.65,3.72 Z" id="形状"></path>
            <path d="M31.21,0.97 L30.54,0.97 C30.49,0.97 30.44,1.01 30.44,1.07 L30.44,1.31 L30.44,1.41 C30.09,1.05 29.7,0.87 29.27,0.87 C28.77,0.87 28.35,1.06 28.01,1.43 C27.68,1.8 27.51,2.27 27.51,2.83 C27.51,3.4 27.68,3.88 28.01,4.26 C28.35,4.63 28.77,4.82 29.29,4.82 C29.7,4.82 30.08,4.65 30.44,4.32 L30.44,4.36 L30.44,4.61 L30.44,4.71 L31.31,4.71 L31.31,4.61 L31.31,4.36 L31.31,4.22 L31.31,3.46 L31.31,2.22 L31.31,1.31 L31.31,1.07 C31.31,1.02 31.27,0.97 31.21,0.97 Z M30.2,3.72 C30,3.94 29.74,4.05 29.42,4.05 C29.12,4.05 28.87,3.94 28.68,3.71 C28.49,3.48 28.39,3.19 28.39,2.83 C28.39,2.5 28.49,2.21 28.69,1.99 C28.89,1.76 29.14,1.65 29.43,1.65 C29.74,1.65 30,1.76 30.2,1.98 C30.4,2.21 30.5,2.5 30.5,2.85 C30.5,3.2 30.4,3.49 30.2,3.72 Z" id="形状"></path>
            <path d="M27.07,1.2 L26.64,1.2 L26.64,0.1 C26.64,0.04 26.6,-2.30926389e-14 26.54,-2.30926389e-14 L25.84,-2.30926389e-14 C25.78,-2.30926389e-14 25.74,0.04 25.74,0.1 L25.74,1.2 L25.45,1.2 C25.39,1.2 25.35,1.24 25.35,1.3 L25.35,2 C25.35,2.06 25.39,2.1 25.45,2.1 L25.74,2.1 L25.74,4.8 L26.64,4.8 L26.64,2.1 L27.07,2.1 C27.13,2.1 27.17,2.06 27.17,2 L27.17,1.3 C27.17,1.24 27.13,1.2 27.07,1.2 Z" id="路径"></path>
            <path d="M13.66,0.85 C12.57,0.85 11.69,1.74 11.69,2.82 C11.69,3.9 12.58,4.79 13.66,4.79 C14.46,4.79 15.14,4.31 15.45,3.63 L14.57,3.63 C14.34,3.88 14.03,4.06 13.66,4.06 C13.1,4.06 12.64,3.69 12.48,3.19 L12.5,3.19 L14.84,3.19 L15.6,3.19 C15.62,3.07 15.64,2.95 15.64,2.82 C15.63,1.74 14.75,0.85 13.66,0.85 Z M12.48,2.46 C12.64,1.96 13.1,1.59 13.66,1.59 C14.22,1.59 14.68,1.96 14.84,2.46 L12.48,2.46 Z" id="形状"></path>
            <path d="M33.72,2.98 C33.6,2.98 33.5,3.01 33.42,3.06 C33.35,3.1 33.29,3.16 33.24,3.23 L33.24,2.8 L33.24,2.66 C33.24,2.61 33.2,2.58 33.16,2.58 L32.9,2.58 C32.85,2.58 32.82,2.62 32.82,2.66 L32.82,2.8 L32.82,3.34 L32.82,4.66 L33.24,4.66 L33.24,4.45 C33.3,4.53 33.35,4.59 33.4,4.62 C33.48,4.67 33.59,4.7 33.73,4.7 C33.95,4.7 34.12,4.62 34.24,4.45 C34.36,4.28 34.42,4.07 34.42,3.82 C34.42,3.57 34.36,3.37 34.23,3.22 C34.1,3.06 33.93,2.98 33.72,2.98 Z M33.87,4.21 C33.81,4.3 33.72,4.35 33.61,4.35 C33.48,4.35 33.39,4.3 33.32,4.21 C33.26,4.12 33.23,4 33.23,3.86 C33.23,3.74 33.25,3.64 33.28,3.57 C33.34,3.43 33.45,3.36 33.6,3.36 C33.76,3.36 33.86,3.43 33.92,3.58 C33.95,3.66 33.97,3.75 33.97,3.87 C33.96,4.01 33.93,4.13 33.87,4.21 Z" id="形状"></path>
            <path d="M36.2,3.63 C36.18,3.5 36.14,3.39 36.07,3.29 C36,3.18 35.9,3.1 35.79,3.05 C35.67,3 35.55,2.97 35.4,2.97 C35.16,2.97 34.96,3.05 34.81,3.2 C34.66,3.35 34.58,3.57 34.58,3.85 C34.58,4.15 34.66,4.37 34.83,4.51 C35,4.65 35.19,4.71 35.41,4.71 C35.67,4.71 35.88,4.63 36.03,4.47 C36.13,4.37 36.18,4.27 36.19,4.17 L35.75,4.17 C35.72,4.22 35.7,4.26 35.66,4.28 C35.6,4.33 35.52,4.36 35.42,4.36 C35.33,4.36 35.25,4.34 35.18,4.3 C35.07,4.23 35.01,4.12 35.01,3.95 L36.21,3.95 C36.21,3.82 36.21,3.71 36.2,3.63 Z M35.02,3.67 C35.04,3.56 35.07,3.48 35.13,3.42 C35.19,3.36 35.28,3.33 35.39,3.33 C35.49,3.33 35.58,3.36 35.64,3.42 C35.71,3.48 35.75,3.57 35.76,3.68 L35.02,3.68 L35.02,3.67 Z" id="形状"></path>
            <path d="M36.91,2.73 L36.91,2.73 L36.91,2.65 C36.91,2.61 36.87,2.57 36.83,2.57 L36.57,2.57 C36.53,2.57 36.49,2.61 36.49,2.65 L36.49,3.03 L36.26,3.03 L36.26,3.34 L36.49,3.34 L36.49,4.35 C36.49,4.45 36.51,4.53 36.56,4.58 C36.64,4.66 36.77,4.69 36.98,4.69 L37.18,4.68 L37.18,4.35 C37.17,4.35 37.15,4.35 37.14,4.35 C37.13,4.35 37.11,4.35 37.1,4.35 C37.01,4.35 36.96,4.34 36.94,4.32 C36.92,4.3 36.91,4.26 36.91,4.19 L36.91,3.34 L37.18,3.34 L37.18,3.03 L36.91,3.03 L36.91,2.73 L36.91,2.73 Z" id="路径"></path>
            <path d="M38.59,3.08 C38.45,3.01 38.29,2.97 38.11,2.97 C37.83,2.97 37.64,3.04 37.52,3.19 C37.45,3.29 37.41,3.4 37.4,3.55 L37.81,3.55 C37.82,3.49 37.84,3.44 37.87,3.4 C37.91,3.35 37.99,3.32 38.09,3.32 C38.18,3.32 38.25,3.33 38.3,3.36 C38.35,3.39 38.37,3.43 38.37,3.5 C38.37,3.56 38.34,3.6 38.28,3.62 C38.25,3.63 38.19,3.65 38.11,3.66 L37.96,3.68 C37.79,3.7 37.67,3.74 37.58,3.79 C37.42,3.88 37.34,4.03 37.34,4.23 C37.34,4.39 37.39,4.51 37.49,4.59 C37.59,4.67 37.71,4.72 37.86,4.72 C37.98,4.72 38.08,4.69 38.18,4.64 C38.26,4.59 38.33,4.54 38.39,4.48 L38.39,4.67 L38.43,4.67 L38.5,4.67 L38.68,4.67 L38.8,4.67 L38.8,4.67 L38.8,3.92 L38.8,3.83 L38.8,3.49 C38.8,3.29 38.73,3.16 38.59,3.08 Z M38.37,4.02 C38.37,4.16 38.33,4.26 38.25,4.32 C38.17,4.37 38.08,4.4 37.99,4.4 C37.93,4.4 37.88,4.38 37.84,4.35 C37.8,4.32 37.78,4.26 37.78,4.19 C37.78,4.11 37.81,4.05 37.88,4.01 C37.92,3.99 37.99,3.97 38.08,3.95 L38.18,3.93 C38.23,3.92 38.27,3.91 38.3,3.9 C38.33,3.89 38.36,3.88 38.38,3.86 L38.38,4.02 L38.37,4.02 Z" id="形状"></path>
        </g>
    </g>
</svg>