<?xml version="1.0" encoding="UTF-8"?>
<svg width="17px" height="16px" viewBox="0 0 17 16" version="1.1" xmlns="http://www.w3.org/2000/svg" xmlns:xlink="http://www.w3.org/1999/xlink">
    <title>切片</title>
    <g id="高级搜索" stroke="none" stroke-width="1" fill="none" fill-rule="evenodd">
        <g id="2" transform="translate(-439.000000, -469.000000)" fill="#4F709B">
            <g id="结果" transform="translate(56.000000, 397.000000)">
                <g id="内容" transform="translate(0.000000, 62.000000)">
                    <g id="icon/24x24/filter" transform="translate(383.323804, 10.000000)">
                        <g id="编组" transform="translate(2.000000, 2.000000)">
                            <path d="M1.2,1.31567192 L1.2,10.8 L12,10.8 L12,12 L0,12 L0,1.31567192 L1.2,1.31567192 Z M7.45,0.85 L7.45,6.85 L5.65,6.85 L5.65,0.85 L7.45,0.85 M4.45,4.25 L4.45,9.25 L2.65,9.25 L2.65,4.25 L4.45,4.25" id="形状"></path>
                        </g>
                        <polyline id="路径" transform="translate(11.850000, 7.750000) rotate(-270.000000) translate(-11.850000, -7.750000) " points="9.35 6.85 14.35 6.85 14.35 8.65 9.35 8.65 9.35 6.85"></polyline>
                    </g>
                </g>
            </g>
        </g>
    </g>
</svg>