<?xml version="1.0" encoding="UTF-8"?>
<svg width="17px" height="16px" viewBox="0 0 17 16" version="1.1" xmlns="http://www.w3.org/2000/svg" xmlns:xlink="http://www.w3.org/1999/xlink">
    <title>切片</title>
    <g id="高级搜索" stroke="none" stroke-width="1" fill="none" fill-rule="evenodd" opacity="0.603562128">
        <g id="1" transform="translate(-80.000000, -433.000000)" fill="#000000">
            <g id="结果" transform="translate(56.000000, 361.000000)">
                <g id="内容" transform="translate(0.000000, 62.000000)">
                    <g id="icon/16x16/多选/n备份" transform="translate(24.701526, 10.000000)">
                        <path d="M12.6666667,2 L3.33333333,2 C2.6,2 2,2.6 2,3.33333333 L2,12.6666667 C2,13.4066667 2.6,14 3.33333333,14 L12.6666667,14 C13.4066667,14 14,13.4066667 14,12.6666667 L14,3.33333333 C14,2.6 13.4,2 12.6666667,2 M12.6666667,12.6666667 L3.33333333,12.6666667 L3.33333333,3.33333333 L12.6666667,3.33333333 L12.6666667,12.6666667 M4.94,5.52666667 L8,8.58666667 L11.06,5.52666667 L12,6.47333333 L8,10.4733333 L4,6.47333333 L4.94,5.52666667 Z" id="形状"></path>
                    </g>
                </g>
            </g>
        </g>
    </g>
</svg>