<?xml version="1.0" encoding="UTF-8"?>
<svg width="20px" height="16px" viewBox="0 0 20 16" version="1.1" xmlns="http://www.w3.org/2000/svg" xmlns:xlink="http://www.w3.org/1999/xlink">
    <title>icon/24x24/分组</title>
    <g id="新闻（new）" stroke="none" stroke-width="1" fill="none" fill-rule="evenodd">
        <g id="新闻---我的关注---分组" transform="translate(-1310.000000, -266.000000)">
            <g id="最近浏览" transform="translate(1308.000000, 220.000000)">
                <g id="1" transform="translate(0.000000, 34.000000)">
                    <g id="icon/24x24/分组" transform="translate(0.000000, 8.000000)">
                        <rect id="矩形" x="0" y="0" width="24" height="24"></rect>
                        <g id="folder" transform="translate(2.000000, 4.000000)" fill="#191919" opacity="0.5">
                            <path d="M8,0 L10,2 L18,2 C19.1,2 20,2.89 20,4 L20,4 L20,14 C20,15.1045695 19.1045695,16 18,16 L18,16 L2,16 C0.8954305,16 0,15.1045695 0,14 L0,14 L0,2 C0,0.89 0.89,0 2,0 L2,0 L8,0 Z M14.1666667,7.36666667 L13.3236667,9.35566667 L11.1666667,9.53866667 L12.8016667,10.9576667 L12.3126667,13.0666667 L14.1666667,11.9476667 L16.0206667,13.0666667 L15.5286667,10.9576667 L17.1666667,9.53866667 L15.0096667,9.35566667 L14.1666667,7.36666667 Z" id="形状结合"></path>
                        </g>
                    </g>
                </g>
            </g>
        </g>
    </g>
</svg>