<?xml version="1.0" encoding="UTF-8"?>
<svg width="30px" height="30px" viewBox="0 0 30 30" version="1.1" xmlns="http://www.w3.org/2000/svg" xmlns:xlink="http://www.w3.org/1999/xlink">
    <title>其他/logo</title>
    <defs>
        <rect id="path-1" x="0" y="0" width="30" height="30" rx="2"></rect>
    </defs>
    <g id="其他/logo" stroke="none" stroke-width="1" fill="none" fill-rule="evenodd">
        <mask id="mask-2" fill="white">
            <use xlink:href="#path-1"></use>
        </mask>
        <use id="矩形" fill="#E8E8E8" xlink:href="#path-1"></use>
        <g id="RD-LOGO" mask="url(#mask-2)" fill="#FFFFFF">
            <g transform="translate(4.000000, 8.000000)" id="形状结合">
                <path d="M14.9358896,-2.30926389e-14 C19.270443,-2.30926389e-14 22.824954,3.93172691 21.8321729,8.1373494 C21.1407717,11.0795181 18.6322265,13.173494 15.6538831,13.2 L15.6538831,13.2 L15.6538831,10.7261044 C17.8078636,10.6730924 19.5452306,8.91485944 19.5452306,6.74136546 C19.5452306,4.2939759 17.7812713,2.34136546 15.5741061,2.34136546 L15.5741061,2.34136546 L14.1647114,2.34136546 L14.1647114,13.2 L11.6827586,13.2 L11.6827586,0.273895582 C11.6827586,0.106024096 11.789128,-2.30926389e-14 11.9575463,-2.30926389e-14 L11.9575463,-2.30926389e-14 Z M5.65038854,-2.30926389e-14 C8.06568723,-2.30926389e-14 10.0137931,1.87183946 10.0137931,4.17632107 C10.0137931,6.15411371 8.58576979,7.80521739 6.69055367,8.25551839 L6.69055367,8.25551839 L10.0137931,13.2 L7.07841185,13.2 L3.843322,8.38795987 L2.46818844,8.38795987 L2.46818844,13.1646823 L-7.07878201e-13,13.1646823 L-7.07878201e-13,6.29538462 C-7.07878201e-13,6.12762542 0.105779505,6.02167224 0.27326372,6.02167224 L0.27326372,6.02167224 L5.6592035,6.02167224 C6.77870325,6.02167224 7.686644,5.20053512 7.686644,4.17632107 C7.686644,3.15210702 6.78751821,2.3309699 5.6592035,2.3309699 L5.6592035,2.3309699 L0.27326372,2.3309699 C0.105779505,2.3309699 -7.07878201e-13,2.22501672 -7.07878201e-13,2.05725753 L-7.07878201e-13,2.05725753 L-7.07878201e-13,0.273712375 C-7.07878201e-13,0.105953177 0.105779505,-2.30926389e-14 0.27326372,-2.30926389e-14 L0.27326372,-2.30926389e-14 Z"></path>
            </g>
        </g>
    </g>
</svg>