<?xml version="1.0" encoding="UTF-8"?>
<svg width="421px" height="144px" viewBox="0 0 421 144" version="1.1" xmlns="http://www.w3.org/2000/svg" xmlns:xlink="http://www.w3.org/1999/xlink">
    <title>编组 2</title>
    <defs>
        <rect id="path-1" x="0" y="0" width="421" height="144" rx="4"></rect>
        <linearGradient x1="50%" y1="23.6380055%" x2="50%" y2="187.68584%" id="linearGradient-3">
            <stop stop-color="#5DA7B6" offset="0%"></stop>
            <stop stop-color="#B5F2FF" offset="100%"></stop>
        </linearGradient>
        <linearGradient x1="182.301168%" y1="46.1446021%" x2="19.3883683%" y2="50%" id="linearGradient-4">
            <stop stop-color="#B5F2FF" offset="0%"></stop>
            <stop stop-color="#5DA7B6" offset="100%"></stop>
        </linearGradient>
        <linearGradient x1="58.9602158%" y1="12.6186195%" x2="42.3823676%" y2="50%" id="linearGradient-5">
            <stop stop-color="#B5F2FF" offset="0%"></stop>
            <stop stop-color="#5DA7B6" offset="100%"></stop>
        </linearGradient>
        <linearGradient x1="76.156771%" y1="12.6186195%" x2="27.7625147%" y2="50%" id="linearGradient-6">
            <stop stop-color="#B5F2FF" offset="0%"></stop>
            <stop stop-color="#5DA7B6" offset="100%"></stop>
        </linearGradient>
        <linearGradient x1="50%" y1="23.6380055%" x2="50%" y2="187.68584%" id="linearGradient-7">
            <stop stop-color="#5DA7B6" offset="0%"></stop>
            <stop stop-color="#B5F2FF" offset="100%"></stop>
        </linearGradient>
        <linearGradient x1="142.14066%" y1="48.5068216%" x2="0%" y2="50%" id="linearGradient-8">
            <stop stop-color="#B5F2FF" offset="0%"></stop>
            <stop stop-color="#5DA7B6" offset="100%"></stop>
            <stop stop-color="#5DA7B6" offset="100%"></stop>
        </linearGradient>
        <linearGradient x1="17.3566599%" y1="0%" x2="82.5497358%" y2="96.8256006%" id="linearGradient-9">
            <stop stop-color="#B4EDF8" offset="0%"></stop>
            <stop stop-color="#5DA8B6" offset="100%"></stop>
        </linearGradient>
        <linearGradient x1="47.2754239%" y1="86.6482723%" x2="54.5%" y2="49.995924%" id="linearGradient-10">
            <stop stop-color="#4091A0" offset="0%"></stop>
            <stop stop-color="#1D94AC" offset="100%"></stop>
        </linearGradient>
        <linearGradient x1="48.4502108%" y1="15.5913267%" x2="56.6716145%" y2="180.823077%" id="linearGradient-11">
            <stop stop-color="#303540" offset="0%"></stop>
            <stop stop-color="#373D4C" offset="100%"></stop>
        </linearGradient>
        <linearGradient x1="52.6284121%" y1="16.4843504%" x2="43.7953191%" y2="151.053616%" id="linearGradient-12">
            <stop stop-color="#212D48" offset="0%"></stop>
            <stop stop-color="#3F5994" offset="100%"></stop>
        </linearGradient>
        <linearGradient x1="45.9642457%" y1="11.5949449%" x2="52.9580835%" y2="87.6257921%" id="linearGradient-13">
            <stop stop-color="#272B34" offset="0%"></stop>
            <stop stop-color="#3F4041" offset="100%"></stop>
        </linearGradient>
        <linearGradient x1="0.018115942%" y1="49.9761256%" x2="100%" y2="49.9761256%" id="linearGradient-14">
            <stop stop-color="#46909E" offset="0%"></stop>
            <stop stop-color="#1995AE" offset="100%"></stop>
        </linearGradient>
        <linearGradient x1="67.6427954%" y1="23.9134426%" x2="5.48776935%" y2="92.7673634%" id="linearGradient-15">
            <stop stop-color="#28395E" offset="0%"></stop>
            <stop stop-color="#414A5F" offset="100%"></stop>
        </linearGradient>
    </defs>
    <g id="限制" stroke="none" stroke-width="1" fill="none" fill-rule="evenodd">
        <g id="看板" transform="translate(-714.000000, -261.000000)">
            <g id="编组-2" transform="translate(714.000000, 261.000000)">
                <g id="编组-16">
                    <mask id="mask-2" fill="white">
                        <use xlink:href="#path-1"></use>
                    </mask>
                    <use id="蒙版" fill="#70BBCA" xlink:href="#path-1"></use>
                    <g id="chevron_arrow_2_" opacity="0.267740885" mask="url(#mask-2)" fill-rule="nonzero">
                        <g transform="translate(34.000000, 4.500000) rotate(90.000000) translate(-34.000000, -4.500000) translate(26.000000, -38.000000)">
                            <polygon id="Path" fill="#F3F9FF" points="8.04587374 71.5460513 15.5460513 79.1482221 15.5460513 84.5460513 8.04587374 76.9438805 0.546051305 84.5460513 0.546051305 79.1482221"></polygon>
                            <polygon id="Path" fill="#E7F4FE" points="8.04587374 57.5 15.5460513 65.1020213 15.5460513 70.5 8.04587374 62.8976187 0.546051305 70.5 0.546051305 65.1020213"></polygon>
                            <polygon id="Path" fill="#DCEEFD" points="8.04587374 43.5 15.5460513 51.1023813 15.5460513 56.5 8.04587374 48.8976187 0.546051305 56.5 0.546051305 51.1023813"></polygon>
                            <polygon id="Path" fill="#D0E7FE" points="8.04587374 28.5 15.5460513 36.1023813 15.5460513 41.5 8.04587374 33.8979787 0.546051305 41.5 0.546051305 36.1023813"></polygon>
                            <polygon id="Path备份" fill="#D0E7FE" points="8.04587374 14.5 15.5460513 22.1023813 15.5460513 27.5 8.04587374 19.8979787 0.546051305 27.5 0.546051305 22.1023813"></polygon>
                            <polygon id="Path备份-2" fill="#D0E7FE" points="8.04587374 0.5 15.5460513 8.10238128 15.5460513 13.5 8.04587374 5.89797868 0.546051305 13.5 0.546051305 8.10238128"></polygon>
                        </g>
                    </g>
                    <g mask="url(#mask-2)">
                        <g transform="translate(248.790725, 22.353178)">
                            <g id="编组-15" transform="translate(111.984186, 6.652774)">
                                <polygon id="路径-8" fill="url(#linearGradient-3)" points="28.7606883 30.4313855 28.7606883 117.994048 60.0499318 117.994048 60.0499318 12.994048"></polygon>
                                <polygon id="路径-9" fill="url(#linearGradient-4)" points="0 17.5851739 35.0158144 0.778972735 60.0499318 12.994048 28.7606883 30.4313855"></polygon>
                                <polygon id="路径-10" fill="url(#linearGradient-5)" points="0 17.5851739 0 91.2693568 28.7606883 91.2693568 28.7606883 30.4313855"></polygon>
                            </g>
                            <g id="编组-6" transform="translate(0.000000, 46.998419)">
                                <polygon id="路径" fill="url(#linearGradient-6)" points="0 37.6484032 0 101.648403 64.2092746 130.674389 64.2092746 61.6484032 0 34.3935364"></polygon>
                                <polygon id="路径-2" fill="url(#linearGradient-7)" points="146.010398 29.7458255 64.2092746 61.6484032 64.2092746 107.280781 146.010398 95.2408968"></polygon>
                                <polygon id="路径-3" fill="url(#linearGradient-8)" points="146.010398 29.7458255 64.2092746 61.6484032 0 34.3935364 84.4661414 0"></polygon>
                                <path d="M83.5547644,8.12615814 C40.9535792,25.1409882 19.6529866,33.6484032 19.6529866,33.6484032 C19.6529866,33.6484032 34.5050826,40.099614 64.2092746,53.0020356 L128.13988,28.9239397 L83.5547644,8.12615814 Z" id="路径-4" fill="#69B1BF"></path>
                            </g>
                            <g id="文案" transform="translate(12.939668, 24.982293)">
                                <polygon id="路径-5备份" fill="url(#linearGradient-9)" opacity="0.6" points="6 0 6 31.6296052 42.6395499 46.8174432 42.6395499 16.2931426"></polygon>
                                <polygon id="路径-5" fill="url(#linearGradient-9)" opacity="0.6" points="0 5 0 36.6296052 36.6395499 51.8174432 36.6395499 21.2931426"></polygon>
                                <polygon id="路径-6" fill="#FFFFFF" opacity="0.229608445" points="2.99849027 14.3237825 2.99849027 20.0161262 35.2696065 34.6735763 35.2696065 28.9776072"></polygon>
                                <polygon id="路径-6备份" fill="#FFFFFF" opacity="0.229608445" points="2.99849027 23.3237825 2.99849027 29.0161262 20.4281467 36.9607861 20.4281467 31.264817"></polygon>
                            </g>
                            <g id="编组-5" transform="translate(90.475812, 0.000000)">
                                <polygon id="路径-7备份" fill-opacity="0.5" fill="#77BFCF" opacity="0.604492188" points="5 3.55271368e-15 5 40.9984191 29.2464323 51.1245772 29.2464323 10.6930876"></polygon>
                                <polygon id="路径-7" fill="#77BFCF" opacity="0.901971726" points="-9.09494702e-13 6 -9.09494702e-13 46.9984191 24.2464323 57.1245772 24.2464323 16.6930876"></polygon>
                            </g>
                        </g>
                    </g>
                    <g id="man1" mask="url(#mask-2)">
                        <g transform="translate(310.790725, 51.351597)">
                            <path d="M9.16072164,7.64840322 C9.16072164,7.64840322 6.90755545,12.2134966 7.24340882,13.6262299 C7.57926219,15.0389633 10.2092746,17.6484032 10.2092746,17.6484032 L9.16072164,7.64840322 Z" id="Path" fill="url(#linearGradient-10)"></path>
                            <ellipse id="Oval" fill="#5DA6B4" cx="12.2092746" cy="45.6484032" rx="12" ry="7"></ellipse>
                            <path d="M6.04979946,42.4412637 C5.79923173,42.8056951 5.57138714,43.1920934 5.36814243,43.5972761 C5.04761404,44.2428526 5.23779422,45.0175445 5.7086148,45.3274212 C6.17943538,45.637298 6.62888741,45.7870717 7.18446994,45.4797773 C7.74005247,45.1724828 8.21016077,44.2342449 9.02216601,44.0061412 C9.83417125,43.7780375 10.7565807,42.592759 9.80567983,41.7896617 C9.16106164,41.2473774 6.04979946,42.4412637 6.04979946,42.4412637 Z" id="Path" fill="url(#linearGradient-11)"></path>
                            <path d="M14.1438144,44.0337261 L13.7726169,45.6454495 C13.7726169,45.6454495 12.2847463,45.727806 11.9243304,45.0227732 L12.4010343,42.7976097 L14.1438144,31.7756997 L12.5789319,26.0630869 L8.00596305,43.4995637 C8.00596305,43.4995637 7.39833887,43.8513104 6.82922065,43.6465738 C6.70831191,43.6034714 6.76992146,43.2617306 6.64901272,43.1755257 C6.40103429,42.9915706 6.2901371,43.2278644 6.20927456,43.0816239 L11.392948,24.6484032 L14.7814733,25.4581134 L16.2092746,33.0572277 L14.1438144,44.0337261 Z" id="Path" fill="#EFAD81"></path>
                            <path d="M11.2092746,7.89311364 L11.4412941,6.53314941 C11.4412941,6.53314941 11.1064126,3.10813636 12.0793478,2.772206 C13.052283,2.43627564 15.1884095,2.72347764 15.2061976,4.38836327 C15.2247592,6.07835139 15.1822223,7.51436139 14.4196514,7.48409074 C13.6570806,7.45382009 13.5178689,7.33199919 13.5178689,7.33199919 L13.539524,8.64840322 L11.2092746,7.89311364 Z" id="Path" fill="#FFBBB6"></path>
                            <path d="M8.32706003,20.6484032 L8.64526072,30.4985474 L6.20927456,41.4243814 C6.20927456,41.4243814 6.76422266,42.3806374 9.2382711,42.1315551 C9.2382711,42.1315551 11.9787555,32.3419136 12.2413853,31.9262526 C12.504015,31.5105916 12.9813161,28.1813748 12.9813161,28.1813748 C12.9813161,28.1813748 13.3939112,33.3170276 13.2667832,33.8552653 C13.1396552,34.3935031 11.8546725,43.6771226 11.8546725,43.6771226 C11.8546725,43.6771226 12.3746033,44.9516068 14.7024926,44.5807334 C14.7024926,44.5807334 17.2092746,33.8945528 17.2092746,32.8903661 L17.2092746,22.1766842 L8.32706003,20.6484032 Z" id="Path" fill="url(#linearGradient-12)"></path>
                            <path d="M13.9095119,45.2377056 C13.9095119,45.2377056 12.7913085,45.2972173 12.5779109,45.1462063 C12.3645133,44.9951954 12.3104526,44.6634176 12.1340439,44.6485397 C11.9576352,44.6336617 11.2171455,45.8387739 11.2092746,46.7002059 C11.202919,47.2514332 11.8594723,47.7937336 13.3155553,47.6129668 C14.9829019,47.4054197 14.8264103,47.7743923 16.2832046,47.4582364 C17.739999,47.1420804 17.2434939,46.2174172 16.3927488,46.1274057 C15.5420036,46.0373942 14.7232682,45.8856394 14.4159756,45.6446169 C14.108683,45.4035945 13.9095119,45.2377056 13.9095119,45.2377056 Z" id="Path" fill="url(#linearGradient-13)"></path>
                            <path d="M25.9477694,8.24099808 C25.9477694,8.24099808 26.0670346,7.96180229 25.9364109,7.88127952 C25.8057871,7.80075675 25.648029,7.99566701 25.648029,7.99566701 C25.6751634,7.70894574 25.610167,7.49522174 25.3482885,7.78946851 C25.2896024,7.8549403 25.1943165,7.96782269 25.0958754,8.09048822 C25.0067561,8.08005023 24.9170965,8.07778593 24.8276865,8.08371528 C24.6743456,8.09876626 24.604301,8.57663506 24.5822148,8.76627747 L24.2092746,9.42099535 L24.6383767,10.6484032 C24.6383767,10.6484032 25.2214509,10.3135188 25.4391572,10.1095779 C25.6568634,9.90563708 26.249403,8.98677441 26.2071239,8.75047394 C26.1648447,8.51417347 26.0316968,8.68199195 26.0316968,8.68199195 C26.0316968,8.68199195 26.1825136,8.43289814 26.1181483,8.28013064 C26.106678,8.23954218 26.0777893,8.20944744 26.0425221,8.20134726 C26.0072548,8.19324709 25.9710599,8.20839344 25.9477694,8.24099808 Z" id="Path" fill="#FFBBB6"></path>
                            <path d="M19.3301079,15.925781 C20.2863579,15.9598598 25.2092746,10.7933448 25.2092746,10.7933448 C24.8373996,9.42701986 23.6055155,9.74403259 23.6055155,9.74403259 L19.6573271,12.7952802 C19.6573271,12.7952802 16.9433325,9.81219033 16.3989938,9.18846777 C15.854655,8.56474521 13.8897999,7.52018825 13.8897999,7.52018825 C13.8897999,7.52018825 12.1867202,8.08288585 11.4391206,6.64840322 C11.4391206,6.64840322 9.12086877,6.84812124 8.87988145,6.94481013 C8.63889413,7.04149901 7.87050645,8.84688655 8.89143036,12.6803631 C10.2849992,17.9110732 8.20927456,21.1517359 8.20927456,21.1517359 C8.20927456,21.1517359 11.5700083,25.0676358 17.9272999,23.0910613 L15.4635318,14.16002 C15.4635318,14.16002 18.3738579,15.8917021 19.3301079,15.925781 Z" id="Path" fill="url(#linearGradient-14)"></path>
                            <path d="M14.905285,3.49262532 C14.905285,3.49262532 16.2371509,3.69860566 16.2088292,2.77169412 C16.1805075,1.84478258 15.599167,2.2967096 15.4433976,1.51121739 C15.2563252,0.566628434 13.9102984,0.245360586 12.8303467,1.33136889 C12.0231778,2.14222434 11.5476711,2.57877969 10.2016443,2.31899851 C6.95433602,1.69029732 3.35598754,4.79614271 6.29995533,8.63060513 C9.24392312,12.4650676 13.2708239,10.0486414 13.2648614,7.83896427 C13.2588989,5.62928708 14.2829525,5.03978364 14.9872689,4.93218197 C15.6915852,4.82458029 14.905285,3.49262532 14.905285,3.49262532 Z" id="Path" fill="url(#linearGradient-15)"></path>
                        </g>
                    </g>
                    <path d="M342.52,40.9859294 L342.52,38.5259294 C342.69,38.8561788 342.88,39.2452811 342.98,39.4695455 L343.235,39.1324196 C343.135,38.9531553 342.69,38.2061788 342.52,37.9359294 L342.52,37.7859294 L343.155,38.0670081 L343.155,37.6270081 L342.52,37.3459294 L342.52,36.3959294 L342.055,36.1901 L342.055,37.1401 L341.27,36.7926247 L341.27,37.2326247 L342.01,37.5601811 C341.845,38.1371449 341.515,38.7410724 341.185,39.035 C341.26,39.1781983 341.375,39.4041023 341.43,39.5634477 C341.66,39.3602558 341.88,39.0026374 342.055,38.5951 L342.055,40.7801 L342.52,40.9859294 Z M343.055,41.2327438 C343.765,40.8270208 343.88,39.7129249 343.88,38.8779249 L343.88,37.7229249 L344.67,38.0726134 L344.67,41.1526134 C344.67,41.5776134 344.705,41.6981059 344.785,41.8185174 C344.87,41.9311421 344.995,42.0214726 345.09,42.0635238 L345.345,42.1763979 C345.455,42.2250887 345.555,42.2443531 345.63,42.2225514 C345.7,42.1985364 345.75,42.1356686 345.77,41.9995215 C345.8,41.8778008 345.82,41.5316537 345.82,41.2566537 C345.7,41.1585364 345.565,41.0237795 345.47,40.9067284 C345.47,41.2217284 345.465,41.4695152 345.455,41.5800887 C345.45,41.6878755 345.44,41.7284491 345.415,41.747383 C345.395,41.7585301 345.365,41.7552508 345.33,41.7397583 L345.23,41.6954939 C345.195,41.6800014 345.175,41.6611485 345.155,41.6322956 C345.143,41.6109839 345.1374,41.5541051 345.13564,41.452846 L345.135,37.8384427 L343.41,37.0748823 L343.41,38.6698823 C343.41,39.4248823 343.345,40.3811105 342.68,40.7567524 C342.79,40.8654432 342.98,41.1095455 343.055,41.2327438 Z M349.995714,44.2750074 C350.165714,44.3302569 350.285714,44.3333741 350.390714,44.2198517 C350.580714,44.058954 350.645714,43.3077259 350.720714,41.0559241 L350.720714,40.8259241 L348.820714,39.984901 C348.900714,39.7953125 348.975714,39.5935108 349.040714,39.3872827 L348.585714,39.0808798 C348.425714,39.6750568 348.145714,40.2061165 347.790714,40.458978 C347.895714,40.5754556 348.085714,40.7995579 348.165714,40.9149694 C348.330714,40.7730056 348.495714,40.5760418 348.635714,40.333012 L350.250714,41.0478816 C350.190714,42.951323 350.120714,43.6603379 349.980714,43.7583678 C349.930714,43.8062356 349.875714,43.7968902 349.790714,43.7592655 L349.644048,43.6934185 C349.524048,43.6384494 349.364048,43.5620708 349.190714,43.4686792 C349.275714,43.6413039 349.330714,43.8606494 349.340714,43.9950758 C349.585714,44.1135235 349.840714,44.2313977 349.995714,44.2750074 Z M347.435714,43.1618395 L347.435714,40.7218395 C347.560714,41.0121699 347.695714,41.3419269 347.765714,41.5329119 L348.045714,41.3218522 C347.960714,41.1392274 347.565714,40.3793832 347.435714,40.1468395 L347.435714,39.9468395 L347.970714,40.1836539 L347.970714,39.7536539 L347.435714,39.5168395 L347.435714,38.5768395 L346.985714,38.3776498 L346.985714,39.3176498 L346.285714,39.0077992 L346.285714,39.4377992 L346.950714,39.7321573 C346.805714,40.3129739 346.510714,40.932394 346.195714,41.1929613 C346.275714,41.3483728 346.380714,41.6048503 346.425714,41.7547693 C346.630714,41.5455113 346.830714,41.17904 346.985714,40.7576498 L346.985714,42.9626498 L347.435714,43.1618395 Z M349.570714,43.0818838 L349.945714,43.0978752 C349.860714,42.7602505 349.655714,42.1745086 349.480714,41.7220459 L349.135714,41.6893338 C349.205714,41.8753189 349.280714,42.0935172 349.345714,42.297289 L348.615714,42.1041591 C348.835714,41.8015407 349.045714,41.4094959 349.195714,41.0058924 L348.755714,40.6811292 C348.620714,41.1813723 348.355714,41.6740717 348.270714,41.786447 C348.185714,41.9138223 348.110714,41.990624 348.030714,41.9752125 C348.075714,42.1101315 348.150714,42.3483297 348.170714,42.4421826 C348.280714,42.4408734 348.440714,42.4566964 349.475714,42.7098327 C349.515714,42.8525384 349.545714,42.9808178 349.570714,43.0818838 Z M351.431429,43.6405174 C351.531429,43.6197817 351.691429,43.6356047 352.671429,43.8393956 C352.656429,43.7477559 352.641429,43.5661163 352.641429,43.4511163 L351.996429,43.3006111 C352.291429,43.006191 352.576429,42.6223444 352.796429,42.224726 L352.421429,41.8487346 C352.351429,41.9877496 352.281429,42.1367645 352.196429,42.2641398 L351.796429,42.1220823 C352.031429,41.8011036 352.256429,41.3656984 352.411429,40.9293082 L351.966429,40.5823318 C351.841429,41.1070013 351.576429,41.6247007 351.496429,41.7542892 C351.411429,41.8816645 351.336429,41.9584662 351.251429,41.9458415 C351.306429,42.0901869 351.371429,42.3289587 351.396429,42.4250248 C351.450873,42.425791 351.52649,42.4389539 351.750317,42.5042778 L351.981429,42.5739714 C351.826429,42.7803616 351.691429,42.9406047 351.621429,42.9996197 C351.496429,43.1242892 351.396429,43.2050248 351.296429,43.1857605 C351.341429,43.3156794 351.411429,43.5466645 351.431429,43.6405174 Z M353.046429,45.645387 C353.441429,45.4402313 353.631429,45.0593336 353.721429,44.5891715 L354.336429,44.8613974 L354.336429,44.4463974 L353.776429,44.1985169 C353.791429,43.9901566 353.801429,43.774583 353.801429,43.549583 L354.206429,43.7288537 L354.206429,43.3188537 L353.801429,43.139583 L353.801429,42.504583 L354.291429,42.7214784 L354.291429,42.3064784 L353.801429,42.089583 L353.801429,41.419583 L353.391429,41.2380991 L353.391429,41.9080991 L352.861429,41.6734979 L352.861429,42.0884979 L353.391429,42.3230991 L353.391429,42.9580991 L352.921429,42.7500565 L352.921429,43.1600565 L353.391429,43.3680991 C353.391429,43.5930991 353.381429,43.8136726 353.361429,44.0148198 L352.761429,43.7492335 L352.761429,44.1642335 L353.296429,44.4010479 C353.206429,44.76121 353.026429,45.0465341 352.701429,45.2076749 C352.806429,45.3141525 352.976429,45.5244019 353.046429,45.645387 Z M354.861429,46.4487853 L354.861429,42.5487853 L355.331429,42.7568279 C355.236429,43.0997767 355.121429,43.4888727 354.981429,43.8869026 C355.321429,44.5224015 355.456429,44.8871584 355.456429,45.1771584 C355.456429,45.3521584 355.426429,45.5038791 355.346429,45.5284676 C355.306429,45.5357618 355.251429,45.5264164 355.186429,45.4976446 C355.111429,45.4694463 354.981429,45.4119026 354.866429,45.3459986 C354.936429,45.4919836 354.966429,45.6802629 354.971429,45.7874762 C355.106429,45.8572331 355.246429,45.9192032 355.351429,45.9556808 C355.456429,45.9821584 355.556429,45.9964227 355.621429,45.9701946 C355.781429,45.9160176 355.856429,45.6842159 355.856429,45.3692159 C355.856429,45.0492159 355.711429,44.6350325 355.366429,43.9973204 C355.551429,43.5542095 355.711429,43.1150325 355.841429,42.7375762 L355.541429,42.4447831 L355.476429,42.4360112 L354.461429,41.9867279 L354.461429,46.2717279 L354.861429,46.4487853 Z M351.376429,44.621172 C351.771429,44.6460162 352.256429,44.6706984 352.726429,44.688741 L352.646429,44.2733295 C352.131429,44.230368 351.621429,44.1896197 351.276429,44.1419076 L351.376429,44.621172 Z M356.977143,44.485293 L356.977143,43.780293 L360.222143,45.2166719 L360.222143,45.9216719 L360.697143,46.1319277 L360.697143,44.9869277 L358.947143,44.2123012 C358.887143,44.0157425 358.772143,43.7298385 358.667143,43.4983609 L358.207143,43.4297448 C358.277143,43.6007299 358.357143,43.8061414 358.407143,43.9732735 L356.522143,43.1388901 L356.522143,44.2838901 L356.977143,44.485293 Z M356.667143,47.2630735 C356.977143,47.130293 357.212143,46.8793143 357.377143,46.5273505 C357.832143,47.5237534 358.547143,48.0052437 359.532143,48.4412477 L360.727143,48.970207 C360.747143,48.8390599 360.822143,48.6522581 360.897143,48.5754564 C360.770476,48.5216104 360.535168,48.4186871 360.293494,48.3123977 L359.557143,47.9873138 C359.302143,47.8744397 359.062143,47.7582052 358.842143,47.6208236 L358.842143,46.7458236 L360.272143,47.3788041 L360.272143,46.9438041 L358.842143,46.3108236 L358.842143,45.5858236 L360.022143,46.1081432 L360.022143,45.6681432 L357.207143,44.4221011 L357.207143,44.8621011 L358.362143,45.3733546 L358.362143,47.2783546 C358.012143,46.9684293 357.732143,46.579489 357.552143,46.0298132 C357.602143,45.8569453 357.637143,45.6574379 357.667143,45.4507172 L357.197143,45.1926746 C357.097143,46.0284103 356.842143,46.6155361 356.297143,46.7842953 C356.402143,46.9007729 356.597143,47.1470884 356.667143,47.2630735 Z" id="机构绑定" fill="#FFFFFF" fill-rule="nonzero" opacity="0.882370722" mask="url(#mask-2)"></path>
                    <g id="编组-20" opacity="0.22" mask="url(#mask-2)">
                        <g transform="translate(0.000000, 128.000000)">
                            <g id="编组-18" opacity="0.1" transform="translate(0.000000, 6.000000)">
                                <circle id="椭圆形" fill="#FFFFFF" cx="1" cy="5.66666667" r="1"></circle>
                                <circle id="椭圆形备份-3" fill="#FFFFFF" cx="1" cy="1" r="1"></circle>
                                <circle id="椭圆形备份" fill="#FFFFFF" cx="1" cy="10.3333333" r="1"></circle>
                            </g>
                            <g id="编组-18备份" opacity="0.2" transform="translate(8.000000, 0.000000)">
                                <circle id="椭圆形" fill="#FFFFFF" cx="1" cy="7.66666667" r="1"></circle>
                                <circle id="椭圆形备份-3" fill="#FFFFFF" cx="1" cy="1" r="1"></circle>
                                <circle id="椭圆形备份" fill="#FFFFFF" cx="1" cy="14.3333333" r="1"></circle>
                            </g>
                            <g id="编组-18备份-2" opacity="0.4" transform="translate(16.000000, 0.000000)">
                                <circle id="椭圆形" fill="#FFFFFF" cx="1" cy="7.66666667" r="1"></circle>
                                <circle id="椭圆形备份-3" fill="#FFFFFF" cx="1" cy="1" r="1"></circle>
                                <circle id="椭圆形备份" fill="#FFFFFF" cx="1" cy="14.3333333" r="1"></circle>
                            </g>
                            <g id="编组-18备份-3" opacity="0.6" transform="translate(24.000000, 0.000000)">
                                <circle id="椭圆形" fill="#FFFFFF" cx="1" cy="7.66666667" r="1"></circle>
                                <circle id="椭圆形备份-3" fill="#FFFFFF" cx="1" cy="1" r="1"></circle>
                                <circle id="椭圆形备份" fill="#FFFFFF" cx="1" cy="14.3333333" r="1"></circle>
                            </g>
                            <g id="编组-18备份-4" opacity="0.8" transform="translate(32.000000, 0.000000)">
                                <circle id="椭圆形" fill="#FFFFFF" cx="1" cy="7.66666667" r="1"></circle>
                                <circle id="椭圆形备份-3" fill="#FFFFFF" cx="1" cy="1" r="1"></circle>
                                <circle id="椭圆形备份" fill="#FFFFFF" cx="1" cy="14.3333333" r="1"></circle>
                            </g>
                            <g id="编组-18备份-5" transform="translate(40.000000, 0.000000)">
                                <circle id="椭圆形" fill="#FFFFFF" cx="1" cy="7.66666667" r="1"></circle>
                                <circle id="椭圆形备份-3" fill="#FFFFFF" cx="1" cy="1" r="1"></circle>
                                <circle id="椭圆形备份" fill="#FFFFFF" cx="1" cy="14.3333333" r="1"></circle>
                            </g>
                            <g id="编组-18备份-7" transform="translate(56.000000, 0.000000)">
                                <circle id="椭圆形" fill="#FFFFFF" cx="1" cy="7.66666667" r="1"></circle>
                                <circle id="椭圆形备份-3" fill="#FFFFFF" cx="1" cy="1" r="1"></circle>
                                <circle id="椭圆形备份" fill="#FFFFFF" cx="1" cy="14.3333333" r="1"></circle>
                            </g>
                            <g id="编组-18备份-9" transform="translate(72.000000, 0.000000)">
                                <circle id="椭圆形" fill="#FFFFFF" cx="1" cy="7.66666667" r="1"></circle>
                                <circle id="椭圆形备份-3" fill="#FFFFFF" cx="1" cy="1" r="1"></circle>
                                <circle id="椭圆形备份" fill="#FFFFFF" cx="1" cy="14.3333333" r="1"></circle>
                            </g>
                            <g id="编组-18备份-6" transform="translate(48.000000, 0.000000)">
                                <circle id="椭圆形" fill="#FFFFFF" cx="1" cy="7.66666667" r="1"></circle>
                                <circle id="椭圆形备份-3" fill="#FFFFFF" cx="1" cy="1" r="1"></circle>
                                <circle id="椭圆形备份" fill="#FFFFFF" cx="1" cy="14.3333333" r="1"></circle>
                            </g>
                            <g id="编组-18备份-8" transform="translate(64.000000, 0.000000)">
                                <circle id="椭圆形" fill="#FFFFFF" cx="1" cy="7.66666667" r="1"></circle>
                                <circle id="椭圆形备份-3" fill="#FFFFFF" cx="1" cy="1" r="1"></circle>
                                <circle id="椭圆形备份" fill="#FFFFFF" cx="1" cy="14.3333333" r="1"></circle>
                            </g>
                            <g id="编组-18备份-10" transform="translate(80.000000, 0.000000)">
                                <circle id="椭圆形" fill="#FFFFFF" cx="1" cy="7.66666667" r="1"></circle>
                                <circle id="椭圆形备份-3" fill="#FFFFFF" cx="1" cy="1" r="1"></circle>
                                <circle id="椭圆形备份" fill="#FFFFFF" cx="1" cy="14.3333333" r="1"></circle>
                            </g>
                        </g>
                    </g>
                    <polygon id="路径-11" fill="#FFFFFF" opacity="0.658714658" mask="url(#mask-2)" points="341.185 44.3811805 341.185 46.8823779 358.896118 54.6020547 358.896118 52.2034433"></polygon>
                    <polygon id="路径-11备份" fill="#FFFFFF" opacity="0.658714658" mask="url(#mask-2)" points="341.185 49.3811805 341.185 51.8823779 358.896118 59.6020547 358.896118 57.2034433"></polygon>
                    <polygon id="路径-11备份-2" fill="#FFFFFF" opacity="0.658714658" mask="url(#mask-2)" points="341.185 54.3811805 341.185 56.8823779 358.896118 64.6020547 358.896118 62.2034433"></polygon>
                    <polygon id="路径-11备份-3" fill="#FFFFFF" opacity="0.658714658" mask="url(#mask-2)" points="350.518929 63.5764526 350.518929 66.0776499 358.896118 69.6020547 358.896118 67.2034433"></polygon>
                </g>
                <g id="我的机构" transform="translate(24.000000, 45.000000)"></g>
            </g>
        </g>
    </g>
</svg>