<svg height="20" viewBox="0 0 28 20" width="28" xmlns="http://www.w3.org/2000/svg"><g fill="none" fill-rule="evenodd" transform="translate(-2 -6)"><path d="m0 32h32v-32h-32z" fill="#fefefe" opacity="0"/><path d="m26.8492261 9.32628322c-.4632345 0-.842176-.37890722-.842176-.8420389v-1.64220542c0-.46309741-.3789415-.8420389-.8420389-.8420389h-21.65630564c-.4630974 0-.84203889.37894149-.84203889.8420389v17.4878465c0 .9263661.74379988 1.670166 1.67016602 1.670166h22.49834451c1.375449 0 2.4981561-1.1228784 2.4981561-2.4982932v-13.3192159c0-.46326876-.3789072-.84221025-.8420389-.84221025h-1.6420683zm-2.512342 14.16152898c0 .4631317-.3789415.8420732-.8420389.8420732h-18.31583655c-.46323447 0-.84217596-.3789415-.84217596-.8420732v-14.97547022c0-.46323447.37894149-.84217596.84217596-.84217596h18.31583655c.4630974 0 .8420389.37894149.8420389.84217596zm-18.34393421-12.9966411c0-.4630974.37894149-.82799009.84217595-.82799009h14.97547026c.4631316 0 .8420731.37894149.8420731.82799009 0 .4492199-.3789415.8281271-.8420731.8281271h-14.96142143c-.46323446 0-.85622478-.3648584-.85622478-.8281271zm10.00711861 3.3264203c0-.4632345.3789415-.8281272.8420389-.8281272h4.9825375c.4631317 0 .8420732.3789415.8420732.8281272 0 .4631316-.3789415.8280243-.8420732.8280243h-4.9825375c-.4630974.0140488-.8420389-.3648927-.8420389-.8280243zm0 3.3403663c0-.4632688.3789415-.8281272.8420389-.8281272h4.9825375c.4631317 0 .8420732.3789073.8420732.8281272 0 .4630974-.3789415.82799-.8420732.82799h-4.9825375c-.4630974 0-.8420389-.3648926-.8420389-.82799zm0 3.3262832c0-.4631317.3789415-.8281271.8420389-.8281271h3.3123715c.4631317 0 .8420731.3790785.8420731.8281271 0 .4490828-.3789414.8281271-.8420731.8281271h-3.3123715c-.4630974.0139118-.8420389-.3649954-.8420389-.8281271zm-10.00711861-6.6525664c0-.4632688.37894149-.8422103.84217595-.8422103h6.63855186c.4632345 0 .842176.3789415.842176.8422103v6.6385176c0 .4631316-.3789415.8421759-.842176.8421759h-6.62450303c-.46323446 0-.84217595-.3790443-.84217595-.8421759v-6.6385176z" fill="#000" opacity=".603562"/></g></svg>