<?xml version="1.0" encoding="UTF-8"?>
<svg width="24px" height="24px" viewBox="0 0 24 24" version="1.1"
    xmlns="http://www.w3.org/2000/svg"
    xmlns:xlink="http://www.w3.org/1999/xlink">
    <g id="样式规范汇总" stroke="none" stroke-width="1" fill="none" fill-rule="evenodd">
        <g id="Access-Control" transform="translate(-518.000000, -1803.000000)">
            <g id="弹窗备份-7" transform="translate(94.000000, 1689.000000)">
                <g id="icon/24x24/切换" transform="translate(424.000000, 114.000000)">
                    <polygon id="Fill-1" fill="#FEFEFE" opacity="0" points="0 24 24 24 24 0 0 0"></polygon>
                    <g id="编组" transform="translate(3.000000, 6.000000)" fill="#4F709B">
                        <path d="M13.6643729,4.47603651 L17.453332,4.47603651 C17.5402466,4.47603651 17.6200952,4.42815611 17.6611301,4.3515382 C17.702165,4.27492029 17.697735,4.18194281 17.6496016,4.10957335 L14.9863411,0.105020368 C14.9422531,0.0388213211 14.8677424,-0.000666699835 14.7882088,8.52184247e-06 L13.9381726,0.00653630372 C13.6561907,0.00871037859 13.4287478,0.237920368 13.4287562,0.519910683 L13.4287562,1.92290116 C13.4287562,2.16271127 13.2343517,2.35711577 12.9945416,2.35711577 L0.235849545,2.35711577 C0.105593438,2.35711577 0,2.46270921 0,2.59296532 L0,4.23925567 C0,4.36945858 0.105646636,4.47497688 0.235849545,4.47510522 L13.6643729,4.47603651 Z M17.6537924,7.45127941 L0.448183982,7.45127941 C0.332947099,7.45110348 0.235249837,7.53597984 0.219319123,7.65011039 C0.206529755,7.71378638 0.219959796,7.77992933 0.256570778,7.8335748 L2.83950745,11.6912166 C2.93529347,11.8343712 3.09635604,11.9201023 3.26859996,11.9196178 L3.95146937,11.917986 C4.23549687,11.9174722 4.46543832,11.6870098 4.4653094,11.4029819 L4.4653094,9.9909113 C4.46524762,9.87929151 4.50954512,9.77222222 4.58845042,9.69327326 C4.66735571,9.61432431 4.77440047,9.56996758 4.88602028,9.5699676 L17.6537924,9.5699676 C17.7814768,9.5699676 17.8849897,9.46645892 17.8849897,9.33877451 L17.8849897,7.68410253 C17.8853573,7.62252321 17.8611711,7.56333503 17.8177804,7.51963842 C17.7743897,7.4759418 17.7153728,7.45134051 17.6537924,7.45127941 L17.6537924,7.45127941 Z" id="形状"></path>
                    </g>
                </g>
            </g>
        </g>
    </g>
</svg>