<?xml version="1.0" encoding="UTF-8"?>
<svg width="18px" height="18px" viewBox="0 0 18 18" version="1.1" xmlns="http://www.w3.org/2000/svg" xmlns:xlink="http://www.w3.org/1999/xlink">
    <!-- Generator: Sketch 64 (93537) - https://sketch.com -->
    <title>icon/18x18/基金/s</title>
    <desc>Created with Sketch.</desc>
    <g id="icon/18x18/基金/s" stroke="none" stroke-width="1" fill-rule="evenodd" opacity="0.603562128">
        <path d="M15.1349766,10.692 C15.2639766,10.677 15.3884766,10.734 15.4619766,10.8345 C15.5384766,10.938 15.5504766,11.0745 15.5009766,11.1915 L15.5009766,11.1915 L15.0119766,12.2985 C14.9594766,12.4155 14.8484766,12.4965 14.7209766,12.51 C14.7089766,12.5115 14.6969766,12.5115 14.6834766,12.5115 C14.5709766,12.5115 14.4614766,12.459 14.3939766,12.366 L14.3939766,12.366 L14.3069766,12.246 L8.71047656,16.4145 C8.63397656,16.473 8.54397656,16.5 8.45397656,16.5 C8.32797656,16.5 8.20197656,16.4445 8.11797656,16.3395 L8.11797656,16.3395 L6.70197656,14.5785 C5.36397656,15.5715 5.31297656,15.5895 5.23947656,15.6135 C5.01447656,15.687 4.77147656,15.567 4.69497656,15.342 C4.62747656,15.138 4.71897656,14.9205 4.90347656,14.8245 C5.04897656,14.7315 5.92947656,14.0835 6.52347656,13.641 C6.70947656,13.5015 6.97197656,13.536 7.11597656,13.716 L7.11597656,13.716 L8.53047656,15.477 L13.7984766,11.5515 L13.6799766,11.3895 C13.6049766,11.286 13.5899766,11.1495 13.6424766,11.034 C13.6934766,10.917 13.8044766,10.836 13.9319766,10.8225 L13.9319766,10.8225 Z M8.75097656,1.5 C12.7439766,1.5 15.9929766,4.749 15.9944766,8.7435 C15.9944766,8.982 15.6936279,9.21079594 15.4551279,9.21079594 C15.2166279,9.21079594 14.8891174,8.9805 14.8891174,8.742 C14.8891174,5.223 12.2699766,2.64568667 8.75097656,2.64568667 C5.23197656,2.64568667 2.63293597,5.223 2.63293597,8.742 C2.63293597,10.446 3.15148551,11.9613398 4.35598551,13.1658398 C4.52398551,13.3353398 4.50040128,13.6180107 4.33240128,13.7860107 C4.24840128,13.8700107 4.04247656,13.989 3.93297656,13.989 C3.82197656,13.989 3.71247656,13.947 3.62847656,13.863 C2.26047656,12.495 1.50747656,10.677 1.50747656,8.742 C1.50747656,4.749 4.75647656,1.5 8.75097656,1.5 Z M7.18071429,4.5 L8.895,8.01428571 L10.6092857,4.5 L11.565,4.5 L10.0992857,7.5 L11.4664286,7.5 L11.4664286,8.35714286 L9.68357143,8.35714286 L9.32357143,9.09 L9.32357143,9.21428571 L11.4664286,9.21428571 L11.4664286,10.0714286 L9.32357143,10.0714286 L9.32357143,12.2142857 L8.46642857,12.2142857 L8.46642857,10.0714286 L6.32357143,10.0714286 L6.32357143,9.21428571 L8.46642857,9.21428571 L8.46642857,9.09 L8.10642857,8.35714286 L6.32357143,8.35714286 L6.32357143,7.5 L7.69071429,7.5 L6.225,4.5 L7.18071429,4.5 Z" id="形状结合" fill="#000000"></path>
    </g>
</svg>