<?xml version="1.0" encoding="UTF-8"?>
<svg width="18px" height="18px" viewBox="0 0 18 18" version="1.1" xmlns="http://www.w3.org/2000/svg" xmlns:xlink="http://www.w3.org/1999/xlink">
    <!-- Generator: Sketch 64 (93537) - https://sketch.com -->
    <title>icon/18x18/投资机构/s</title>
    <desc>Created with Sketch.</desc>
    <g id="icon/18x18/投资机构/s" stroke="none" stroke-width="1" fill-rule="evenodd" opacity="0.603562128">
        <path d="M5.44736842,8.26973684 L4.02631579,8.26973684 L4.02631579,13.2434211 L5.44736842,13.2434211 L5.44736842,8.26973684 M9.71052632,8.26973684 L8.28947368,8.26973684 L8.28947368,13.2434211 L9.71052632,13.2434211 L9.71052632,8.26973684 M15.75,14.6644737 L2.25,14.6644737 L2.25,16.0855263 L15.75,16.0855263 L15.75,14.6644737 M13.9736842,8.26973684 L12.5526316,8.26973684 L12.5526316,13.2434211 L13.9736842,13.2434211 L13.9736842,8.26973684 M9,3.48078947 L12.7018421,5.42763158 L5.29815789,5.42763158 L9,3.48078947 M9,1.875 L2.25,5.42763158 L2.25,6.84868421 L15.75,6.84868421 L15.75,5.42763158 L9,1.875 Z" id="形状" fill="#000000"></path>
    </g>
</svg>