<?xml version="1.0" encoding="UTF-8"?>
<svg width="18px" height="18px" viewBox="0 0 18 18" version="1.1" xmlns="http://www.w3.org/2000/svg" xmlns:xlink="http://www.w3.org/1999/xlink">
    <!-- Generator: Sketch 64 (93537) - https://sketch.com -->
    <title>icon/18x18/LP/s</title>
    <desc>Created with Sketch.</desc>
    <g id="icon/18x18/LP/s" stroke="none" stroke-width="1" fill-rule="evenodd" opacity="0.603562128">
        <path d="M11.6882812,4.5 L9.675,4.5 C9.4875,4.5 9.30703125,4.5703125 9.16875,4.696875 L6.86484375,6.80625 C6.8625,6.80859375 6.86015625,6.81328125 6.8578125,6.815625 C6.46875,7.18125 6.47578125,7.76484375 6.80859375,8.128125 C7.10625,8.45390625 7.73203125,8.540625 8.1234375,8.19140625 C8.12578125,8.1890625 8.13046875,8.1890625 8.1328125,8.18671875 L10.0054687,6.47109375 C10.1578125,6.3328125 10.396875,6.3421875 10.5351562,6.49453125 C10.6757812,6.646875 10.6640625,6.88359375 10.5117187,7.02421875 L9.9,7.584375 L13.3125,10.3546875 C13.3804687,10.4109375 13.4414062,10.471875 13.4976562,10.5351562 L13.4976562,6 L12.2179687,4.7203125 C12.0796875,4.5796875 11.8875,4.5 11.6882812,4.5 Z M14.25,6.0046875 L14.25,11.2523438 C14.25,11.6671875 14.5851562,12.0023438 15,12.0023438 L16.5,12.0023438 L16.5,6.0046875 L14.25,6.0046875 Z M15.375,11.2523438 C15.16875,11.2523438 15,11.0835938 15,10.8773438 C15,10.6710938 15.16875,10.5023438 15.375,10.5023438 C15.58125,10.5023438 15.75,10.6710938 15.75,10.8773438 C15.75,11.0835938 15.58125,11.2523438 15.375,11.2523438 Z M1.5,12 L3,12 C3.41484375,12 3.75,11.6648438 3.75,11.25 L3.75,6.0046875 L1.5,6.0046875 L1.5,12 Z M2.625,10.5023438 C2.83125,10.5023438 3,10.6710938 3,10.8773438 C3,11.0835938 2.83125,11.2523438 2.625,11.2523438 C2.41875,11.2523438 2.25,11.0835938 2.25,10.8773438 C2.25,10.66875 2.41875,10.5023438 2.625,10.5023438 Z M12.8414063,10.9382813 L9.3421875,8.09765625 L8.6390625,8.7421875 C7.94296875,9.37734375 6.8765625,9.31640625 6.25546875,8.6390625 C5.625,7.95 5.67421875,6.88359375 6.35859375,6.25546875 L8.27578125,4.5 L6.31171875,4.5 C6.1125,4.5 5.92265625,4.5796875 5.78203125,4.7203125 L4.5,6 L4.5,11.2476562 L4.92890625,11.2476562 L7.05,13.1671875 C7.6921875,13.6898437 8.63671875,13.5914062 9.159375,12.9492187 L9.1640625,12.9445312 L9.58359375,13.3078125 C9.95625,13.6125 10.5070313,13.5539062 10.809375,13.18125 L11.5453125,12.2765625 L11.671875,12.3796875 C11.9929687,12.6398437 12.4664062,12.5929687 12.7265625,12.2695312 L12.9492188,11.9953125 C13.2117187,11.671875 13.1625,11.2007812 12.8414062,10.9382812 L12.8414063,10.9382813 Z" id="形状" fill="#000000"></path>
    </g>
</svg>