<?xml version="1.0" encoding="UTF-8"?>
<svg width="24px" height="24px" viewBox="0 0 24 24" version="1.1" xmlns="http://www.w3.org/2000/svg" xmlns:xlink="http://www.w3.org/1999/xlink">
    <title>icon/24x24/ fire</title>
    <g id="icon/24x24/-fire" stroke="none" stroke-width="1" fill="none" fill-rule="evenodd">
        <rect id="矩形" fill="#000000" fill-rule="nonzero" opacity="0" x="0" y="0" width="24" height="24"></rect>
        <g id="编组" transform="translate(3.000000, 0.500000)" fill="#FFFFFF">
            <path d="M9.31397713,0.5 L9.31397712,1.46480663 C9.31397711,3.45902776 9.74714808,4.66459496 10.9943224,6.39113216 L11.2585637,6.74868967 C11.334591,6.48656769 11.3988524,6.24337108 11.4522058,6.012458 L11.501955,5.78539343 L11.55722,5.49306404 C11.5983857,5.25166482 11.6247771,5.02704926 11.6353999,4.82070454 L11.6407298,4.62050519 L11.6407298,3.64877676 L12.3923679,4.19471898 C15.9392019,6.77091408 17.7888827,11.1159128 16.6789356,15.5958798 C16.2890141,17.0057919 15.5199196,18.3771188 14.5516717,19.2259758 L14.3554201,19.3886376 C12.7732596,20.7271653 10.9767984,21.5 8.59086341,21.5 C5.55899312,21.5 3.3919068,20.2316677 1.98493155,18.424427 C1.73009365,18.1358489 1.52855398,17.8394756 1.24627195,17.3725222 C-0.583366564,14.1505896 -0.352288117,10.6489856 1.6363074,8.03859456 L1.8110555,7.81705663 L2.38678799,7.11185153 L2.6350654,8.00959453 C2.76506793,8.47966894 3.0422031,8.90024864 3.5111618,9.38947246 L3.72016959,9.59908362 L3.72525025,9.37125596 C3.83440666,6.27389919 5.44832978,3.48405063 8.03367115,1.43743681 L8.30456361,1.22838726 L8.56470287,1.03731438 L9.31397713,0.5 Z M7.68764414,4.76401667 C6.34748499,6.37542832 5.70185889,8.20875272 6.00534918,10.3003683 L6.05264109,10.587193 L6.71385453,15.8299279 L3.25217167,12.0545955 L2.95394388,11.7835582 L2.84648105,11.673861 C2.83873583,11.6643896 2.83714431,11.6604557 2.84554072,11.6658206 C2.771802,11.604483 2.69876577,11.5401163 2.62321458,11.4699602 L2.45831633,11.310967 L2.39739727,11.5263065 C2.04484725,12.8847212 2.25685661,14.4065295 3.03365897,15.9459344 L3.16835563,16.2026398 C3.25177746,16.3810771 3.39364618,16.5786748 3.61732379,16.819708 C4.73892026,18.2017793 6.26642705,19.0738207 8.59086341,19.0738207 C10.4769492,19.0738207 11.9005439,18.4680024 12.9870545,17.4625104 C13.664553,16.9449559 14.2419972,15.9738812 14.5099898,14.9071234 C15.1249843,12.3647478 14.5912924,9.99837845 13.1915644,8.03074111 L13.0093731,7.78323135 L12.8967503,8.16067787 L12.8634653,8.28274186 L11.8782325,11.125266 L10.0725587,8.7609429 L9.92255016,8.59560695 L9.44079458,7.94602198 L9.20795655,7.62361687 C8.53479683,6.67515831 8.05250576,5.8162739 7.7241936,4.87348618 L7.68764414,4.76401667 Z" id="形状"></path>
        </g>
    </g>
</svg>