<?xml version="1.0" encoding="UTF-8"?>
<svg width="139px" height="17px" viewBox="0 0 139 17" version="1.1" xmlns="http://www.w3.org/2000/svg" xmlns:xlink="http://www.w3.org/1999/xlink">
    <title>编组 11备份</title>
    <g id="高级搜索" stroke="none" stroke-width="1" fill="none" fill-rule="evenodd">
        <g id="编组-11备份" fill="#FFFFFF">
            <path d="M71,3.71875 C72.34375,3.71875 73.5625,4.28125 74.65625,5.40625 L74.65625,5.40625 L74.65625,4.34375 C74.65625,4.15625 74.8125,4.03125 74.96875,4.03125 L74.96875,4.03125 L77.0625,4.03125 C77.21875,4.03125 77.34375,4.1875 77.375,4.34375 L77.375,4.34375 L77.375,15.71875 L74.65625,15.71875 L74.65625,14.5 C73.53125,15.53125 72.34375,16.0625 71.0625,16.0625 C69.4375,16.0625 68.125,15.46875 67.0625,14.3125 C66.03125,13.125 65.5,11.625 65.5,9.84375 C65.5,8.09375 66.03125,6.625 67.0625,5.46875 C68.125,4.3125 69.4375,3.71875 71,3.71875 Z M91.4375,3.71875 C92.78125,3.71875 94,4.28125 95.09375,5.40625 L95.09375,5.40625 L95.09375,4.34375 C95.09375,4.15625 95.25,4.03125 95.40625,4.03125 L95.40625,4.03125 L97.5,4.03125 C97.6875,4.03125 97.8125,4.1875 97.8125,4.34375 L97.8125,4.34375 L97.8125,15.71875 L95.09375,15.71875 L95.09375,14.5 C93.96875,15.53125 92.78125,16.0625 91.5,16.0625 C89.875,16.0625 88.5625,15.46875 87.5,14.3125 C86.46875,13.125 85.9375,11.625 85.9375,9.84375 C85.9375,8.09375 86.46875,6.625 87.5,5.46875 C88.5625,4.3125 89.875,3.71875 91.4375,3.71875 Z M56.03125,1 C60.9375,1 64.96875,5.46875 63.84375,10.25 C63.0625,13.59375 60.21875,15.96875 56.84375,16 L56.84375,16 L56.84375,13.1875 C59.28125,13.125 61.25,11.125 61.25,8.65625 C61.25,5.875 59.25,3.65625 56.75,3.65625 L56.75,3.65625 L55.15625,3.65625 L55.15625,16 L52.34375,16 L52.34375,1.3125 C52.34375,1.125 52.46875,1 52.65625,1 L52.65625,1 Z M6.4375,1 C9.1875,1 11.40625,3.125 11.40625,5.75 C11.40625,8 9.78125,9.875 7.625,10.375 L7.625,10.375 L11.40625,16 L8.0625,16 L4.375,10.53125 L2.8125,10.53125 L2.8125,15.96875 L0,15.96875 L0,8.15625 C0,7.96875 0.125,7.84375 0.3125,7.84375 L0.3125,7.84375 L6.4375,7.84375 C7.71875,7.84375 8.75,6.90625 8.75,5.75 C8.75,4.59375 7.71875,3.65625 6.4375,3.65625 L6.4375,3.65625 L0.3125,3.65625 C0.125,3.65625 0,3.53125 0,3.34375 L0,3.34375 L0,1.3125 C0,1.125 0.125,1 0.3125,1 L0.3125,1 Z M15.90625,7.875 C16.0625,7.875 16.21875,8.03125 16.21875,8.1875 L16.21875,8.1875 L16.21875,16 L13.40625,16 L13.40625,8.1875 C13.40625,8 13.53125,7.875 13.71875,7.875 L13.71875,7.875 Z M82.90625,1 C83.09375,1 83.21875,1.125 83.21875,1.3125 L83.21875,1.3125 L83.21875,4.75 L84.5625,4.75 C84.75,4.75 84.875,4.875 84.90625,5.0625 L84.90625,5.0625 L84.90625,7.25 C84.90625,7.4375 84.78125,7.5625 84.59375,7.5625 L84.59375,7.5625 L83.25,7.5625 L83.25,16 L80.4375,16 L80.4375,7.5625 L79.53125,7.5625 C79.34375,7.5625 79.21875,7.4375 79.21875,7.25 L79.21875,7.25 L79.21875,5.0625 C79.21875,4.875 79.34375,4.75 79.53125,4.75 L79.53125,4.75 L80.40625,4.75 L80.40625,1.3125 C80.40625,1.125 80.53125,1 80.71875,1 L80.71875,1 Z M42.65625,3.65625 C46.0625,3.65625 48.84375,6.4375 48.84375,9.84375 C48.84375,10.25 48.78125,10.625 48.71875,11 L48.71875,11 L38.96875,11 C39.46875,12.5625 40.90625,13.71875 42.65625,13.71875 C43.8125,13.71875 44.8125,13.1875 45.5,12.375 L45.5,12.375 L48.25,12.375 C47.28125,14.5 45.15625,16 42.65625,16 C39.25,16 36.5,13.1875 36.5,9.8125 C36.5,6.4375 39.25,3.65625 42.65625,3.65625 Z M30.9375,3.65625 C33.59375,3.65625 34.9375,5.28125 34.9375,8.5625 L34.9375,8.5625 L34.9375,15.96875 L32.1875,15.96875 L32.1875,9.3125 C32.1875,8.15625 32.0625,7.34375 31.78125,6.875 C31.5,6.40625 31.03125,6.15625 30.375,6.15625 C29.625,6.15625 29.0625,6.46875 28.71875,7.03125 C28.375,7.625 28.1875,8.53125 28.1875,9.8125 L28.1875,9.8125 L28.1875,16 L25.4375,16 L25.4375,9.375 C25.4375,7.21875 24.8125,6.15625 23.59375,6.15625 C22.84375,6.15625 22.25,6.4375 21.90625,7.0625 C21.5625,7.625 21.375,8.5625 21.375,9.8125 L21.375,9.8125 L21.375,16 L18.5625,16 L18.5625,4.53125 C18.5625,4.34375 18.6875,4.21875 18.875,4.21875 L18.875,4.21875 L21.0625,4.21875 C21.25,4.21875 21.375,4.34375 21.375,4.53125 L21.375,4.53125 L21.375,5.09375 C21.90625,4.53125 22.34375,4.15625 22.75,3.96875 C23.15625,3.75 23.65625,3.65625 24.25,3.65625 C25.59375,3.65625 26.625,4.25 27.4375,5.4375 C28.3125,4.25 29.46875,3.65625 30.9375,3.65625 Z M71.46875,6.15625 C70.5625,6.15625 69.78125,6.5 69.15625,7.21875 C68.53125,7.90625 68.21875,8.8125 68.21875,9.84375 C68.21875,10.96875 68.53125,11.875 69.125,12.59375 C69.71875,13.3125 70.5,13.65625 71.4375,13.65625 C72.4375,13.65625 73.25,13.3125 73.875,12.625 C74.5,11.90625 74.8125,11 74.8125,9.90625 C74.8125,8.8125 74.5,7.90625 73.875,7.1875 C73.25,6.5 72.4375,6.15625 71.46875,6.15625 Z M91.9375,6.15625 C91.03125,6.15625 90.25,6.5 89.625,7.21875 C89,7.90625 88.6875,8.8125 88.6875,9.84375 C88.6875,10.96875 89,11.875 89.59375,12.59375 C90.1875,13.3125 90.96875,13.65625 91.90625,13.65625 C92.90625,13.65625 93.71875,13.3125 94.34375,12.625 C94.96875,11.90625 95.28125,11 95.28125,9.90625 C95.28125,8.8125 94.96875,7.90625 94.34375,7.1875 C93.71875,6.5 92.90625,6.15625 91.9375,6.15625 Z M42.65625,5.96875 C40.90625,5.96875 39.46875,7.125 38.96875,8.6875 L38.96875,8.6875 L46.34375,8.6875 C45.84375,7.125 44.40625,5.96875 42.65625,5.96875 Z M15.90625,3.65625 C16.0625,3.65625 16.21875,3.8125 16.21875,3.96875 L16.21875,3.96875 L16.21875,6.15625 C16.21875,6.34375 16.09375,6.46875 15.90625,6.46875 L15.90625,6.46875 L13.71875,6.46875 C13.53125,6.46875 13.40625,6.34375 13.40625,6.15625 L13.40625,6.15625 L13.40625,3.96875 C13.40625,3.78125 13.53125,3.65625 13.71875,3.65625 L13.71875,3.65625 Z" id="形状结合备份-2"></path>
            <path d="M113.127717,5.32907052e-14 L113.126878,2.231 L118.855978,2.23160535 L118.855978,4.20735786 L113.126878,4.207 L113.126878,7.945 L120.192099,7.94565217 L120.192099,9.92140468 L114.389976,9.92123686 C115.839993,11.7017879 118.006957,13.392403 120.070772,14.3750387 L120.433737,14.5409699 L120.675376,14.6546823 L119.268186,16.3745819 L119.268186,16.3603679 L119.126045,16.2892977 C117.008152,15.2232441 114.790761,13.361204 113.099289,11.243311 L113.126878,11.277 L113.127717,17 L111.166179,17 L111.166179,11.2859532 C109.600962,13.2257525 107.544696,14.964096 105.530646,16.0506706 L105.153637,16.2466555 L105.011497,16.3177258 L103.575878,14.6262542 L103.831731,14.5125418 C105.912509,13.6399573 108.094716,12.0320152 109.671874,10.2395293 L109.943771,9.92140468 L104.116012,9.92140468 L104.116012,7.94565217 L111.165878,7.945 L111.165878,4.207 L105.452132,4.20735786 L105.452132,2.23160535 L111.165878,2.231 L111.166179,5.32907052e-14 L113.127717,5.32907052e-14 Z M131.449624,7.74665552 L131.449624,9.87876254 C131.449624,10.3466416 131.411991,10.8391978 131.292127,11.3428073 L133.197952,11.3428094 L133.198162,14.3467829 C133.2009,14.5981967 133.239225,14.6481838 133.775779,14.6540421 L136.439394,14.6544825 C136.829202,14.6508516 136.956259,14.5828211 137.026129,13.3468404 L137.035744,13.1622074 L137.035744,12.9774247 L138.8125,12.9774247 L138.812074,13.5149431 C138.809515,13.5835117 138.795443,13.9468227 138.769858,14.3561873 C138.755644,14.5125418 138.727216,14.7115385 138.684574,14.882107 C138.401003,16.0028846 137.86087,16.4052843 136.722943,16.4427223 L136.538253,16.4456522 L133.695443,16.4456522 C131.78782,16.4456522 131.192013,15.9951294 131.153191,14.4416027 L131.151129,14.270903 L131.151861,11.8248231 C130.552882,13.5530005 128.844017,15.3587164 124.282275,16.7095291 L123.916179,16.8152174 L123.774038,16.8578595 L122.295778,15.2232441 L122.665343,15.1379599 C128.535744,13.6881271 129.331731,11.6555184 129.331731,9.86454849 L129.331731,7.74665552 L131.449624,7.74665552 Z M134.121865,5.61454849 C135.187918,5.61454849 136.069189,6.52424749 136.069189,7.64715719 L136.069189,12.735786 L134.278219,12.735786 L134.278219,7.64715719 C134.278219,7.51923077 134.192935,7.41973244 134.121865,7.41973244 L126.773202,7.41973244 L126.773202,12.735786 L124.982232,12.735786 L124.982232,5.61454849 L134.121865,5.61454849 Z M109.176212,4.73327759 L109.901129,7.41973244 L107.769022,7.41973244 L107.044105,4.73327759 L109.176212,4.73327759 Z M117.278219,4.73327759 L116.553303,7.41973244 L114.421196,7.41973244 L115.146112,4.73327759 L117.278219,4.73327759 Z M127.242266,3.01337793 L128.365176,5.17391304 L126.048286,5.17391304 L124.925376,3.01337793 L127.242266,3.01337793 Z M131.50648,3.01337793 L132.62939,5.17391304 L130.3125,5.17391304 L129.18959,3.01337793 L131.50648,3.01337793 Z M136.893604,3.01337793 L135.770694,5.17391304 L133.453804,5.17391304 L134.576714,3.01337793 L136.893604,3.01337793 Z M137.40445,0.131236215 L137.498697,1.91969876 L123.54585,2.65497703 L123.451603,0.866514487 L137.40445,0.131236215 Z" id="形状结合备份-3"></path>
        </g>
    </g>
</svg>