<?xml version="1.0" encoding="UTF-8"?>
<svg width="111px" height="18px" viewBox="0 0 111 18" version="1.1" xmlns="http://www.w3.org/2000/svg" xmlns:xlink="http://www.w3.org/1999/xlink">
    <g id="限制" stroke="none" stroke-width="1" fill="none" fill-rule="evenodd">
        <g id="我的" transform="translate(-746.000000, -392.000000)" fill="#FFFFFF">
            <g id="弹窗" transform="translate(0.000000, 150.000000)">
                <g transform="translate(721.000000, 221.000000)" id="编组">
                    <g transform="translate(24.000000, 21.000000)" id="其他/logo">
                        <path d="M81.1054688,3.375 C82.6171875,3.375 83.9882812,4.0078125 85.21875,5.2734375 L85.21875,5.2734375 L85.21875,4.078125 C85.21875,3.8671875 85.3945313,3.7265625 85.5703125,3.7265625 L85.5703125,3.7265625 L87.9257813,3.7265625 C88.1015625,3.7265625 88.2421875,3.90234375 88.2773438,4.078125 L88.2773438,4.078125 L88.2773438,16.875 L85.21875,16.875 L85.21875,15.5039062 C83.953125,16.6640625 82.6171875,17.2617187 81.1757813,17.2617187 C79.3476563,17.2617187 77.8710938,16.59375 76.6757812,15.2929687 C75.515625,13.9570312 74.9179688,12.2695312 74.9179688,10.265625 C74.9179688,8.296875 75.515625,6.64453125 76.6757812,5.34375 C77.8710938,4.04296875 79.3476563,3.375 81.1054688,3.375 Z M104.097656,3.375 C105.609375,3.375 106.980469,4.0078125 108.210938,5.2734375 L108.210938,5.2734375 L108.210938,4.078125 C108.210938,3.8671875 108.386719,3.7265625 108.5625,3.7265625 L108.5625,3.7265625 L110.917969,3.7265625 C111.128906,3.7265625 111.269531,3.90234375 111.269531,4.078125 L111.269531,4.078125 L111.269531,16.875 L108.210938,16.875 L108.210938,15.5039062 C106.945312,16.6640625 105.609375,17.2617187 104.167969,17.2617187 C102.339844,17.2617187 100.863281,16.59375 99.6679688,15.2929687 C98.5078125,13.9570312 97.9101562,12.2695312 97.9101562,10.265625 C97.9101562,8.296875 98.5078125,6.64453125 99.6679688,5.34375 C100.863281,4.04296875 102.339844,3.375 104.097656,3.375 Z M64.265625,0.31640625 C69.7851562,0.31640625 74.3203125,5.34375 73.0546875,10.7226562 C72.1757812,14.484375 68.9765625,17.15625 65.1796875,17.1914062 L65.1796875,17.1914062 L65.1796875,14.0273437 C67.921875,13.9570312 70.1367187,11.7070312 70.1367187,8.9296875 C70.1367187,5.80078125 67.8867187,3.3046875 65.0742187,3.3046875 L65.0742187,3.3046875 L63.28125,3.3046875 L63.28125,17.1914062 L60.1171875,17.1914062 L60.1171875,0.66796875 C60.1171875,0.45703125 60.2578125,0.31640625 60.46875,0.31640625 L60.46875,0.31640625 Z M8.47265625,0.31640625 C11.5664062,0.31640625 14.0625,2.70703125 14.0625,5.66015625 C14.0625,8.19140625 12.234375,10.3007812 9.80859375,10.8632812 L9.80859375,10.8632812 L14.0625,17.1914062 L10.3007812,17.1914062 L6.15234375,11.0390625 L4.39453125,11.0390625 L4.39453125,17.15625 L1.23046875,17.15625 L1.23046875,8.3671875 C1.23046875,8.15625 1.37109375,8.015625 1.58203125,8.015625 L1.58203125,8.015625 L8.47265625,8.015625 C9.9140625,8.015625 11.0742188,6.9609375 11.0742188,5.66015625 C11.0742188,4.359375 9.9140625,3.3046875 8.47265625,3.3046875 L8.47265625,3.3046875 L1.58203125,3.3046875 C1.37109375,3.3046875 1.23046875,3.1640625 1.23046875,2.953125 L1.23046875,2.953125 L1.23046875,0.66796875 C1.23046875,0.45703125 1.37109375,0.31640625 1.58203125,0.31640625 L1.58203125,0.31640625 Z M19.125,8.05078125 C19.3007812,8.05078125 19.4765625,8.2265625 19.4765625,8.40234375 L19.4765625,8.40234375 L19.4765625,17.1914062 L16.3125,17.1914062 L16.3125,8.40234375 C16.3125,8.19140625 16.453125,8.05078125 16.6640625,8.05078125 L16.6640625,8.05078125 Z M94.5,0.31640625 C94.7109375,0.31640625 94.8515625,0.45703125 94.8515625,0.66796875 L94.8515625,0.66796875 L94.8515625,4.53515625 L96.3632812,4.53515625 C96.5742188,4.53515625 96.7148438,4.67578125 96.75,4.88671875 L96.75,4.88671875 L96.75,7.34765625 C96.75,7.55859375 96.609375,7.69921875 96.3984375,7.69921875 L96.3984375,7.69921875 L94.8867188,7.69921875 L94.8867188,17.1914062 L91.7226562,17.1914062 L91.7226562,7.69921875 L90.703125,7.69921875 C90.4921875,7.69921875 90.3515625,7.55859375 90.3515625,7.34765625 L90.3515625,7.34765625 L90.3515625,4.88671875 C90.3515625,4.67578125 90.4921875,4.53515625 90.703125,4.53515625 L90.703125,4.53515625 L91.6875,4.53515625 L91.6875,0.66796875 C91.6875,0.45703125 91.828125,0.31640625 92.0390625,0.31640625 L92.0390625,0.31640625 Z M49.21875,3.3046875 C53.0507812,3.3046875 56.1796875,6.43359375 56.1796875,10.265625 C56.1796875,10.7226562 56.109375,11.1445312 56.0390625,11.5664062 L56.0390625,11.5664062 L45.0703125,11.5664062 C45.6328125,13.3242187 47.25,14.625 49.21875,14.625 C50.5195312,14.625 51.6445312,14.0273437 52.4179687,13.1132812 L52.4179687,13.1132812 L55.5117187,13.1132812 C54.421875,15.5039062 52.03125,17.1914062 49.21875,17.1914062 C45.3867188,17.1914062 42.2929688,14.0273437 42.2929688,10.2304687 C42.2929688,6.43359375 45.3867188,3.3046875 49.21875,3.3046875 Z M36.0351562,3.3046875 C39.0234375,3.3046875 40.5351562,5.1328125 40.5351562,8.82421875 L40.5351562,8.82421875 L40.5351562,17.15625 L37.4414062,17.15625 L37.4414062,9.66796875 C37.4414062,8.3671875 37.3007812,7.453125 36.984375,6.92578125 C36.6679687,6.3984375 36.140625,6.1171875 35.4023438,6.1171875 C34.5585938,6.1171875 33.9257812,6.46875 33.5390625,7.1015625 C33.1523438,7.76953125 32.9414062,8.7890625 32.9414062,10.2304687 L32.9414062,10.2304687 L32.9414062,17.1914062 L29.8476562,17.1914062 L29.8476562,9.73828125 C29.8476562,7.3125 29.1445312,6.1171875 27.7734375,6.1171875 C26.9296875,6.1171875 26.2617187,6.43359375 25.875,7.13671875 C25.4882812,7.76953125 25.2773438,8.82421875 25.2773438,10.2304687 L25.2773438,10.2304687 L25.2773438,17.1914062 L22.1132812,17.1914062 L22.1132812,4.2890625 C22.1132812,4.078125 22.2539062,3.9375 22.4648438,3.9375 L22.4648438,3.9375 L24.9257812,3.9375 C25.1367187,3.9375 25.2773438,4.078125 25.2773438,4.2890625 L25.2773438,4.2890625 L25.2773438,4.921875 C25.875,4.2890625 26.3671875,3.8671875 26.8242187,3.65625 C27.28125,3.41015625 27.84375,3.3046875 28.5117187,3.3046875 C30.0234375,3.3046875 31.1835937,3.97265625 32.0976562,5.30859375 C33.0820312,3.97265625 34.3828125,3.3046875 36.0351562,3.3046875 Z M81.6328125,6.1171875 C80.6132813,6.1171875 79.734375,6.50390625 79.03125,7.3125 C78.328125,8.0859375 77.9765625,9.10546875 77.9765625,10.265625 C77.9765625,11.53125 78.328125,12.5507812 78.9960938,13.359375 C79.6640625,14.1679687 80.5429688,14.5546875 81.5976562,14.5546875 C82.7226562,14.5546875 83.6367188,14.1679687 84.3398438,13.3945312 C85.0429688,12.5859375 85.3945313,11.5664062 85.3945313,10.3359375 C85.3945313,9.10546875 85.0429688,8.0859375 84.3398438,7.27734375 C83.6367188,6.50390625 82.7226562,6.1171875 81.6328125,6.1171875 Z M104.660156,6.1171875 C103.640625,6.1171875 102.761719,6.50390625 102.058594,7.3125 C101.355469,8.0859375 101.003906,9.10546875 101.003906,10.265625 C101.003906,11.53125 101.355469,12.5507812 102.023438,13.359375 C102.691406,14.1679687 103.570312,14.5546875 104.625,14.5546875 C105.75,14.5546875 106.664062,14.1679687 107.367188,13.3945312 C108.070312,12.5859375 108.421875,11.5664062 108.421875,10.3359375 C108.421875,9.10546875 108.070312,8.0859375 107.367188,7.27734375 C106.664062,6.50390625 105.75,6.1171875 104.660156,6.1171875 Z M49.21875,5.90625 C47.25,5.90625 45.6328125,7.20703125 45.0703125,8.96484375 L45.0703125,8.96484375 L53.3671875,8.96484375 C52.8046875,7.20703125 51.1875,5.90625 49.21875,5.90625 Z M19.125,3.3046875 C19.3007812,3.3046875 19.4765625,3.48046875 19.4765625,3.65625 L19.4765625,3.65625 L19.4765625,6.1171875 C19.4765625,6.328125 19.3359375,6.46875 19.125,6.46875 L19.125,6.46875 L16.6640625,6.46875 C16.453125,6.46875 16.3125,6.328125 16.3125,6.1171875 L16.3125,6.1171875 L16.3125,3.65625 C16.3125,3.4453125 16.453125,3.3046875 16.6640625,3.3046875 L16.6640625,3.3046875 Z" id="形状结合"></path>
                    </g>
                </g>
            </g>
        </g>
    </g>
</svg>