<?xml version="1.0" encoding="UTF-8"?>
<svg width="299px" height="168px" viewBox="0 0 299 168" version="1.1" xmlns="http://www.w3.org/2000/svg" xmlns:xlink="http://www.w3.org/1999/xlink">
    <title>编组 5</title>
    <defs>
        <path d="M0,4.0042839 C0,1.79277897 1.79369141,0 4.00065742,0 L294.999343,0 C297.208845,0 299,1.79042763 299,4.0042839 L299,162.995716 C299,165.207221 297.206309,167 294.999343,167 L4.00065742,167 C1.79115534,167 0,165.209572 0,162.995716 L0,4.0042839 Z" id="path-1"></path>
        <mask id="mask-2" maskContentUnits="userSpaceOnUse" maskUnits="objectBoundingBox" x="0" y="0" width="299" height="167" fill="white">
            <use xlink:href="#path-1"></use>
        </mask>
    </defs>
    <g id="详情页（new）" stroke="none" stroke-width="1" fill="none" fill-rule="evenodd">
        <g id="身份认证" transform="translate(-720.000000, -770.000000)">
            <g id="编组-2" transform="translate(688.000000, 180.000000)">
                <g id="编组-5" transform="translate(32.000000, 590.000000)">
                    <use id="Rectangle-72" stroke-opacity="0.0435423951" stroke="#000000" mask="url(#mask-2)" stroke-width="2" fill-opacity="0.02" fill="#000000" stroke-dasharray="4" xlink:href="#path-1"></use>
                    <text id="↳-Description" font-family="NotoSansSC-Regular, Noto Sans SC Regular" font-size="12" font-weight="normal" line-spacing="16" letter-spacing="0.15" fill="#989898">
                        <tspan x="67" y="135">支持扩展名：png . pdf . jpg ...</tspan>
                    </text>
                    <text id="Title" font-family="NotoSansSC-Regular, Noto Sans SC Regular" font-size="12" font-weight="normal" line-spacing="16" letter-spacing="0.15" fill="#666666">
                        <tspan x="55" y="108">点击 或将 名片照片 拖拽到这里上传</tspan>
                    </text>
                    <path d="M169.977511,37 C170.242595,37 170.496822,37.1053568 170.684265,37.2928932 C170.871707,37.4804296 170.977011,37.7347835 170.977011,38 L170.977011,68 C170.977011,68.5522848 170.52952,69 169.977511,69 L125.9995,69 C125.447491,69 125,68.5522848 125,68 L125,38 C125,37.7347835 125.105304,37.4804296 125.292747,37.2928932 C125.480189,37.1053568 125.734416,37 125.9995,37 L169.977511,37 Z M168.978011,39 L126.999,39 L126.999,67 L168.978011,67 L168.978011,39 Z M173.997594,33 C174.551208,33 175,33.4477152 175,34 L175,64 C175,64.5522848 174.551208,65 173.997594,65 C173.443981,65 172.995188,64.5522848 172.995188,64 L172.995188,35 L160.233153,35.0009491 C160.181287,35.0092783 160.128092,35.0136054 160.073892,35.0136054 L130.024631,35.0136054 C129.471439,35.0136054 129.022989,34.5628445 129.022989,34.0068027 C129.022989,33.4507609 129.471439,33 130.024631,33 L173.997594,33 Z M139.367816,54.0714286 C142.244971,54.0714286 147.988506,55.4964286 147.988506,58.3571429 L147.988506,61.5714286 L130.747126,61.5714286 L130.747126,58.3571429 C130.747126,55.4964286 136.490661,54.0714286 139.367816,54.0714286 Z M139.367816,56.1071429 C136.167385,56.1071429 132.79454,57.6714286 132.79454,58.3571429 L132.79454,59.5357143 L145.941092,59.5357143 L145.941092,58.3571429 C145.941092,57.6714286 142.568247,56.1071429 139.367816,56.1071429 Z M157.068965,52.1292517 C157.622157,52.1292517 158.070608,52.5800126 158.070608,53.1360544 C158.070608,53.6920962 157.622157,54.1428571 157.068965,54.1428571 L153.062397,54.1428571 C152.509206,54.1428571 152.060755,53.6920962 152.060755,53.1360544 C152.060755,52.5800126 152.509206,52.1292517 153.062397,52.1292517 L157.068965,52.1292517 Z M139.367816,44.4285714 C141.749282,44.4285714 143.678161,46.3464286 143.678161,48.7142857 C143.678161,51.0821429 141.749282,53 139.367816,53 C136.986351,53 135.057471,51.0821429 135.057471,48.7142857 C135.057471,46.3464286 136.986351,44.4285714 139.367816,44.4285714 Z M139.367816,46.5714286 C138.182471,46.5714286 137.212644,47.5357143 137.212644,48.7142857 C137.212644,49.8928571 138.182471,50.8571429 139.367816,50.8571429 C140.553161,50.8571429 141.522989,49.8928571 141.522989,48.7142857 C141.522989,47.5357143 140.553161,46.5714286 139.367816,46.5714286 Z M163.078818,48.1020408 C163.632009,48.1020408 164.08046,48.5528017 164.08046,49.1088435 C164.08046,49.6648853 163.632009,50.1156463 163.078818,50.1156463 L153.062397,50.1156463 C152.509206,50.1156463 152.060755,49.6648853 152.060755,49.1088435 C152.060755,48.5528017 152.509206,48.1020408 153.062397,48.1020408 L163.078818,48.1020408 Z" id="形状结合" fill="#CCCCCC"></path>
                    <path d="M13.9182692,0 C14.5156926,0 15,0.662114102 15,1.47887324 C15,2.29563238 14.5156926,2.95774648 13.9182692,2.95774648 L2.16346154,2.95774648 L2.16346154,19.5211268 C2.16346154,20.3378859 1.67915418,21 1.08173077,21 C0.484307362,21 0,20.3378859 0,19.5211268 L0,1.97183099 C0,1.88766765 0,1.56269583 0,1.47887324 C0,0.662114102 0.484307362,0 1.08173077,0 L13.9182692,0 Z" id="路径" fill="#668C9D"></path>
                    <path d="M300.485577,4 C301.32197,4 302,4.47293864 302,5.05633803 C302,5.63973741 301.32197,6.11267606 300.485577,6.11267606 L284.028846,6.11267606 L284.028846,17.943662 C284.028846,18.5270614 283.350816,19 282.514423,19 C281.67803,19 281,18.5270614 281,17.943662 L281,5.4084507 C281,5.34833404 281,5.11621131 281,5.05633803 C281,4.47293864 281.67803,4 282.514423,4 L300.485577,4 Z" id="路径" fill="#668C9D" transform="translate(291.500000, 11.500000) rotate(-270.000000) translate(-291.500000, -11.500000) "></path>
                    <path d="M297.918269,146 C298.515693,146 299,146.662114 299,147.478873 C299,148.295632 298.515693,148.957746 297.918269,148.957746 L286.163462,148.957746 L286.163462,165.521127 C286.163462,166.337886 285.679154,167 285.081731,167 C284.484307,167 284,166.337886 284,165.521127 L284,147.971831 C284,147.887668 284,147.562696 284,147.478873 C284,146.662114 284.484307,146 285.081731,146 L297.918269,146 Z" id="路径" fill="#668C9D" transform="translate(291.500000, 156.500000) rotate(-180.000000) translate(-291.500000, -156.500000) "></path>
                    <path d="M17.4855769,150 C18.3219697,150 19,150.472939 19,151.056338 C19,151.639737 18.3219697,152.112676 17.4855769,152.112676 L1.02884615,152.112676 L1.02884615,163.943662 C1.02884615,164.527061 0.350815847,165 -0.485576923,165 C-1.32196969,165 -2,164.527061 -2,163.943662 L-2,151.408451 C-2,151.348334 -2,151.116211 -2,151.056338 C-2,150.472939 -1.32196969,150 -0.485576923,150 L17.4855769,150 Z" id="路径" fill="#668C9D" transform="translate(8.500000, 157.500000) rotate(-450.000000) translate(-8.500000, -157.500000) "></path>
                </g>
            </g>
        </g>
    </g>
</svg>