<?xml version="1.0" encoding="UTF-8"?>
<svg width="128px" height="20px" viewBox="0 0 128 20" version="1.1" xmlns="http://www.w3.org/2000/svg" xmlns:xlink="http://www.w3.org/1999/xlink">
    <!-- Generator: Sketch 63.1 (92452) - https://sketch.com -->
    <title></title>
    <desc>Created with Sketch.</desc>
    <g id="登录注册" stroke="none" stroke-width="1" fill="none" fill-rule="evenodd">
        <g id="登录/注册" transform="translate(-625.000000, -268.000000)" fill="#668C9D">
            <g id="编组-23" transform="translate(66.000000, 193.000000)">
                <g id="编组-20" transform="translate(558.000000, 75.000000)">
                    <g id="logo" transform="translate(0.000000, 0.000000)">
                        <path d="M93.721875,3.9 C95.46875,3.9 97.053125,4.63125 98.475,6.09375 L98.475,6.09375 L98.475,4.7125 C98.475,4.46875 98.678125,4.30625 98.88125,4.30625 L98.88125,4.30625 L101.603125,4.30625 C101.80625,4.30625 101.96875,4.509375 102.009375,4.7125 L102.009375,4.7125 L102.009375,19.5 L98.475,19.5 L98.475,17.915625 C97.0125,19.25625 95.46875,19.946875 93.803125,19.946875 C91.690625,19.946875 89.984375,19.175 88.603125,17.671875 C87.2625,16.128125 86.571875,14.178125 86.571875,11.8625 C86.571875,9.5875 87.2625,7.678125 88.603125,6.175 C89.984375,4.671875 91.690625,3.9 93.721875,3.9 Z M120.290625,3.9 C122.0375,3.9 123.621875,4.63125 125.04375,6.09375 L125.04375,6.09375 L125.04375,4.7125 C125.04375,4.46875 125.246875,4.30625 125.45,4.30625 L125.45,4.30625 L128.171875,4.30625 C128.415625,4.30625 128.578125,4.509375 128.578125,4.7125 L128.578125,4.7125 L128.578125,19.5 L125.04375,19.5 L125.04375,17.915625 C123.58125,19.25625 122.0375,19.946875 120.371875,19.946875 C118.259375,19.946875 116.553125,19.175 115.171875,17.671875 C113.83125,16.128125 113.140625,14.178125 113.140625,11.8625 C113.140625,9.5875 113.83125,7.678125 115.171875,6.175 C116.553125,4.671875 118.259375,3.9 120.290625,3.9 Z M74.2625,0.365625 C80.640625,0.365625 85.88125,6.175 84.41875,12.390625 C83.403125,16.7375 79.70625,19.825 75.31875,19.865625 L75.31875,19.865625 L75.31875,16.209375 C78.4875,16.128125 81.046875,13.528125 81.046875,10.31875 C81.046875,6.703125 78.446875,3.81875 75.196875,3.81875 L75.196875,3.81875 L73.125,3.81875 L73.125,19.865625 L69.46875,19.865625 L69.46875,0.771875 C69.46875,0.528125 69.63125,0.365625 69.875,0.365625 L69.875,0.365625 Z M9.790625,0.365625 C13.365625,0.365625 16.25,3.128125 16.25,6.540625 C16.25,9.465625 14.1375,11.903125 11.334375,12.553125 L11.334375,12.553125 L16.25,19.865625 L11.903125,19.865625 L7.109375,12.75625 L5.078125,12.75625 L5.078125,19.825 L1.421875,19.825 L1.421875,9.66875 C1.421875,9.425 1.584375,9.2625 1.828125,9.2625 L1.828125,9.2625 L9.790625,9.2625 C11.45625,9.2625 12.796875,8.04375 12.796875,6.540625 C12.796875,5.0375 11.45625,3.81875 9.790625,3.81875 L9.790625,3.81875 L1.828125,3.81875 C1.584375,3.81875 1.421875,3.65625 1.421875,3.4125 L1.421875,3.4125 L1.421875,0.771875 C1.421875,0.528125 1.584375,0.365625 1.828125,0.365625 L1.828125,0.365625 Z M22.1,9.303125 C22.303125,9.303125 22.50625,9.50625 22.50625,9.709375 L22.50625,9.709375 L22.50625,19.865625 L18.85,19.865625 L18.85,9.709375 C18.85,9.465625 19.0125,9.303125 19.25625,9.303125 L19.25625,9.303125 Z M41.640625,3.81875 C45.09375,3.81875 46.840625,5.93125 46.840625,10.196875 L46.840625,10.196875 L46.840625,19.825 L43.265625,19.825 L43.265625,11.171875 C43.265625,9.66875 43.103125,8.6125 42.7375,8.003125 C42.371875,7.39375 41.7625,7.06875 40.909375,7.06875 C39.934375,7.06875 39.203125,7.475 38.75625,8.20625 C38.309375,8.978125 38.065625,10.15625 38.065625,11.821875 L38.065625,11.821875 L38.065625,19.865625 L34.490625,19.865625 L34.490625,11.253125 C34.490625,8.45 33.678125,7.06875 32.09375,7.06875 C31.11875,7.06875 30.346875,7.434375 29.9,8.246875 C29.453125,8.978125 29.209375,10.196875 29.209375,11.821875 L29.209375,11.821875 L29.209375,19.865625 L25.553125,19.865625 L25.553125,4.95625 C25.553125,4.7125 25.715625,4.55 25.959375,4.55 L25.959375,4.55 L28.803125,4.55 C29.046875,4.55 29.209375,4.7125 29.209375,4.95625 L29.209375,4.95625 L29.209375,5.6875 C29.9,4.95625 30.46875,4.46875 30.996875,4.225 C31.525,3.940625 32.175,3.81875 32.946875,3.81875 C34.69375,3.81875 36.034375,4.590625 37.090625,6.134375 C38.228125,4.590625 39.73125,3.81875 41.640625,3.81875 Z M109.2,0.365625 C109.44375,0.365625 109.60625,0.528125 109.60625,0.771875 L109.60625,0.771875 L109.60625,5.240625 L111.353125,5.240625 C111.596875,5.240625 111.759375,5.403125 111.8,5.646875 L111.8,5.646875 L111.8,8.490625 C111.8,8.734375 111.6375,8.896875 111.39375,8.896875 L111.39375,8.896875 L109.646875,8.896875 L109.646875,19.865625 L105.990625,19.865625 L105.990625,8.896875 L104.8125,8.896875 C104.56875,8.896875 104.40625,8.734375 104.40625,8.490625 L104.40625,8.490625 L104.40625,5.646875 C104.40625,5.403125 104.56875,5.240625 104.8125,5.240625 L104.8125,5.240625 L105.95,5.240625 L105.95,0.771875 C105.95,0.528125 106.1125,0.365625 106.35625,0.365625 L106.35625,0.365625 Z M56.875,3.81875 C61.303125,3.81875 64.91875,7.434375 64.91875,11.8625 C64.91875,12.390625 64.8375,12.878125 64.75625,13.365625 L64.75625,13.365625 L52.08125,13.365625 C52.73125,15.396875 54.6,16.9 56.875,16.9 C58.378125,16.9 59.678125,16.209375 60.571875,15.153125 L60.571875,15.153125 L64.146875,15.153125 C62.8875,17.915625 60.125,19.865625 56.875,19.865625 C52.446875,19.865625 48.871875,16.209375 48.871875,11.821875 C48.871875,7.434375 52.446875,3.81875 56.875,3.81875 Z M94.33125,7.06875 C93.153125,7.06875 92.1375,7.515625 91.325,8.45 C90.5125,9.34375 90.10625,10.521875 90.10625,11.8625 C90.10625,13.325 90.5125,14.503125 91.284375,15.4375 C92.05625,16.371875 93.071875,16.81875 94.290625,16.81875 C95.590625,16.81875 96.646875,16.371875 97.459375,15.478125 C98.271875,14.54375 98.678125,13.365625 98.678125,11.94375 C98.678125,10.521875 98.271875,9.34375 97.459375,8.409375 C96.646875,7.515625 95.590625,7.06875 94.33125,7.06875 Z M120.940625,7.06875 C119.7625,7.06875 118.746875,7.515625 117.934375,8.45 C117.121875,9.34375 116.715625,10.521875 116.715625,11.8625 C116.715625,13.325 117.121875,14.503125 117.89375,15.4375 C118.665625,16.371875 119.68125,16.81875 120.9,16.81875 C122.2,16.81875 123.25625,16.371875 124.06875,15.478125 C124.88125,14.54375 125.2875,13.365625 125.2875,11.94375 C125.2875,10.521875 124.88125,9.34375 124.06875,8.409375 C123.25625,7.515625 122.2,7.06875 120.940625,7.06875 Z M56.875,6.825 C54.6,6.825 52.73125,8.328125 52.08125,10.359375 L52.08125,10.359375 L61.66875,10.359375 C61.01875,8.328125 59.15,6.825 56.875,6.825 Z M22.1,3.81875 C22.303125,3.81875 22.50625,4.021875 22.50625,4.225 L22.50625,4.225 L22.50625,7.06875 C22.50625,7.3125 22.34375,7.475 22.1,7.475 L22.1,7.475 L19.25625,7.475 C19.0125,7.475 18.85,7.3125 18.85,7.06875 L18.85,7.06875 L18.85,4.225 C18.85,3.98125 19.0125,3.81875 19.25625,3.81875 L19.25625,3.81875 Z" id="形状结合"></path>
                    </g>
                </g>
            </g>
        </g>
    </g>
</svg>