<?xml version="1.0" encoding="UTF-8"?>
<svg width="136px" height="18px" viewBox="0 0 136 18" version="1.1" xmlns="http://www.w3.org/2000/svg" xmlns:xlink="http://www.w3.org/1999/xlink">
    <title>LOGO</title>
    <g id="看板" stroke="none" stroke-width="1" fill="none" fill-rule="evenodd">
        <g transform="translate(-24.000000, -116.000000)" fill="#FFFFFF" id="appbar">
            <g transform="translate(0.000000, 101.000000)">
                <g id="LOGO" transform="translate(24.000000, 15.000000)">
                    <g id="logo" transform="translate(0.000000, 0.000000)">
                        <path d="M79.303125,3.3 C80.78125,3.3 82.121875,3.91875 83.325,5.15625 L83.325,5.15625 L83.325,3.9875 C83.325,3.78125 83.496875,3.64375 83.66875,3.64375 L83.66875,3.64375 L85.971875,3.64375 C86.14375,3.64375 86.28125,3.815625 86.315625,3.9875 L86.315625,3.9875 L86.315625,16.5 L83.325,16.5 L83.325,15.159375 C82.0875,16.29375 80.78125,16.878125 79.371875,16.878125 C77.584375,16.878125 76.140625,16.225 74.971875,14.953125 C73.8375,13.646875 73.253125,11.996875 73.253125,10.0375 C73.253125,8.1125 73.8375,6.496875 74.971875,5.225 C76.140625,3.953125 77.584375,3.3 79.303125,3.3 Z M101.784375,3.3 C103.2625,3.3 104.603125,3.91875 105.80625,5.15625 L105.80625,5.15625 L105.80625,3.9875 C105.80625,3.78125 105.978125,3.64375 106.15,3.64375 L106.15,3.64375 L108.453125,3.64375 C108.659375,3.64375 108.796875,3.815625 108.796875,3.9875 L108.796875,3.9875 L108.796875,16.5 L105.80625,16.5 L105.80625,15.159375 C104.56875,16.29375 103.2625,16.878125 101.853125,16.878125 C100.065625,16.878125 98.621875,16.225 97.453125,14.953125 C96.31875,13.646875 95.734375,11.996875 95.734375,10.0375 C95.734375,8.1125 96.31875,6.496875 97.453125,5.225 C98.621875,3.953125 100.065625,3.3 101.784375,3.3 Z M62.8375,0.309375 C68.234375,0.309375 72.66875,5.225 71.43125,10.484375 C70.571875,14.1625 67.44375,16.775 63.73125,16.809375 L63.73125,16.809375 L63.73125,13.715625 C66.4125,13.646875 68.578125,11.446875 68.578125,8.73125 C68.578125,5.671875 66.378125,3.23125 63.628125,3.23125 L63.628125,3.23125 L61.875,3.23125 L61.875,16.809375 L58.78125,16.809375 L58.78125,0.653125 C58.78125,0.446875 58.91875,0.309375 59.125,0.309375 L59.125,0.309375 Z M8.284375,0.309375 C11.309375,0.309375 13.75,2.646875 13.75,5.534375 C13.75,8.009375 11.9625,10.071875 9.590625,10.621875 L9.590625,10.621875 L13.75,16.809375 L10.071875,16.809375 L6.015625,10.79375 L4.296875,10.79375 L4.296875,16.775 L1.203125,16.775 L1.203125,8.18125 C1.203125,7.975 1.340625,7.8375 1.546875,7.8375 L1.546875,7.8375 L8.284375,7.8375 C9.69375,7.8375 10.828125,6.80625 10.828125,5.534375 C10.828125,4.2625 9.69375,3.23125 8.284375,3.23125 L8.284375,3.23125 L1.546875,3.23125 C1.340625,3.23125 1.203125,3.09375 1.203125,2.8875 L1.203125,2.8875 L1.203125,0.653125 C1.203125,0.446875 1.340625,0.309375 1.546875,0.309375 L1.546875,0.309375 Z M18.7,7.871875 C18.871875,7.871875 19.04375,8.04375 19.04375,8.215625 L19.04375,8.215625 L19.04375,16.809375 L15.95,16.809375 L15.95,8.215625 C15.95,8.009375 16.0875,7.871875 16.29375,7.871875 L16.29375,7.871875 Z M35.234375,3.23125 C38.15625,3.23125 39.634375,5.01875 39.634375,8.628125 L39.634375,8.628125 L39.634375,16.775 L36.609375,16.775 L36.609375,9.453125 C36.609375,8.18125 36.471875,7.2875 36.1625,6.771875 C35.853125,6.25625 35.3375,5.98125 34.615625,5.98125 C33.790625,5.98125 33.171875,6.325 32.79375,6.94375 C32.415625,7.596875 32.209375,8.59375 32.209375,10.003125 L32.209375,10.003125 L32.209375,16.809375 L29.184375,16.809375 L29.184375,9.521875 C29.184375,7.15 28.496875,5.98125 27.15625,5.98125 C26.33125,5.98125 25.678125,6.290625 25.3,6.978125 C24.921875,7.596875 24.715625,8.628125 24.715625,10.003125 L24.715625,10.003125 L24.715625,16.809375 L21.621875,16.809375 L21.621875,4.19375 C21.621875,3.9875 21.759375,3.85 21.965625,3.85 L21.965625,3.85 L24.371875,3.85 C24.578125,3.85 24.715625,3.9875 24.715625,4.19375 L24.715625,4.19375 L24.715625,4.8125 C25.3,4.19375 25.78125,3.78125 26.228125,3.575 C26.675,3.334375 27.225,3.23125 27.878125,3.23125 C29.35625,3.23125 30.490625,3.884375 31.384375,5.190625 C32.346875,3.884375 33.61875,3.23125 35.234375,3.23125 Z M92.4,0.309375 C92.60625,0.309375 92.74375,0.446875 92.74375,0.653125 L92.74375,0.653125 L92.74375,4.434375 L94.221875,4.434375 C94.428125,4.434375 94.565625,4.571875 94.6,4.778125 L94.6,4.778125 L94.6,7.184375 C94.6,7.390625 94.4625,7.528125 94.25625,7.528125 L94.25625,7.528125 L92.778125,7.528125 L92.778125,16.809375 L89.684375,16.809375 L89.684375,7.528125 L88.6875,7.528125 C88.48125,7.528125 88.34375,7.390625 88.34375,7.184375 L88.34375,7.184375 L88.34375,4.778125 C88.34375,4.571875 88.48125,4.434375 88.6875,4.434375 L88.6875,4.434375 L89.65,4.434375 L89.65,0.653125 C89.65,0.446875 89.7875,0.309375 89.99375,0.309375 L89.99375,0.309375 Z M48.125,3.23125 C51.871875,3.23125 54.93125,6.290625 54.93125,10.0375 C54.93125,10.484375 54.8625,10.896875 54.79375,11.309375 L54.79375,11.309375 L44.06875,11.309375 C44.61875,13.028125 46.2,14.3 48.125,14.3 C49.396875,14.3 50.496875,13.715625 51.253125,12.821875 L51.253125,12.821875 L54.278125,12.821875 C53.2125,15.159375 50.875,16.809375 48.125,16.809375 C44.378125,16.809375 41.353125,13.715625 41.353125,10.003125 C41.353125,6.290625 44.378125,3.23125 48.125,3.23125 Z M79.81875,5.98125 C78.821875,5.98125 77.9625,6.359375 77.275,7.15 C76.5875,7.90625 76.24375,8.903125 76.24375,10.0375 C76.24375,11.275 76.5875,12.271875 77.240625,13.0625 C77.89375,13.853125 78.753125,14.23125 79.784375,14.23125 C80.884375,14.23125 81.778125,13.853125 82.465625,13.096875 C83.153125,12.30625 83.496875,11.309375 83.496875,10.10625 C83.496875,8.903125 83.153125,7.90625 82.465625,7.115625 C81.778125,6.359375 80.884375,5.98125 79.81875,5.98125 Z M102.334375,5.98125 C101.3375,5.98125 100.478125,6.359375 99.790625,7.15 C99.103125,7.90625 98.759375,8.903125 98.759375,10.0375 C98.759375,11.275 99.103125,12.271875 99.75625,13.0625 C100.409375,13.853125 101.26875,14.23125 102.3,14.23125 C103.4,14.23125 104.29375,13.853125 104.98125,13.096875 C105.66875,12.30625 106.0125,11.309375 106.0125,10.10625 C106.0125,8.903125 105.66875,7.90625 104.98125,7.115625 C104.29375,6.359375 103.4,5.98125 102.334375,5.98125 Z M48.125,5.775 C46.2,5.775 44.61875,7.046875 44.06875,8.765625 L44.06875,8.765625 L52.18125,8.765625 C51.63125,7.046875 50.05,5.775 48.125,5.775 Z M18.7,3.23125 C18.871875,3.23125 19.04375,3.403125 19.04375,3.575 L19.04375,3.575 L19.04375,5.98125 C19.04375,6.1875 18.90625,6.325 18.7,6.325 L18.7,6.325 L16.29375,6.325 C16.0875,6.325 15.95,6.1875 15.95,5.98125 L15.95,5.98125 L15.95,3.575 C15.95,3.36875 16.0875,3.23125 16.29375,3.23125 L16.29375,3.23125 Z" id="形状结合"></path>
                    </g>
                    <path d="M118.28,17 L120.52,9.56 L118.7,9.56 L117.86,12.95 C117.65,13.75 117.49,14.52 117.28,15.33 L117.23,15.33 C117.01,14.52 116.87,13.75 116.65,12.95 L115.8,9.56 L113.91,9.56 L116.14,17 L118.28,17 Z M125.981429,17 L125.981429,15.56 L124.641429,15.56 L124.641429,9.56 L123.331429,9.56 C122.811429,9.88 122.291429,10.08 121.491429,10.23 L121.491429,11.33 L122.861429,11.33 L122.861429,15.56 L121.281429,15.56 L121.281429,17 L125.981429,17 Z M128.422857,17.14 C129.032857,17.14 129.482857,16.65 129.482857,16.03 C129.482857,15.42 129.032857,14.93 128.422857,14.93 C127.802857,14.93 127.362857,15.42 127.362857,16.03 C127.362857,16.65 127.802857,17.14 128.422857,17.14 Z M133.284286,17.14 C134.854286,17.14 135.924286,15.8 135.924286,13.24 C135.924286,10.7 134.854286,9.42 133.284286,9.42 C131.714286,9.42 130.654286,10.68 130.654286,13.24 C130.654286,15.8 131.714286,17.14 133.284286,17.14 Z M133.284286,15.76 C132.754286,15.76 132.334286,15.28 132.334286,13.24 C132.334286,11.21 132.754286,10.79 133.284286,10.79 C133.814286,10.79 134.244286,11.21 134.244286,13.24 C134.244286,15.28 133.814286,15.76 133.284286,15.76 Z" id="V1.0" fill-rule="nonzero"></path>
                </g>
            </g>
        </g>
    </g>
</svg>