<?xml version="1.0" encoding="UTF-8"?>
<svg width="16px" height="16px" viewBox="0 0 16 16" version="1.1" xmlns="http://www.w3.org/2000/svg" xmlns:xlink="http://www.w3.org/1999/xlink">
    <title>切片</title>
    <g id="追踪" stroke="none" stroke-width="1" fill="none" fill-rule="evenodd">
        <g transform="translate(-349.000000, -349.000000)" fill="#000000" id="结果">
            <g transform="translate(55.000000, 317.000000)">
                <g id="列表/功能栏" transform="translate(1.000000, 16.000000)">
                    <g id="按钮/选择/未选中-+-icon" transform="translate(285.000000, 5.000000)">
                        <g id="icon/16x16/add" transform="translate(8.000000, 11.000000)">
                            <rect id="矩形" fill-rule="nonzero" opacity="0" x="0" y="0" width="16" height="16"></rect>
                            <path d="M12.5,1.25 L12.606066,1.29393398 L13.206066,1.89393398 L13.25,2 L13.25,14 L13.1787342,14.1276751 L12.3093519,14.663803 L12.1632648,14.6701562 L8.139,12.648 L3.81872477,14.6789069 L3.67451832,14.6697494 L2.81956591,14.126611 L2.75,14 L2.75,2 L2.79393398,1.89393398 L3.39393398,1.29393398 L3.5,1.25 L12.5,1.25 Z M11.749,2.749 L4.249,2.749 L4.249,12.82 L7.90009751,11.122708 L8.48975549,11.1456644 L11.749,12.782 L11.749,2.749 Z M7.165,6.151 L8,4.46106728 L8.834,6.151 L10.6999855,6.42272154 L9.349,7.738 L9.66868278,9.59674482 L8,8.719 L6.33131722,9.59674482 L6.65,7.738 L5.30001454,6.42272154 L7.165,6.151 Z" id="形状结合" opacity="0.603562128"></path>
                        </g>
                    </g>
                </g>
            </g>
        </g>
    </g>
</svg>