<?xml version="1.0" encoding="UTF-8"?>
<svg width="16px" height="16px" viewBox="0 0 16 16" version="1.1" xmlns="http://www.w3.org/2000/svg" xmlns:xlink="http://www.w3.org/1999/xlink">
    <!-- Generator: Sketch 64 (93537) - https://sketch.com -->
    <title>icon/16x16/大小/放大</title>
    <desc>Created with Sketch.</desc>
    <g id="icon/16x16/大小/放大" stroke="none" stroke-width="1" fill="none" fill-rule="evenodd" opacity="0.603562128">
        <path d="M12.6666563,2 C13.356921,2 13.9289573,2.53143253 13.9938672,3.20539955 L14,3.33334375 L14,12.6666563 C14,13.356921 13.4685675,13.9289573 12.7946004,13.9938672 L12.6666562,14 L3.33334375,14 C2.64307904,14 2.07104271,13.4685675 2.00613278,12.7946004 L2,12.6666562 L2,3.33334375 C2,2.64307904 2.53143253,2.07104271 3.20539955,2.00613278 L3.33334375,2 L12.6666563,2 Z M12.6666563,3 L3.33334375,3 C3.15222225,3 3,3.15222225 3,3.33334375 L3,12.6666562 C3,12.8477778 3.15222225,13 3.33334375,13 L12.6666562,13 C12.8477778,13 13,12.8477778 13,12.6666563 L13,3.33334375 C13,3.15222225 12.8477778,3 12.6666563,3 Z M8.66666667,4.66666667 L8.66666667,7.33333333 L11.3333333,7.33333333 L11.3333333,8.66666667 L8.66666667,8.66666667 L8.66666667,11.3333333 L7.33333333,11.3333333 L7.33333333,8.66666667 L4.66666667,8.66666667 L4.66666667,7.33333333 L7.33333333,7.33333333 L7.33333333,4.66666667 L8.66666667,4.66666667 Z" id="形状结合" fill="#000000"></path>
    </g>
</svg>