<?xml version="1.0" encoding="UTF-8"?>
<svg width="16px" height="16px" viewBox="0 0 16 16" version="1.1" xmlns="http://www.w3.org/2000/svg" xmlns:xlink="http://www.w3.org/1999/xlink">
    <title>icon/16x16/new</title>
    <g id="icon/16x16/new" stroke="none" stroke-width="1" fill="none" fill-rule="evenodd">
        <path d="M13.0270603,10.038267 L12.3627403,10.038267 L11.7662519,7.71884807 L11.0733994,10.038267 L10.4193079,10.038267 L9.46105041,6.25816641 L10.2319632,6.25816641 L10.818223,8.5295402 L11.4044828,6.26147987 L12.0688028,6.26147987 L12.6550626,8.5295402 L13.2413224,6.26147987 L14.0133119,6.26147987 L13.0275987,10.0410282 L13.0270603,10.038267 Z M9.16872804,10.038267 L6.45115283,10.038267 L6.45115283,6.24822605 L9.04006312,6.24822605 L9.04006312,7.05615696 L7.21291371,7.05615696 L7.21291371,7.80168446 L9.04975337,7.80168446 L9.04975337,8.60906313 L7.21291371,8.60906313 L7.21291371,9.28224685 L9.16657465,9.28224685 L9.16657465,10.038267 L9.16872804,10.038267 Z M5.74914846,10.038267 L5.08375167,10.038267 L3.55107801,7.76026627 L3.55107801,10.0371625 L2.78931713,10.0371625 L2.78931713,6.24822605 L3.45256053,6.24822605 L4.98738758,8.52622674 L4.98738758,6.24822605 L5.74914846,6.24822605 L5.74914846,10.038267 Z M1.22541936,4.00115094 C0.889965255,3.98610725 0.564283226,4.11910993 0.330692742,4.36654119 C0.0971022591,4.61397245 -0.0220431005,4.95215422 0.00337187349,5.29560758 L0.00337187349,11.001378 C0.00337187349,11.7159817 0.582672601,12.2952824 1.29727626,12.2952824 L1.94949596,12.2952824 L1.94949596,12.2952824 L14.7750728,12.2952824 C15.1104344,12.3105077 15.4360862,12.1776203 15.6696161,11.9302497 C15.9031461,11.6828792 16.0221755,11.3447304 15.9965819,11.001378 L15.9965819,5.29560758 C15.9647984,4.60994314 15.441068,4.0554248 14.7739961,4.00115094 L1.22541936,4.00115094 Z" id="形状" fill="#E00000"></path>
    </g>
</svg>