<?xml version="1.0" encoding="UTF-8"?>
<svg width="18px" height="20px" viewBox="0 0 18 20" version="1.1" xmlns="http://www.w3.org/2000/svg" xmlns:xlink="http://www.w3.org/1999/xlink">
    <title>其他/logo</title>
    <g id="看板" stroke="none" stroke-width="1" fill="none" fill-rule="evenodd" opacity="0.603562128">
        <g id="看板首页" transform="translate(-171.000000, -735.000000)" fill="#000000">
            <g id="编组-14备份-3" transform="translate(152.000000, 716.000000)">
                <g id="其他/标题栏/5">
                    <g id="icon/24x24/投资机构" transform="translate(16.000000, 17.000000)">
                        <path d="M7.26315789,11.0263158 L5.36842105,11.0263158 L5.36842105,17.6578947 L7.26315789,17.6578947 L7.26315789,11.0263158 M12.9473684,11.0263158 L11.0526316,11.0263158 L11.0526316,17.6578947 L12.9473684,17.6578947 L12.9473684,11.0263158 M21,19.5526316 L3,19.5526316 L3,21.4473684 L21,21.4473684 L21,19.5526316 M18.6315789,11.0263158 L16.7368421,11.0263158 L16.7368421,17.6578947 L18.6315789,17.6578947 L18.6315789,11.0263158 M12,4.64105263 L16.9357895,7.23684211 L7.06421053,7.23684211 L12,4.64105263 M12,2.5 L3,7.23684211 L3,9.13157895 L21,9.13157895 L21,7.23684211 L12,2.5 Z" id="形状"></path>
                    </g>
                </g>
            </g>
        </g>
    </g>
</svg>