<?xml version="1.0" encoding="UTF-8"?>
<svg width="20px" height="20px" viewBox="0 0 20 20" version="1.1" xmlns="http://www.w3.org/2000/svg" xmlns:xlink="http://www.w3.org/1999/xlink">
    <!-- Generator: Sketch 64 (93537) - https://sketch.com -->
    <title>其他/logo</title>
    <desc>Created with Sketch.</desc>
    <g id="看板" stroke="none" stroke-width="1" fill="none" fill-rule="evenodd">
        <g id="看板（拖动状态）" transform="translate(-170.000000, -400.000000)" fill="#000000">
            <g id="编组" transform="translate(152.000000, 206.500000)">
                <g id="编组-16" transform="translate(0.000000, 174.500000)">
                    <g id="其他/标题栏/5">
                        <g id="icon/24x24/clock" transform="translate(16.000000, 17.000000)">
                            <rect id="矩形" fill-rule="nonzero" opacity="0" x="0" y="0" width="24" height="24"></rect>
                            <path d="M12,20 C16.42,20 20,16.42 20,12 C20,7.58 16.42,4 12,4 C7.58,4 4,7.58 4,12 C4,16.42 7.58,20 12,20 M12,2 C17.52,2 22,6.48 22,12 C22,17.52 17.52,22 12,22 C6.47,22 2,17.5 2,12 C2,6.48 6.48,2 12,2 M12.5,7 L12.5,12.25 L17,14.92 L16.25,16.15 L11,13 L11,7 L12.5,7 Z" id="形状" fill-rule="evenodd" opacity="0.603562128"></path>
                        </g>
                    </g>
                </g>
            </g>
        </g>
    </g>
</svg>