<?xml version="1.0" encoding="UTF-8"?>
<svg width="17px" height="18px" viewBox="0 0 17 18" version="1.1" xmlns="http://www.w3.org/2000/svg" xmlns:xlink="http://www.w3.org/1999/xlink">
    <!-- Generator: Sketch 64 (93537) - https://sketch.com -->
    <title>其他/logo</title>
    <desc>Created with Sketch.</desc>
    <g id="看板" stroke="none" stroke-width="1" fill="none" fill-rule="evenodd" opacity="0.603562128">
        <g id="看板（拖动状态）" transform="translate(-1020.000000, -239.000000)" fill="#000000">
            <g id="编组" transform="translate(152.000000, 206.500000)">
                <g id="编组-14" transform="translate(848.000000, 12.500000)">
                    <g id="其他/标题栏/5">
                        <g id="icon/24x24/交易事件" transform="translate(16.000000, 17.000000)">
                            <path d="M12.1,3 C13.27,3 14.26,3.756 14.638,4.8 L18.4,4.8 C19.39,4.8 20.2,5.61 20.2,6.6 L20.2,19.4 C20.2,20.2836556 19.4836556,21 18.6,21 L5.8,21 C4.81,21 4,20.19 4,19.2 L4,6.6 C4,5.61 4.81,4.8 5.8,4.8 L9.562,4.8 C9.94,3.756 10.93,3 12.1,3 Z M13.8217391,15.9130435 L7.52173913,15.9130435 L7.52173913,17.4782609 L13.8217391,17.4782609 L13.8217391,15.9130435 Z M16.5217391,12.3913043 L7.52173913,12.3913043 L7.52173913,13.9565217 L16.5217391,13.9565217 L16.5217391,12.3913043 Z M16.5217391,8.86956522 L7.52173913,8.86956522 L7.52173913,10.4347826 L16.5217391,10.4347826 L16.5217391,8.86956522 Z M12.1,4.8 C11.605,4.8 11.2,5.205 11.2,5.7 C11.2,6.195 11.605,6.6 12.1,6.6 C12.595,6.6 13,6.195 13,5.7 C13,5.205 12.595,4.8 12.1,4.8 Z" id="形状结合备份"></path>
                        </g>
                    </g>
                </g>
            </g>
        </g>
    </g>
</svg>