<?xml version="1.0" encoding="UTF-8"?>
<svg width="20px" height="20px" viewBox="0 0 20 20" version="1.1" xmlns="http://www.w3.org/2000/svg" xmlns:xlink="http://www.w3.org/1999/xlink">
    <!-- Generator: Sketch 64 (93537) - https://sketch.com -->
    <title>其他/logo</title>
    <desc>Created with Sketch.</desc>
    <g id="看板" stroke="none" stroke-width="1" fill="none" fill-rule="evenodd" opacity="0.603562128">
        <g id="看板（拖动状态）" transform="translate(-1018.000000, -481.000000)" fill="#000000">
            <g id="编组" transform="translate(152.000000, 206.500000)">
                <g id="编组-14备份" transform="translate(848.000000, 255.500000)">
                    <g id="其他/标题栏/5">
                        <g id="icon/24x24/基金" transform="translate(16.000000, 17.000000)">
                            <path d="M20.1799687,14.256 C20.3519687,14.236 20.5179687,14.312 20.6159687,14.446 C20.7179687,14.584 20.7339687,14.766 20.6679687,14.922 L20.6679687,14.922 L20.0159687,16.398 C19.9459687,16.554 19.7979687,16.662 19.6279687,16.68 C19.6119687,16.682 19.5959687,16.682 19.5779687,16.682 C19.4279687,16.682 19.2819687,16.612 19.1919687,16.488 L19.1919687,16.488 L19.0759687,16.328 L11.6139687,21.886 C11.5119687,21.964 11.3919687,22 11.2719687,22 C11.1039687,22 10.9359687,21.926 10.8239687,21.786 L10.8239687,21.786 L8.93596875,19.438 C7.15196875,20.762 7.08396875,20.786 6.98596875,20.818 C6.68596875,20.916 6.36196875,20.756 6.25996875,20.456 C6.16996875,20.184 6.29196875,19.894 6.53796875,19.766 C6.73196875,19.642 7.90596875,18.778 8.69796875,18.188 C8.94596875,18.002 9.29596875,18.048 9.48796875,18.288 L9.48796875,18.288 L11.3739687,20.636 L18.3979687,15.402 L18.2399687,15.186 C18.1399687,15.048 18.1199687,14.866 18.1899687,14.712 C18.2579687,14.556 18.4059687,14.448 18.5759687,14.43 L18.5759687,14.43 Z M11.6679687,2 C16.9919687,2 21.3239687,6.332 21.3259687,11.658 C21.3259687,11.976 20.9248371,12.2810613 20.6068371,12.2810613 C20.2888371,12.2810613 19.8521566,11.974 19.8521566,11.656 C19.8521566,6.964 16.3599687,3.52758222 11.6679687,3.52758222 C6.97596875,3.52758222 3.5105813,6.964 3.5105813,11.656 C3.5105813,13.928 4.20198068,15.9484531 5.80798068,17.5544531 C6.03198068,17.7804531 6.00053503,18.1573477 5.77653503,18.3813477 C5.66453503,18.4933477 5.38996875,18.652 5.24396875,18.652 C5.09596875,18.652 4.94996875,18.596 4.83796875,18.484 C3.01396875,16.66 2.00996875,14.236 2.00996875,11.656 C2.00996875,6.332 6.34196875,2 11.6679687,2 Z M9.57428571,6 L11.86,10.6857143 L14.1457143,6 L15.42,6 L13.4657143,10 L15.2885714,10 L15.2885714,11.1428571 L12.9114286,11.1428571 L12.4314286,12.12 L12.4314286,12.2857143 L15.2885714,12.2857143 L15.2885714,13.4285714 L12.4314286,13.4285714 L12.4314286,16.2857143 L11.2885714,16.2857143 L11.2885714,13.4285714 L8.43142857,13.4285714 L8.43142857,12.2857143 L11.2885714,12.2857143 L11.2885714,12.12 L10.8085714,11.1428571 L8.43142857,11.1428571 L8.43142857,10 L10.2542857,10 L8.3,6 L9.57428571,6 Z" id="形状结合"></path>
                        </g>
                    </g>
                </g>
            </g>
        </g>
    </g>
</svg>