<?xml version="1.0" encoding="UTF-8"?>
<svg width="20px" height="13px" viewBox="0 0 20 13" version="1.1" xmlns="http://www.w3.org/2000/svg" xmlns:xlink="http://www.w3.org/1999/xlink">
    <!-- Generator: Sketch 64 (93537) - https://sketch.com -->
    <title>其他/logo</title>
    <desc>Created with Sketch.</desc>
    <g id="看板" stroke="none" stroke-width="1" fill="none" fill-rule="evenodd">
        <g id="看板（拖动状态）" transform="translate(-1018.000000, -404.000000)">
            <g id="编组" transform="translate(152.000000, 206.500000)">
                <g id="编组-23" transform="translate(848.000000, 174.500000)">
                    <g id="其他/标题栏/5">
                        <g id="icon/24x24/IPO" transform="translate(16.000000, 17.000000)">
                            <polygon id="Fill-1" fill="#FEFEFE" opacity="0" points="0 24 24 24 24 0 0 0"></polygon>
                            <path d="M2,6.09878609 L3.80828799,6.09878609 L3.80828799,18.0184177 L2,18.0184177 L2,6.09711176 L2,6.09878609 Z M6.95102554,11.6575973 L9.62494767,11.6575973 C10.294684,11.6458769 10.7986605,11.439933 11.1368774,11.0364169 C11.4583508,10.6429468 11.6190875,10.2076182 11.6190875,9.72875679 C11.6190875,9.33026371 11.5537882,8.99539556 11.4231896,8.72247802 C11.2895727,8.47969159 11.0913868,8.27860819 10.8505651,8.14148178 C10.4635671,7.90295303 10.0137959,7.78628086 9.55964839,7.80661363 L6.95102554,7.80661363 L6.95102554,11.6575973 Z M5.14441189,6.09878609 L9.46086228,6.09878609 C9.92967767,6.09878609 10.3817497,6.14231896 10.8170783,6.22938467 C11.2540812,6.34323984 11.6961071,6.57764753 12.1431561,6.93260777 C12.5182085,7.20050228 12.8246128,7.58057763 13.0590205,8.0761825 C13.3034743,8.55671829 13.4273755,9.12264544 13.4273755,9.77731268 C13.4273755,10.6596903 13.1159481,11.4633738 12.4947677,12.1883633 C11.8568439,12.9518627 10.9242361,13.3436584 9.69861867,13.3654249 L6.95269987,13.3654249 L6.95269987,18.0184177 L5.14441189,18.0184177 L5.14441189,6.09711176 L5.14441189,6.09878609 Z M13.4893261,12.0594391 C13.4893261,10.673085 13.5295102,9.74717455 13.611553,9.27835913 C13.6986187,8.80954373 13.8325659,8.43114272 14.0133947,8.14148178 C14.3013813,7.59229803 14.7634994,7.10171619 15.4030975,6.66973628 C16.029301,6.23440769 16.8095437,6.01172038 17.7471745,6 C18.6965257,6.01172038 19.4884889,6.23440771 20.1197153,6.66973628 C20.7459188,7.10171619 21.1979908,7.59062368 21.4759313,8.14315612 C21.6768522,8.43114272 21.8174968,8.80954373 21.8945165,9.27835913 C21.9648388,9.74717453 22,10.673085 22,12.0577648 C22,13.4206781 21.9648388,14.3415655 21.8928422,14.820427 C21.8174968,15.3009627 21.6785266,15.6860611 21.4759313,15.9740477 C21.1979908,16.5249058 20.7459188,17.0104646 20.1197153,17.4307241 C19.4868146,17.8660527 18.6965257,18.0937631 17.7488489,18.1172038 C16.8112181,18.0937631 16.029301,17.8660527 15.4014232,17.4307241 C14.7651737,17.0104646 14.3013813,16.5249058 14.0117204,15.9740477 C13.9246547,15.7948932 13.8442863,15.6224361 13.7756383,15.4583508 C13.7086647,15.2909167 13.6550858,15.0782754 13.611553,14.8221013 C13.5295103,14.3415655 13.4893261,13.4206781 13.4893261,12.0594391 Z M15.3043114,12.0594391 C15.3043114,13.2298033 15.3478443,14.0234408 15.43491,14.4370029 C15.5102553,14.8505651 15.665969,15.1871076 15.9003767,15.4416074 C16.0912516,15.6877354 16.3424027,15.886982 16.65383,16.039347 C16.9585601,16.2201758 17.3235663,16.3089159 17.7488489,16.3089159 C18.1791545,16.3089159 18.5525324,16.2201758 18.8689828,16.0410213 C19.1686898,15.886982 19.4081205,15.6894098 19.5889494,15.4432817 C19.8369129,15.1579549 20.0029701,14.810797 20.0694851,14.4386773 C20.1532022,14.0234408 20.1933863,13.2298033 20.1933863,12.0577648 C20.1933863,10.8857263 20.1515278,10.0870657 20.0694851,9.66345751 C20.0003145,9.29636438 19.8337709,8.95460297 19.587275,8.67392214 C19.3958762,8.41818923 19.1499363,8.20828244 18.8673085,8.0594391 C18.5175037,7.89446334 18.1356049,7.8087076 17.7488489,7.80828295 C17.368943,7.8075249 16.9938672,7.89342012 16.6521557,8.0594391 C16.3424027,8.22352449 16.0912516,8.42779405 15.9003767,8.67392214 C15.665969,8.93009627 15.5102553,9.2599414 15.43491,9.66178317 C15.3478443,10.0870657 15.3043114,10.8857263 15.3043114,12.0577648 L15.3043114,12.0594391 Z" id="形状" fill="#000000" opacity="0.603562128"></path>
                        </g>
                    </g>
                </g>
            </g>
        </g>
    </g>
</svg>