<?xml version="1.0" encoding="UTF-8"?>
<svg width="18px" height="20px" viewBox="0 0 18 20" version="1.1" xmlns="http://www.w3.org/2000/svg" xmlns:xlink="http://www.w3.org/1999/xlink">
    <!-- Generator: Sketch 64 (93537) - https://sketch.com -->
    <title>其他/logo</title>
    <desc>Created with Sketch.</desc>
    <g id="看板" stroke="none" stroke-width="1" fill="none" fill-rule="evenodd" opacity="0.603562128">
        <g id="看板（拖动状态）" transform="translate(-171.000000, -319.000000)" fill="#000000">
            <g id="编组" transform="translate(152.000000, 206.500000)">
                <g id="编组-15" transform="translate(0.000000, 93.500000)">
                    <g id="其他/标题栏/5">
                        <g id="icon/24x24/search-" transform="translate(16.000000, 17.000000)">
                            <path d="M12.2685405,2.4 L5.0937081,2.4 C4.10716864,2.4 3.3,3.20716864 3.3,4.1937081 L3.3,18.5433729 C3.3,19.5299123 4.10716864,20.337081 5.0937081,20.337081 L11.3716864,20.337081 C11.0039763,20.1128675 10.6542032,19.8348427 10.3492728,19.5299123 C10.053311,19.2339505 9.80219185,18.9021145 9.57797834,18.5433729 L5.0937081,18.5433729 L5.0937081,4.1937081 L11.3716864,4.1937081 L11.3716864,8.67797834 L15.8559567,8.67797834 L15.8559567,9.73626612 C16.4927231,9.87976276 17.1025838,10.1219134 17.6496648,10.4716864 L17.6496648,7.78112429 L12.2685405,2.4 M17.9276895,17.5568334 C19.1205054,15.6644714 18.5465188,13.1622486 16.6720939,11.9784012 C14.7797318,10.7855854 12.2685405,11.3685405 11.0936617,13.2339969 C9.89187726,15.1263589 10.4748324,17.6196132 12.3492573,18.8124291 C13.6586643,19.6465034 15.3268128,19.6465034 16.6451882,18.8303662 L19.4433729,21.5837081 L20.69,20.337081 L17.9276895,17.5568334 M14.5106756,17.6465188 C13.273017,17.6465188 12.2685405,16.6420423 12.2685405,15.4043837 C12.2685405,14.1667251 13.273017,13.1622486 14.5106756,13.1622486 C15.7483342,13.1622486 16.7528107,14.1667251 16.7528107,15.4043837 C16.7528107,16.6420423 15.7483342,17.6465188 14.5106756,17.6465188 Z" id="形状"></path>
                        </g>
                    </g>
                </g>
            </g>
        </g>
    </g>
</svg>