<?xml version="1.0" encoding="UTF-8"?>
<svg width="20px" height="14px" viewBox="0 0 20 14" version="1.1" xmlns="http://www.w3.org/2000/svg" xmlns:xlink="http://www.w3.org/1999/xlink">
    <!-- Generator: Sketch 64 (93537) - https://sketch.com -->
    <title>其他/logo</title>
    <desc>Created with Sketch.</desc>
    <g id="看板" stroke="none" stroke-width="1" fill="none" fill-rule="evenodd">
        <g id="看板（拖动状态）" transform="translate(-1018.000000, -322.000000)" fill="#000000">
            <g id="编组" transform="translate(152.000000, 206.500000)">
                <g id="编组-16" transform="translate(848.000000, 93.500000)">
                    <g id="其他/标题栏/5">
                        <g id="icon/24x24/eye/s" transform="translate(16.000000, 17.000000)">
                            <rect id="矩形" fill-rule="nonzero" opacity="0" x="0" y="0" width="24" height="24"></rect>
                            <path d="M12,9.27090909 C10.4909091,9.27090909 9.27272727,10.4890909 9.27272727,11.9981818 C9.27272727,13.5072727 10.4909091,14.7254545 12,14.7254545 C13.5090909,14.7254545 14.7272727,13.5072727 14.7272727,11.9981818 C14.7272727,10.4890909 13.5090909,9.27090909 12,9.27090909 M12,16.5436364 C9.49090909,16.5436364 7.45454545,14.5072727 7.45454545,11.9981818 C7.45454545,9.48909091 9.49090909,7.45272727 12,7.45272727 C14.5090909,7.45272727 16.5454545,9.48909091 16.5454545,11.9981818 C16.5454545,14.5072727 14.5090909,16.5436364 12,16.5436364 M12,5.18 C7.45454545,5.18 3.57272727,8.00727273 2,11.9981818 C3.57272727,15.9890909 7.45454545,18.8163636 12,18.8163636 C16.5454545,18.8163636 20.4272727,15.9890909 22,11.9981818 C20.4272727,8.00727273 16.5454545,5.18 12,5.18 Z" id="形状" fill-rule="evenodd" opacity="0.603562128"></path>
                        </g>
                    </g>
                </g>
            </g>
        </g>
    </g>
</svg>