<?xml version="1.0" encoding="UTF-8"?>
<svg width="16px" height="17px" viewBox="0 0 16 17" version="1.1" xmlns="http://www.w3.org/2000/svg" xmlns:xlink="http://www.w3.org/1999/xlink">
    <!-- Generator: Sketch 64 (93537) - https://sketch.com -->
    <title></title>
    <desc>Created with Sketch.</desc>
    <g id="beta" stroke="none" stroke-width="1" fill="none" fill-rule="evenodd">
        <g id="看板1" transform="translate(-20.000000, -455.000000)" fill="#CCCCCC">
            <g id="其他/侧边栏/收起" transform="translate(0.000000, 149.000000)">
                <g id="icon/24x24/人物" transform="translate(16.000000, 302.500000)">
                    <path d="M12,4 C14.21,4 16,5.79 16,8 C16,10.21 14.21,12 12,12 C9.79,12 8,10.21 8,8 C8,5.79 9.79,4 12,4 M12,6 C10.9,6 10,6.9 10,8 C10,9.1 10.9,10 12,10 C13.1,10 14,9.1 14,8 C14,6.9 13.1,6 12,6 M12,13 C14.67,13 20,14.33 20,17 L20,20 L4,20 L4,17 C4,14.33 9.33,13 12,13 M12,14.9 C9.03,14.9 5.9,16.36 5.9,17 L5.9,18.1 L18.1,18.1 L18.1,17 C18.1,16.36 14.97,14.9 12,14.9 Z" id="形状"></path>
                </g>
            </g>
        </g>
    </g>
</svg>