<?xml version="1.0" encoding="UTF-8"?>
<svg width="24px" height="24px" viewBox="0 0 24 24" version="1.1" xmlns="http://www.w3.org/2000/svg" xmlns:xlink="http://www.w3.org/1999/xlink">
    <!-- Generator: Sketch 64 (93537) - https://sketch.com -->
    <title></title>
    <desc>Created with Sketch.</desc>
    <g id="icon/侧边栏/行业赛道/n" stroke="none" stroke-width="1" fill="none" fill-rule="evenodd">
        <polygon id="Fill-1" fill="#FEFEFE" opacity="0" points="0 24 24 24 24 0 0 0"></polygon>
        <path d="M5.5,3.5 C6.05,3.5 6.5,3.95 6.5,4.5 L6.5,5.38 C7.56,4.94 9,4.5 10.5,4.5 C13.5,4.5 13.5,6.5 15.5,6.5 C18.5,6.5 19.5,4.5 19.5,4.5 L19.5,12.5 C19.5,12.5 18.5,14.5 15.5,14.5 C12.5,14.5 12.5,12.5 10.5,12.5 C7.5,12.5 6.5,14.5 6.5,14.5 L6.5,21.5 L4.5,21.5 L4.5,4.5 C4.5,3.95 4.95,3.5 5.5,3.5 M6.5,7.75 L6.5,12 C6.5,12 8.5,10.5 10.5,10.5 C12.5,10.5 13.5,12.5 15.5,12.5 C17.5,12.5 17.5,11.5 17.5,11.5 L17.5,8 C17.5,8 16.5,8.5 15.5,8.5 C13.5,8.5 12.5,6.5 10.5,6.5 C8.5,6.5 6.5,7.75 6.5,7.75 Z" id="形状" fill="#CCCCCC"></path>
    </g>
</svg>