<?xml version="1.0" encoding="UTF-8"?>
<svg width="24px" height="24px" viewBox="0 0 24 24" version="1.1" xmlns="http://www.w3.org/2000/svg" xmlns:xlink="http://www.w3.org/1999/xlink">
    <title>企业备份</title>
    <g id="样式汇总" stroke="none" stroke-width="1" fill="none" fill-rule="evenodd">
        <g id="机构认证---认证权益" transform="translate(-219.000000, -199.000000)">
            <g id="企业备份" transform="translate(219.000000, 199.000000)">
                <rect id="矩形" x="0" y="0" width="24" height="24"></rect>
                <g id="icon/24x24/机构" transform="translate(5.333333, 4.666667)">
                    <path d="M6.71992481,0.261904762 L13.0469925,3.71786609 L13.0468571,3.76090476 L13.0521714,3.76479435 L13.0521714,5.08540452 L13.0468571,5.08490476 L13.0469925,5.10025063 L0.392857143,5.10025063 L0.392857143,3.71786609 L6.71992481,0.261904762 Z M0.392857143,14.4047619 L13.0469925,14.4047619 L13.0469925,12.5438596 L0.392857143,12.5438596" id="形状" fill="#4A4A4A"></path>
                    <polyline id="路径" fill="#4F709B" points="9.69736842 6.21679198 9.69736842 11.0551378 11.5582707 11.0551378 11.5582707 6.21679198"></polyline>
                    <polyline id="路径" fill="#4F709B" points="5.97556391 6.21679198 5.97556391 11.0551378 7.83646617 11.0551378 7.83646617 6.21679198"></polyline>
                    <polygon id="路径" fill="#4F709B" points="1.88157895 6.21679198 1.88157895 11.0551378 3.7424812 11.0551378 3.7424812 6.21679198"></polygon>
                </g>
            </g>
        </g>
    </g>
</svg>