<?xml version="1.0" encoding="UTF-8"?>
<svg width="24px" height="24px" viewBox="0 0 24 24" version="1.1" xmlns="http://www.w3.org/2000/svg" xmlns:xlink="http://www.w3.org/1999/xlink">
    <title>企业备份</title>
    <g id="样式汇总" stroke="none" stroke-width="1" fill="none" fill-rule="evenodd">
        <g id="机构认证---认证权益" transform="translate(-36.000000, -199.000000)">
            <g id="企业备份" transform="translate(36.000000, 199.000000)">
                <rect id="矩形" x="0" y="0" width="24" height="24"></rect>
                <g id="icon/24x24/机构备份-7" transform="translate(5.333333, 4.666667)">
                    <path d="M6.51851852,0 C8.31925926,0 9.77777778,1.45851852 9.77777778,3.25925926 C9.77777778,5.06 8.31925926,6.51851852 6.51851852,6.51851852 C4.71777778,6.51851852 3.25925926,5.06 3.25925926,3.25925926 C3.25925926,1.45851852 4.71777778,0 6.51851852,0 M9.77777778,8.58814815 C9.77777778,9.45185185 9.54962963,11.4644444 7.99333333,13.7133333 L7.33333333,9.77777778 L8.09925926,8.24592593 C7.59407407,8.18888889 7.06444444,8.14814815 6.51851852,8.14814815 C5.97259259,8.14814815 5.44296296,8.18888889 4.93777778,8.24592593 L5.7037037,9.77777778 L5.0437037,13.7133333 C3.48740741,11.4644444 3.25925926,9.45185185 3.25925926,8.58814815 C1.31185185,9.15851852 0,10.1851852 0,11.4074074 L0,14.6666667 L13.037037,14.6666667 L13.037037,11.4074074 C13.037037,10.1851852 11.7333333,9.15851852 9.77777778,8.58814815 Z" id="形状" fill="#4A4A4A"></path>
                    <path d="M4.93777778,8.24592593 L5.7037037,9.77777778 C5.15885921,13.037037 4.90355056,14.6666667 4.93777778,14.6666667 C4.97200499,14.6666667 6.01814927,14.6666667 8.07621063,14.6666667 C7.95548662,13.3989332 7.70786086,11.7693036 7.33333333,9.77777778 C7.45776367,9.51302083 7.95365397,8.55729167 8.09925926,8.24592593 C7.17746847,8.11216737 6.12364131,8.11216737 4.93777778,8.24592593 Z" id="路径-4" fill="#4F709B"></path>
                </g>
            </g>
        </g>
    </g>
</svg>