<?xml version="1.0" encoding="UTF-8"?>
<svg width="72px" height="72px" viewBox="0 0 72 72" version="1.1"
    xmlns="http://www.w3.org/2000/svg"
    xmlns:xlink="http://www.w3.org/1999/xlink">
    <defs>
        <rect id="path-1" x="0" y="0" width="64" height="64" rx="8"></rect>
        <filter x="-10.9%" y="-7.8%" width="121.9%" height="121.9%" filterUnits="objectBoundingBox" id="filter-2">
            <feOffset dx="0" dy="2" in="SourceAlpha" result="shadowOffsetOuter1"></feOffset>
            <feGaussianBlur stdDeviation="2" in="shadowOffsetOuter1" result="shadowBlurOuter1"></feGaussianBlur>
            <feColorMatrix values="0 0 0 0 0.309803922   0 0 0 0 0.439215686   0 0 0 0 0.607843137  0 0 0 1 0" type="matrix" in="shadowBlurOuter1"></feColorMatrix>
        </filter>
    </defs>
    <g id="其它" stroke="none" stroke-width="1" fill="none" fill-rule="evenodd">
        <g id="APP-下载" transform="translate(-152.000000, -403.000000)">
            <g id="LOGO" transform="translate(156.000000, 405.000000)">
                <g id="矩形">
                    <use fill="black" fill-opacity="1" filter="url(#filter-2)" xlink:href="#path-1"></use>
                    <use fill="#FFFFFF" fill-rule="evenodd" xlink:href="#path-1"></use>
                </g>
                <g id="logo" transform="translate(7.000000, 24.000000)" fill="#4F709B">
                    <path d="M6.7891251,0.629313766 C9.57685734,0.629313766 11.8260504,2.77005451 11.8260504,5.41449895 C11.8260504,7.68116562 10.1787541,9.57005451 7.99291856,10.0737582 L7.99291856,10.0737582 L11.8260504,15.7404249 L8.43642142,15.7404249 L4.69832592,10.2311656 L3.11438715,10.2311656 L3.11438715,15.7089434 L0.263297355,15.7089434 L0.263297355,7.83857303 C0.263297355,7.64968414 0.390012457,7.52375821 0.58008511,7.52375821 L0.58008511,7.52375821 L6.7891251,7.52375821 C8.08795489,7.52375821 9.13335448,6.57931377 9.13335448,5.41449895 C9.13335448,4.24968414 8.08795489,3.30523969 6.7891251,3.30523969 L6.7891251,3.30523969 L0.58008511,3.30523969 C0.390012457,3.30523969 0.263297355,3.17931377 0.263297355,2.99042488 L0.263297355,2.99042488 L0.263297355,0.944128581 C0.263297355,0.755239692 0.390012457,0.629313766 0.58008511,0.629313766 L0.58008511,0.629313766 Z M16.5796266,8.18486932 C16.7081017,8.18486932 16.8365767,8.33016847 16.8365767,8.47546761 L16.8365767,8.47546761 L16.8365767,15.7404249 L14.5240261,15.7404249 L14.5240261,8.47546761 C14.5240261,8.30110864 14.6268061,8.18486932 14.7809762,8.18486932 L14.7809762,8.18486932 Z M32.1564889,3.14783228 C34.865743,3.14783228 36.2363068,4.80559131 36.2363068,8.15298934 L36.2363068,8.15298934 L36.2363068,15.7085449 L33.431432,15.7085449 L33.431432,8.91810889 C33.431432,7.73854958 33.3039377,6.90967007 33.0170755,6.43147035 C32.7302133,5.95327063 32.2521097,5.69823078 31.5827645,5.69823078 C30.8177987,5.69823078 30.2440743,6.0170306 29.893465,6.59087026 C29.5428556,7.1965899 29.3516142,8.12110936 29.3516142,9.42818859 L29.3516142,9.42818859 L29.3516142,15.7404249 L26.5467394,15.7404249 L26.5467394,8.98186885 C26.5467394,6.78215015 25.9092678,5.69823078 24.6661983,5.69823078 C23.9012325,5.69823078 23.2956345,5.98515062 22.9450252,6.62275024 C22.5944158,7.1965899 22.4031744,8.15298934 22.4031744,9.42818859 L22.4031744,9.42818859 L22.4031744,15.7404249 L19.5345524,15.7404249 L19.5345524,4.04047176 C19.5345524,3.84919187 19.6620467,3.72167195 19.8532882,3.72167195 L19.8532882,3.72167195 L22.0844386,3.72167195 C22.27568,3.72167195 22.4031744,3.84919187 22.4031744,4.04047176 L22.4031744,4.04047176 L22.4031744,4.61431142 C22.9450252,4.04047176 23.3912552,3.65791198 23.8056117,3.4666321 C24.2199682,3.24347223 24.7299455,3.14783228 25.3355434,3.14783228 C26.7061073,3.14783228 27.7579353,3.75355193 28.5866483,4.96499122 C29.4791085,3.75355193 30.6584308,3.14783228 32.1564889,3.14783228 Z M43.9285462,3.14783228 C47.4738066,3.14783228 50.3685605,5.98515062 50.3685605,9.46006857 C50.3685605,9.87450833 50.3035099,10.2570681 50.2384592,10.6396279 L50.2384592,10.6396279 L40.0905578,10.6396279 C40.610963,12.2336269 42.107128,13.4131862 43.9285462,13.4131862 C45.1319832,13.4131862 46.1727936,12.8712266 46.8883507,12.0423471 L46.8883507,12.0423471 L49.7505793,12.0423471 C48.7422943,14.2101858 46.5305722,15.7404249 43.9285462,15.7404249 C40.3832857,15.7404249 37.5210571,12.8712266 37.5210571,9.42818859 C37.5210571,5.98515062 40.3832857,3.14783228 43.9285462,3.14783228 Z M43.9285462,5.5069509 C42.107128,5.5069509 40.610963,6.6865102 40.0905578,8.28050927 L40.0905578,8.28050927 L47.7665345,8.28050927 C47.2461293,6.6865102 45.7499644,5.5069509 43.9285462,5.5069509 Z M16.5796266,3.27375821 C16.7081017,3.27375821 16.8365767,3.39968414 16.8365767,3.52561006 L16.8365767,3.52561006 L16.8365767,5.28857303 C16.8365767,5.43968414 16.7337967,5.54042488 16.5796266,5.54042488 L16.5796266,5.54042488 L14.7809762,5.54042488 C14.6268061,5.54042488 14.5240261,5.43968414 14.5240261,5.28857303 L14.5240261,5.28857303 L14.5240261,3.52561006 C14.5240261,3.37449895 14.6268061,3.27375821 14.7809762,3.27375821 L14.7809762,3.27375821 Z" id="形状结合"></path>
                </g>
            </g>
        </g>
    </g>
</svg>