<?xml version="1.0" encoding="UTF-8"?>
<svg width="415px" height="220px" viewBox="0 0 415 220" version="1.1" xmlns="http://www.w3.org/2000/svg" xmlns:xlink="http://www.w3.org/1999/xlink">
    <title>编组 5</title>
    <defs>
        <path d="M0,4.00631338 C0,1.7936876 1.78240672,0 4.00739278,0 L410.992607,0 C413.205829,0 415,1.78701101 415,4.00631338 L415,215.993687 C415,218.206312 413.217593,220 410.992607,220 L4.00739278,220 C1.79417086,220 0,218.212989 0,215.993687 L0,4.00631338 Z" id="path-1"></path>
        <mask id="mask-2" maskContentUnits="userSpaceOnUse" maskUnits="objectBoundingBox" x="0" y="0" width="415" height="220" fill="white">
            <use xlink:href="#path-1"></use>
        </mask>
    </defs>
    <g id="限制" stroke="none" stroke-width="1" fill="none" fill-rule="evenodd">
        <g id="我的" transform="translate(-753.000000, -525.000000)">
            <g id="弹窗" transform="translate(0.000000, 150.000000)">
                <g transform="translate(721.000000, 221.000000)" id="编组-5">
                    <g transform="translate(32.000000, 154.000000)">
                        <path d="M0,4.00631338 C0,1.7936876 1.78240672,0 4.00739278,0 L410.992607,0 C413.205829,0 415,1.78701101 415,4.00631338 L415,215.993687 C415,218.206312 413.217593,220 410.992607,220 L4.00739278,220 C1.79417086,220 0,218.212989 0,215.993687 L0,4.00631338 Z" id="Rectangle-72"></path>
                        <use id="Rectangle-72" stroke-opacity="0.0435423951" stroke="#000000" mask="url(#mask-2)" stroke-width="2" fill-opacity="0.02" fill="#000000" stroke-dasharray="4" xlink:href="#path-1"></use>
                        <text id="↳-Description" font-family="NotoSansSC-Regular, Noto Sans SC Regular" font-size="12" font-weight="normal" line-spacing="16" letter-spacing="0.15" fill="#989898">
                            <tspan x="141" y="146">支持扩展名：png  ， jpg</tspan>
                            <tspan x="162.162" y="162">文件大小 5MB 内</tspan>
                        </text>
                        <text id="Title" font-family="NotoSansSC-Regular, Noto Sans SC Regular" font-size="12" font-weight="normal" line-spacing="16" letter-spacing="0.15" fill="#666666">
                            <tspan x="112" y="118">点击 或将 名片照片 拖拽到这里上传</tspan>
                        </text>
                        <path d="M227.977511,44 C228.242595,44 228.496822,44.1053568 228.684265,44.2928932 C228.871707,44.4804296 228.977011,44.7347835 228.977011,45 L228.977011,75 C228.977011,75.5522848 228.52952,76 227.977511,76 L183.9995,76 C183.447491,76 183,75.5522848 183,75 L183,45 C183,44.7347835 183.105304,44.4804296 183.292747,44.2928932 C183.480189,44.1053568 183.734416,44 183.9995,44 L227.977511,44 Z M226.978011,46 L184.999,46 L184.999,74 L226.978011,74 L226.978011,46 Z M231.997594,40 C232.551208,40 233,40.4477152 233,41 L233,71 C233,71.5522848 232.551208,72 231.997594,72 C231.443981,72 230.995188,71.5522848 230.995188,71 L230.995188,42 L218.233153,42.0009491 C218.181287,42.0092783 218.128092,42.0136054 218.073892,42.0136054 L188.024631,42.0136054 C187.471439,42.0136054 187.022989,41.5628445 187.022989,41.0068027 C187.022989,40.4507609 187.471439,40 188.024631,40 L231.997594,40 Z M197.367816,61.0714286 C200.244971,61.0714286 205.988506,62.4964286 205.988506,65.3571429 L205.988506,68.5714286 L188.747126,68.5714286 L188.747126,65.3571429 C188.747126,62.4964286 194.490661,61.0714286 197.367816,61.0714286 Z M197.367816,63.1071429 C194.167385,63.1071429 190.79454,64.6714286 190.79454,65.3571429 L190.79454,66.5357143 L203.941092,66.5357143 L203.941092,65.3571429 C203.941092,64.6714286 200.568247,63.1071429 197.367816,63.1071429 Z M215.068965,59.1292517 C215.622157,59.1292517 216.070608,59.5800126 216.070608,60.1360544 C216.070608,60.6920962 215.622157,61.1428571 215.068965,61.1428571 L211.062397,61.1428571 C210.509206,61.1428571 210.060755,60.6920962 210.060755,60.1360544 C210.060755,59.5800126 210.509206,59.1292517 211.062397,59.1292517 L215.068965,59.1292517 Z M197.367816,51.4285714 C199.749282,51.4285714 201.678161,53.3464286 201.678161,55.7142857 C201.678161,58.0821429 199.749282,60 197.367816,60 C194.986351,60 193.057471,58.0821429 193.057471,55.7142857 C193.057471,53.3464286 194.986351,51.4285714 197.367816,51.4285714 Z M197.367816,53.5714286 C196.182471,53.5714286 195.212644,54.5357143 195.212644,55.7142857 C195.212644,56.8928571 196.182471,57.8571429 197.367816,57.8571429 C198.553161,57.8571429 199.522989,56.8928571 199.522989,55.7142857 C199.522989,54.5357143 198.553161,53.5714286 197.367816,53.5714286 Z M221.078818,55.1020408 C221.632009,55.1020408 222.08046,55.5528017 222.08046,56.1088435 C222.08046,56.6648853 221.632009,57.1156463 221.078818,57.1156463 L211.062397,57.1156463 C210.509206,57.1156463 210.060755,56.6648853 210.060755,56.1088435 C210.060755,55.5528017 210.509206,55.1020408 211.062397,55.1020408 L221.078818,55.1020408 Z" id="形状结合" fill="#CCCCCC"></path>
                        <path d="M20.5,-5.8170723e-16 C21.3284271,-7.33886824e-16 22,0.671572875 22,1.5 C22,2.32842712 21.3284271,3 20.5,3 L3,3 L3,21.5 C3,22.3284271 2.32842712,23 1.5,23 C0.671572875,23 1.01453063e-16,22.3284271 0,21.5 L0,1.5 C-1.01453063e-16,0.671572875 0.671572875,1.52179594e-16 1.5,0 L20.5,-5.8170723e-16 Z" id="形状结合" fill="#668C9D"></path>
                        <path d="M20.5,196.5 C21.3284271,196.5 22,197.171573 22,198 C22,198.828427 21.3284271,199.5 20.5,199.5 L3,199.5 L3,218 C3,218.828427 2.32842712,219.5 1.5,219.5 C0.671572875,219.5 1.01453063e-16,218.828427 0,218 L0,198 C-1.01453063e-16,197.171573 0.671572875,196.5 1.5,196.5 L20.5,196.5 Z" id="形状结合" fill="#668C9D" transform="translate(11.000000, 208.000000) scale(1, -1) translate(-11.000000, -208.000000) "></path>
                        <path d="M413.5,197 C414.328427,197 415,197.671573 415,198.5 C415,199.328427 414.328427,200 413.5,200 L396,200 L396,218.5 C396,219.328427 395.328427,220 394.5,220 C393.671573,220 393,219.328427 393,218.5 L393,198.5 C393,197.671573 393.671573,197 394.5,197 L413.5,197 Z" id="形状结合" fill="#668C9D" transform="translate(404.000000, 208.500000) scale(-1, -1) translate(-404.000000, -208.500000) "></path>
                        <path d="M413.5,-5.8170723e-16 C414.328427,-7.33886824e-16 415,0.671572875 415,1.5 C415,2.32842712 414.328427,3 413.5,3 L396,3 L396,21.5 C396,22.3284271 395.328427,23 394.5,23 C393.671573,23 393,22.3284271 393,21.5 L393,1.5 C393,0.671572875 393.671573,1.52179594e-16 394.5,0 L413.5,-5.8170723e-16 Z" id="形状结合" fill="#668C9D" transform="translate(404.000000, 11.500000) scale(-1, 1) translate(-404.000000, -11.500000) "></path>
                    </g>
                </g>
            </g>
        </g>
    </g>
</svg>