<?xml version="1.0" encoding="UTF-8"?>
<svg width="24px" height="24px" viewBox="0 0 24 24" version="1.1"
    xmlns="http://www.w3.org/2000/svg"
    xmlns:xlink="http://www.w3.org/1999/xlink">
    <defs>
        <circle id="path-1" cx="12" cy="12" r="12"></circle>
    </defs>
    <g id="发现" stroke="none" stroke-width="1" fill="none" fill-rule="evenodd">
        <g id="发现---上划" transform="translate(-16.000000, -32.000000)">
            <g id="顶部栏" transform="translate(0.000000, 24.000000)">
                <g id="人" transform="translate(16.000000, 8.000000)">
                    <mask id="mask-2" fill="white">
                        <use xlink:href="#path-1"></use>
                    </mask>
                    <use id="蒙版" fill="#DFDFDF" xlink:href="#path-1"></use>
                    <g mask="url(#mask-2)" fill="#FFFFFF" fill-rule="nonzero" id="形状">
                        <g transform="translate(2.482759, 3.724138)">
                            <path d="M14.0050603,10.4622293 C12.8543454,11.4978815 11.3583984,12.1883235 9.63230415,12.1883235 C7.90620986,12.1883235 6.41028475,11.4978815 5.14448518,10.4622293 C2.26767592,11.9581762 0.311456088,13.914396 0.311456088,17.4816474 L18.7230267,17.4816474 C18.7230267,13.914396 16.7668068,12.073239 14.0050603,10.4622293 L14.0050603,10.4622293 Z M0.311456088,17.4816474 L18.7230267,17.4816474 L18.7230267,22.9794343 L0.311456088,22.9794343 L0.311456088,17.4816474 Z M9.51724138,10.8074612 C12.3940506,10.8074612 14.6955024,8.39094666 14.6955024,5.51413739 C14.6955024,2.63732812 12.3940506,0.220813578 9.51724138,0.220813578 C6.64043211,0.220813578 4.33898033,2.63732812 4.33898033,5.51413739 C4.33898033,8.50600943 6.75549488,10.8074612 9.51724138,10.8074612 Z"></path>
                        </g>
                    </g>
                </g>
            </g>
        </g>
    </g>
</svg>