<?xml version="1.0" encoding="UTF-8"?>
<svg width="17px" height="20px" viewBox="0 0 17 20" version="1.1" xmlns="http://www.w3.org/2000/svg" xmlns:xlink="http://www.w3.org/1999/xlink">
    <title>icon/56x56/team</title>
    <g id="我的" stroke="none" stroke-width="1" fill="none" fill-rule="evenodd">
        <g transform="translate(-2894.000000, -1203.000000)" id="编组备份-4">
            <g transform="translate(2858.000000, 757.000000)">
                <g id="联系我们" transform="translate(0.000000, 428.000000)">
                    <g id="icon/56x56/team" transform="translate(32.000000, 16.000000)">
                        <polygon id="Fill-1" fill="#FEFEFE" opacity="0" points="0 24 24 24 24 0 0 0"></polygon>
                        <g id="headset" transform="translate(4.000000, 2.000000)" fill="#000000" opacity="0.603562128">
                            <path d="M8.18181818,0 C3.63636364,0 0,3.63636364 0,8.18181818 L0,14.5454545 C0,16.0516857 1.22104159,17.2727273 2.72727273,17.2727273 L5.45454545,17.2727273 L5.45454545,10 L1.81818182,10 L1.81818182,8.18181818 C1.81818182,4.66727886 4.66727886,1.81818182 8.18181818,1.81818182 C11.6963575,1.81818182 14.5454545,4.66727886 14.5454545,8.18181818 L14.5454545,10 L10.9090909,10 L10.9090909,17.2727273 L14.5454545,17.2727273 L14.5454545,18.1818182 L8.18181818,18.1818182 L8.18181818,20 L13.6363636,20 C15.1425948,20 16.3636364,18.7789584 16.3636364,17.2727273 L16.3636364,8.18181818 C16.3636364,3.63636364 12.7,0 8.18181818,0 Z" id="路径"></path>
                        </g>
                    </g>
                </g>
            </g>
        </g>
    </g>
</svg>