<?xml version="1.0" encoding="UTF-8"?>
<svg width="16px" height="16px" viewBox="0 0 16 16" version="1.1"
  xmlns="http://www.w3.org/2000/svg"
  xmlns:xlink="http://www.w3.org/1999/xlink">
  <defs>
    <polygon id="path-1" points="2 2 21.9923227 2 21.9923227 20.7760391 2 20.7760391"></polygon>
  </defs>
  <g id="我的" stroke="none" stroke-width="1" fill="none" fill-rule="evenodd">
    <g transform="translate(-2450.000000, -970.000000)" id="编组备份-2">
      <g transform="translate(2414.000000, 802.000000)">
        <g id="我的-通知栏" transform="translate(0.000000, 148.000000)">
          <g id="icon/56x56/team" transform="translate(32.000000, 16.000000)">
            <g id="path-1"></g>
            <path d="M13.8488889,15.1911111 L16.1511111,12.8888889 L7.55555556,12.8888889 L7.55555556,11.1111111 L16.1511111,11.1111111 L13.8488889,8.80888889 L15.1111111,7.55555556 L19.5555556,12 L15.1111111,16.4444444 L13.8488889,15.1911111 M18.2222222,4 C19.2,4 20,4.8 20,5.77777778 L20,9.92888889 L18.2222222,8.15111111 L18.2222222,5.77777778 L5.77777778,5.77777778 L5.77777778,18.2222222 L18.2222222,18.2222222 L18.2222222,15.8488889 L20,14.0711111 L20,18.2222222 C20,19.2 19.2,20 18.2222222,20 L5.77777778,20 C4.79111111,20 4,19.2 4,18.2222222 L4,5.77777778 C4,4.79111111 4.79111111,4 5.77777778,4 L18.2222222,4 Z" id="形状" fill="#000000" opacity="0.603562128"></path>
          </g>
        </g>
      </g>
    </g>
  </g>
</svg>