<?xml version="1.0" encoding="UTF-8"?>
<svg width="18px" height="20px" viewBox="0 0 18 20" version="1.1"
  xmlns="http://www.w3.org/2000/svg"
  xmlns:xlink="http://www.w3.org/1999/xlink">
  <g id="我的" stroke="none" stroke-width="1" fill="none" fill-rule="evenodd">
    <g transform="translate(-2893.000000, -1156.000000)" fill="#000000" id="编组备份-3">
      <g transform="translate(2858.000000, 782.000000)">
        <g id="我的-通知栏" transform="translate(0.000000, 356.000000)">
          <g id="icon/56x56/team" transform="translate(32.000000, 16.000000)">
            <rect id="矩形" fill-rule="nonzero" opacity="0" x="0" y="0" width="24" height="24"></rect>
            <path d="M12,2.57142857 C13.2380952,2.57142857 14.2857143,3.37142857 14.6857143,4.47619048 L18.6666667,4.47619048 C19.7142857,4.47619048 20.5714286,5.33333333 20.5714286,6.38095238 L20.5714286,19.7142857 C20.5714286,20.7619048 19.7142857,21.6190476 18.6666667,21.6190476 L5.33333333,21.6190476 C4.28571429,21.6190476 3.42857143,20.7619048 3.42857143,19.7142857 L3.42857143,6.38095238 C3.42857143,5.33333333 4.28571429,4.47619048 5.33333333,4.47619048 L9.31428571,4.47619048 C9.71428571,3.37142857 10.7619048,2.57142857 12,2.57142857 Z M7.23809524,6.38095238 L5.33333333,6.38095238 L5.33333333,19.7142857 L18.6666667,19.7142857 L18.6666667,6.38095238 L16.7619048,6.38095238 L16.7619048,8.28571429 L7.23809524,8.28571429 L7.23809524,6.38095238 Z M10.1632653,9.85714286 L12,13.622449 L13.8367347,9.85714286 L14.8607143,9.85714286 L13.2903061,13.0714286 L14.755102,13.0714286 L14.755102,13.9897959 L12.844898,13.9897959 L12.4591837,14.775 L12.4591837,14.9081633 L14.755102,14.9081633 L14.755102,15.8265306 L12.4591837,15.8265306 L12.4591837,18.122449 L11.5408163,18.122449 L11.5408163,15.8265306 L9.24489796,15.8265306 L9.24489796,14.9081633 L11.5408163,14.9081633 L11.5408163,14.775 L11.155102,13.9897959 L9.24489796,13.9897959 L9.24489796,13.0714286 L10.7096939,13.0714286 L9.13928571,9.85714286 L10.1632653,9.85714286 Z M12,4.47619048 C11.4761905,4.47619048 11.047619,4.9047619 11.047619,5.42857143 C11.047619,5.95238095 11.4761905,6.38095238 12,6.38095238 C12.5238095,6.38095238 12.952381,5.95238095 12.952381,5.42857143 C12.952381,4.9047619 12.5238095,4.47619048 12,4.47619048 Z" id="形状结合" opacity="0.603562128"></path>
          </g>
        </g>
      </g>
    </g>
  </g>
</svg>