<?xml version="1.0" encoding="UTF-8"?>
<svg width="20px" height="16px" viewBox="0 0 20 16" version="1.1"
  xmlns="http://www.w3.org/2000/svg"
  xmlns:xlink="http://www.w3.org/1999/xlink">
  <g id="我的" stroke="none" stroke-width="1" fill="none" fill-rule="evenodd">
    <g transform="translate(-2892.000000, -1102.000000)" fill="#000000" id="编组备份-3">
      <g transform="translate(2858.000000, 782.000000)">
        <g id="我的-通知栏" transform="translate(0.000000, 300.000000)">
          <g id="icon/24x24/star/outline" transform="translate(32.000000, 16.000000)">
            <rect id="矩形" fill-rule="nonzero" opacity="0" x="0" y="0" width="24" height="24"></rect>
            <g id="account-multiple-(1)" transform="translate(2.250000, 4.500000)" opacity="0.603562128">
              <path d="M13.65,12.6751011 L13.65,14.6251011 L0,14.6251011 L0,12.6751011 C0,12.6751011 0,8.77510114 6.825,8.77510114 C13.65,8.77510114 13.65,12.6751011 13.65,12.6751011 M10.2375,3.41260114 C10.2375,1.52792944 8.70967171,0.000101144437 6.825,0.000101144437 C4.94032829,0.000101144437 3.4125,1.52792944 3.4125,3.41260114 C3.4125,5.29727285 4.94032829,6.82510114 6.825,6.82510114 C8.70967171,6.82510114 10.2375,5.29727285 10.2375,3.41260114 M13.5915,8.77510114 C14.8048308,9.71408477 15.5402256,11.142036 15.6,12.6751011 L15.6,14.6251011 L19.5,14.6251011 L19.5,12.6751011 C19.5,12.6751011 19.5,9.13585114 13.5915,8.77510114 M12.675,4.9879876e-05 C12.0038953,-0.00363575301 11.347553,0.197007759 10.79325,0.575351144 C12.0075229,2.2719716 12.0075229,4.55323069 10.79325,6.24985114 C11.347553,6.62819453 12.0038953,6.82883804 12.675,6.82515241 C14.5596717,6.82515241 16.0875,5.29727285 16.0875,3.41260114 C16.0875,1.52792944 14.5596717,4.9879876e-05 12.675,4.9879876e-05 Z" id="形状"></path>
            </g>
          </g>
        </g>
      </g>
    </g>
  </g>
</svg>