<?xml version="1.0" encoding="UTF-8"?>
<svg width="16px" height="16px" viewBox="0 0 16 16" version="1.1"
    xmlns="http://www.w3.org/2000/svg"
    xmlns:xlink="http://www.w3.org/1999/xlink">
    <defs>
        <rect id="path-1" x="0" y="0" width="16" height="16"></rect>
    </defs>
    <g id="详情页（新上加新）" stroke="none" stroke-width="1" fill="none" fill-rule="evenodd">
        <g id="企业详情页---风险" transform="translate(-310.000000, -267.000000)">
            <g id="Tab-2" transform="translate(56.000000, 249.000000)">
                <g id="编组备份" transform="translate(32.000000, 8.000000)">
                    <g id="按钮/筛选/outline-方形备份-2" transform="translate(41.000000, 0.000000)">
                        <g id="icon/16x16/箭头/down" transform="translate(181.000000, 10.000000)">
                            <mask id="mask-2" fill="white">
                                <use xlink:href="#path-1"></use>
                            </mask>
                            <g id="矩形"></g>
                            <path d="M5.11111111,0.7 L5.11111111,2.14444444 L10.8888889,2.14444444 L10.8888889,0.7 L12.3333333,0.7 L12.3333333,2.14444444 L13.0555556,2.14444444 C13.803268,2.14444444 14.4230296,2.72022299 14.4933555,3.45029514 L14.5,3.58888889 L14.5,13.7 C14.5,14.4477124 13.9242215,15.067474 13.1941493,15.1377999 L13.0555556,15.1444444 L2.94444444,15.1444444 C2.19673203,15.1444444 1.5769704,14.5686659 1.5066445,13.8385938 L1.5,13.7 L1.5,3.58888889 C1.5,2.84117647 2.06938101,2.22141484 2.80472171,2.15108895 L2.94444444,2.14444444 L3.66666667,2.14444444 L3.66666667,0.7 L5.11111111,0.7 Z M13.0555556,5.75555556 L2.94444444,5.75555556 L2.94444444,13.7 L13.0555556,13.7 L13.0555556,5.75555556 Z M11.086,7.684 L11.086,8.266 L9.448,8.266 L9.346,9.4 C9.532,9.304 9.712,9.244 9.952,9.244 C10.69,9.244 11.296,9.682 11.296,10.648 C11.296,11.626 10.582,12.178 9.808,12.178 C9.17527273,12.178 8.7557686,11.9449421 8.45031405,11.6726657 L8.362,11.59 L8.692,11.14 C8.944,11.392 9.262,11.614 9.724,11.614 C10.222,11.614 10.6,11.26 10.6,10.672 C10.6,10.084 10.264,9.748 9.76,9.748 C9.525,9.748 9.36916667,9.80633333 9.17444444,9.923 L9.052,10 L8.716,9.778 L8.848,7.684 L11.086,7.684 Z M5.992,7.6 C6.802,7.6 7.324,8.128 7.324,8.926 C7.324,9.778 6.646,10.66 5.71,11.554 C5.862,11.538 6.03533333,11.5246667 6.198,11.5175556 L6.43,11.512 L7.534,11.512 L7.534,12.1 L4.684,12.1 L4.684,11.698 C5.986,10.546 6.658,9.688 6.658,8.962 C6.658,8.482 6.4,8.152 5.908,8.152 C5.6035,8.152 5.3449375,8.32196875 5.12829297,8.54533984 L5.038,8.644 L4.648,8.26 C5.026,7.852 5.416,7.6 5.992,7.6 Z" id="形状" fill="#4F709B" ></path>
                        </g>
                    </g>
                </g>
            </g>
        </g>
    </g>
</svg>