<?xml version="1.0" encoding="UTF-8"?>
<svg width="16px" height="16px" viewBox="0 0 16 16" version="1.1" xmlns="http://www.w3.org/2000/svg" xmlns:xlink="http://www.w3.org/1999/xlink">
    <title></title>
    <defs>
        <rect id="path-1" x="0" y="0" width="16" height="16"></rect>
    </defs>
    <g id="icon/16x16/融资类型" stroke="none" stroke-width="1" fill="none" fill-rule="evenodd">
        <mask id="mask-2" fill="white">
            <use xlink:href="#path-1"></use>
        </mask>
        <g id="矩形"></g>
        <path d="M13.7029722,4.63953401 L13.8034342,4.64304929 C13.9009857,4.65146016 14.0274813,4.67995489 14.1406297,4.77638477 C14.2395217,4.86066464 14.3129836,4.95112306 14.3610156,5.04776001 L14.3855819,5.11084984 C14.7801802,5.98751451 15,6.95997667 15,7.98378051 C15,11.8492788 11.8663945,14.9828844 8.00089614,14.9828844 C6.92700513,14.9828844 5.90960221,14.7410301 5.00018478,14.3088189 L4.97051621,14.2919622 C4.67141741,14.1841883 4.35956985,13.8553532 4.35956985,13.550282 C4.35956985,13.1637322 4.67293041,12.8503716 5.05948024,12.8503716 C5.25300168,12.8503716 5.49102872,12.9441305 5.68049512,13.0862736 L5.68352529,13.0825157 C6.38970094,13.4039865 7.17438569,13.5830636 8.00089614,13.5830636 C11.0932948,13.5830636 13.6001792,11.0761792 13.6001792,7.98378051 C13.6001792,7.50538444 13.5401837,7.04100107 13.4273063,6.59774396 L12.4022997,7.62282533 C12.124239,7.89134541 11.6811478,7.88361122 11.4126277,7.60555054 C11.1441076,7.32748986 11.1518418,6.88439861 11.4299025,6.61587854 L12.9095496,5.1512559 L13.3104163,4.76349282 L13.3446338,4.74074078 C13.4617081,4.6732696 13.5811543,4.63953401 13.7029722,4.63953401 Z M7.99910386,1 C9.07299487,1 10.0903978,1.24185427 10.9998152,1.67406542 L11.0294838,1.69092219 C11.3285826,1.79869606 11.6404301,2.12753116 11.6404301,2.43260235 C11.6404301,2.81915219 11.3270696,3.13251274 10.9405198,3.13251274 C10.7469983,3.13251274 10.5089713,3.0387539 10.3195049,2.8966108 L10.3164747,2.90036867 C9.61029906,2.57889787 8.82561431,2.39982077 7.99910386,2.39982077 C4.9067052,2.39982077 2.39982077,4.9067052 2.39982077,7.99910386 C2.39982077,8.47749993 2.45981626,8.9418833 2.57269366,9.38514041 L3.59770031,8.36005903 C3.87576099,8.09153896 4.31885224,8.09927314 4.58737232,8.37733382 C4.8558924,8.6553945 4.84815821,9.09848575 4.57009753,9.36700583 L3.09045043,10.8316285 L2.68958367,11.2193915 L2.65536624,11.2421436 C2.53829187,11.3096148 2.41884574,11.3433504 2.29702784,11.3433504 L2.1965658,11.3398351 C2.09901429,11.3314242 1.97251873,11.3029295 1.85937026,11.2064996 C1.76047831,11.1222197 1.68701635,11.0317613 1.63898438,10.9351244 L1.61441809,10.8720345 C1.21981982,9.99536986 1,9.02290769 1,7.99910386 C1,4.13360554 4.13360554,1 7.99910386,1 Z M6.66599365,4.84950712 L8.04109848,7.66847204 L9.41620332,4.84950712 L10.1828243,4.84950712 L9.00710963,7.25594059 L10.1037557,7.25594059 L10.1037557,7.943493 L8.67364671,7.943493 L8.38487469,8.53135032 L8.38487469,8.63104542 L10.1037557,8.63104542 L10.1037557,9.31859784 L8.38487469,9.31859784 L8.38487469,11.0374789 L7.69732228,11.0374789 L7.69732228,9.31859784 L5.97844123,9.31859784 L5.97844123,8.63104542 L7.69732228,8.63104542 L7.69732228,8.53135032 L7.40855026,7.943493 L5.97844123,7.943493 L5.97844123,7.25594059 L7.07508734,7.25594059 L5.8993727,4.84950712 L6.66599365,4.84950712 Z" id="形状结合" fill="#668C9D" mask="url(#mask-2)"></path>
    </g>
</svg>