<?xml version="1.0" encoding="UTF-8"?>
<svg width="16px" height="16px" viewBox="0 0 16 16" version="1.1" xmlns="http://www.w3.org/2000/svg" xmlns:xlink="http://www.w3.org/1999/xlink">
    <title></title>
    <g id="icon/16x16/投资次数" stroke="none" stroke-width="1" fill="none" fill-rule="evenodd">
        <path d="M8,1 C11.8576068,1 15,4.12665501 15,7.97114664 C14.9995172,11.8369399 11.8657933,14.9706639 8,14.9711467 C6.02835373,14.9711467 4.20272295,14.1781164 2.88158881,12.7704222 C3.21908569,12.4486635 3.48313764,12.2458157 3.94566575,11.8541094 C4.99839874,12.9697273 6.46610977,13.5996055 8,13.5940545 C9.48370658,13.5942864 10.906711,13.004989 11.95585,11.95585 C13.004989,10.906711 13.5942864,9.48370659 13.5940545,8 C13.5945184,6.51614195 13.0053234,5.09291286 11.9561592,4.04358473 C10.9069951,2.99425659 9.48385811,2.40483917 8,2.4050712 C6.51614188,2.40483917 5.0930049,2.9942566 4.04384075,4.04358473 C2.9946766,5.09291287 2.4054816,6.51614195 2.40594554,8 C2.40756348,8.42915167 2.45564112,8.8568668 2.54933799,9.27566825 C2.57943805,9.37301443 2.60995754,9.46122913 2.64052739,9.54125128 L4.31201599,8.09442919 C4.5078691,7.94753936 4.76929803,7.95453411 4.99662753,8.12677993 L4.99662753,8.12677993 L6.41306521,9.42692981 L6.53809643,9.54146891 L9.50824382,6.50574569 L8.0139895,6.50574569 L8.0157382,6.0965526 L8.01748688,5.81413941 C8.01836123,5.68123908 8.01748688,5.5632026 8.01661254,5.44953785 L8.01661254,5.44953785 L11.4003248,5.44953785 L11.4003248,5.65413441 L11.4011991,5.74506621 L11.4011991,8.80876843 C11.0494261,8.81115913 10.697642,8.81145058 10.3458656,8.80964277 L10.3458656,8.80964277 L10.3458656,7.24456658 L6.9210592,10.7087185 C6.70946789,10.8652261 6.41306519,10.8582313 6.23994503,10.6851112 L6.23994503,10.6851112 L4.75705721,9.34736448 L4.64339245,9.24594055 L3.16325541,10.4707536 C3.13478745,10.4979622 3.09237572,10.5333687 3.03372471,10.5828129 L1.96177866,11.3058956 C1.78690981,11.0785661 1.71259055,10.9544092 1.59717712,10.722708 L1.45728204,10.4673995 C1.15606848,9.6795867 1.00110427,8.84343188 1,8 C1.00048277,4.13420675 4.13420673,1.00048278 8,1 Z" id="形状结合" fill="#668C9D"></path>
    </g>
</svg>