<?xml version="1.0" encoding="UTF-8"?>
<svg width="18px" height="18px" viewBox="0 0 18 18" version="1.1" xmlns="http://www.w3.org/2000/svg" xmlns:xlink="http://www.w3.org/1999/xlink">
    <!-- Generator: Sketch 64 (93537) - https://sketch.com -->
    <title>icon/16x16/新增条目</title>
    <desc>Created with Sketch.</desc>
    <g id="icon/16x16/新增条目" stroke="none" stroke-width="1" fill="none" fill-rule="evenodd">
        <path d="M1.404,11.934 L1.404,8.854 C1.404,8.238 1.348,7.614 1.316,7.022 L1.348,7.022 L1.98,8.23 L4.116,11.934 L4.876,11.934 L4.876,6.07 L4.172,6.07 L4.172,9.118 C4.172,9.726 4.228,10.382 4.268,10.974 L4.228,10.974 L3.604,9.766 L1.468,6.07 L0.7,6.07 L0.7,11.934 L1.404,11.934 Z M10.0051429,11.934 L10.0051429,11.302 L7.27714286,11.302 L7.27714286,9.166 L9.50114286,9.166 L9.50114286,8.534 L7.27714286,8.534 L7.27714286,6.694 L9.91714286,6.694 L9.91714286,6.07 L6.53314286,6.07 L6.53314286,11.934 L10.0051429,11.934 Z M12.8222857,11.934 L13.6942857,8.398 C13.7902857,7.934 13.8942857,7.51 13.9902857,7.062 L14.0222857,7.062 C14.1182857,7.51 14.2062857,7.934 14.3102857,8.398 L15.1982857,11.934 L16.0862857,11.934 L17.3022857,6.07 L16.5902857,6.07 L15.9742857,9.262 C15.8622857,9.886 15.7502857,10.518 15.6382857,11.158 L15.5982857,11.158 C15.4622857,10.518 15.3262857,9.886 15.1822857,9.262 L14.3582857,6.07 L13.6862857,6.07 L12.8782857,9.262 C12.7342857,9.894 12.5902857,10.526 12.4542857,11.158 L12.4222857,11.158 L12.0782857,9.262 L12.0782857,9.262 L11.4622857,6.07 L10.6942857,6.07 L11.9422857,11.934 L12.8222857,11.934 Z" id="NEW" fill="#0FB269" fill-rule="nonzero"></path>
    </g>
</svg>