<?xml version="1.0" encoding="UTF-8"?>
<svg width="16px" height="16px" viewBox="0 0 16 16" version="1.1" xmlns="http://www.w3.org/2000/svg" xmlns:xlink="http://www.w3.org/1999/xlink">
    <!-- Generator: Sketch 64 (93537) - https://sketch.com -->
    <title>icon/16x16/Pro</title>
    <desc>Created with Sketch.</desc>
    <g id="icon/16x16/Pro" stroke="none" stroke-width="1" fill="none" fill-rule="evenodd">
        <path d="M15,11.4977778 C15,11.7933333 14.8366667,12.05 14.5877778,12.1822222 L8.44333333,15.6355556 C8.31888889,15.7288889 8.16333333,15.7755556 8,15.7755556 C7.83666667,15.7755556 7.68111111,15.7288889 7.55666667,15.6355556 L1.41222222,12.1822222 C1.16333333,12.05 1,11.7933333 1,11.4977778 L1,4.49777778 C1,4.20222222 1.16333333,3.94555556 1.41222222,3.81333333 L7.55666667,0.36 C7.68111111,0.266666667 7.83666667,0.22 8,0.22 C8.16333333,0.22 8.31888889,0.266666667 8.44333333,0.36 L14.5877778,3.81333333 C14.8366667,3.94555556 15,4.20222222 15,4.49777778 L15,11.4977778 M2.55555556,5.66444444 L2.55555556,10.3311111 L3.52777778,10.3311111 L3.52777778,8.77555556 L4.11111111,8.77555556 C4.96666667,8.77555556 5.66666667,8.07555556 5.66666667,7.22 C5.66666667,6.36444444 4.96666667,5.66444444 4.11111111,5.66444444 L2.55555556,5.66444444 M3.52777778,7.99777778 L3.52777778,6.44222222 L3.91666667,6.44222222 C4.34444444,6.44222222 4.69444444,6.79222222 4.69444444,7.22 C4.69444444,7.64777778 4.34444444,7.99777778 3.91666667,7.99777778 L3.52777778,7.99777778 M6.25,5.66444444 L6.25,10.3311111 L7.22222222,10.3311111 L7.22222222,8.77555556 L7.80555556,8.77555556 L8.31888889,10.3311111 L9.34555556,10.3311111 L8.73111111,8.47222222 C9.11222222,8.19222222 9.36111111,7.73333333 9.36111111,7.22 C9.36111111,6.36444444 8.66111111,5.66444444 7.80555556,5.66444444 L6.25,5.66444444 M7.22222222,7.99777778 L7.22222222,6.44222222 L7.61111111,6.44222222 C8.03888889,6.44222222 8.38888889,6.79222222 8.38888889,7.22 C8.38888889,7.64777778 8.03888889,7.99777778 7.61111111,7.99777778 L7.22222222,7.99777778 M11.8888889,5.66444444 C10.8155556,5.66444444 9.94444444,6.70666667 9.94444444,7.99777778 C9.94444444,9.28888889 10.8155556,10.3311111 11.8888889,10.3311111 C12.9622222,10.3311111 13.8333333,9.28888889 13.8333333,7.99777778 C13.8333333,6.70666667 12.9622222,5.66444444 11.8888889,5.66444444 M11.8888889,6.63666667 C12.48,6.63666667 12.9622222,7.24333333 12.9622222,7.99777778 C12.9622222,8.75222222 12.48,9.35888889 11.8888889,9.35888889 C11.2977778,9.35888889 10.8233333,8.75222222 10.8233333,7.99777778 C10.8233333,7.24333333 11.2977778,6.63666667 11.8888889,6.63666667 Z" id="形状" fill="#668C9D"></path>
    </g>
</svg>