<?xml version="1.0" encoding="UTF-8"?>
<svg version="1.1" xmlns="http://www.w3.org/2000/svg" xmlns:xlink="http://www.w3.org/1999/xlink">
    <!-- Generator: Sketch 64 (93537) - https://sketch.com -->
    <title>编组 2</title>
    <desc>Created with Sketch.</desc>
    <g id="登录注册" stroke="none" stroke-width="1" fill="none" fill-rule="evenodd">
        <g id="登录页面" transform="translate(0.000000, -101.000000)">
            <g id="编组-2" transform="translate(0.000000, 101.000000)">
                <rect id="矩形" fill="#FCFCFC" x="0" y="0" width="1920" height="916"></rect>
                <g id="shape" opacity="0.394880022" transform="translate(121.000000, 193.000000)" stroke="#668C9D">
                    <path d="M80.8962225,162.816618 L14.8439579,162.822993 C14.4299008,162.823178 14.0548928,162.991172 13.7833943,163.26267 C13.5118957,163.534169 13.3439014,163.909177 13.3437166,164.323409 L13.3369555,230.385538 C13.3369954,230.799652 13.5049236,231.174638 13.776406,231.446016 C14.0478376,231.717343 14.4227867,231.885092 14.8369255,231.884907 L80.8891901,231.878532 C81.3032472,231.878347 81.6782552,231.710353 81.9497537,231.438855 C82.2212523,231.167356 82.3892466,230.792348 82.3894314,230.378116 L82.390692,164.186536 C82.3580611,163.804046 82.1816397,163.46267 81.9160368,163.216313 C81.648425,162.968092 81.2900319,162.816442 80.8962225,162.816618 Z" id="Rectangle-6" transform="translate(47.866574, 197.350763) rotate(-27.000000) translate(-47.866574, -197.350763) "></path>
                    <path d="M162.276712,8.02514716 L147.957667,33.3624809 L176.601802,33.3658979 L162.276712,8.02514716 Z" id="Polygon" transform="translate(162.279853, 20.437503) rotate(45.000000) translate(-162.279853, -20.437503) "></path>
                    <path d="M210.147388,513.65459 L201.666068,528.492941 L218.626162,528.491486 L210.147388,513.65459 Z" id="Polygon" transform="translate(210.146030, 520.819974) rotate(-67.000000) translate(-210.146030, -520.819974) "></path>
                    <circle id="Oval" cx="298.5" cy="416.5" r="11"></circle>
                    <path d="M1514.56263,443.079759 L1441.49971,443.088475 C1441.08569,443.088703 1440.71068,443.256722 1440.43917,443.528233 C1440.16766,443.799743 1439.99964,444.174753 1439.99941,444.588989 L1439.99573,517.781397 C1440.02837,518.163881 1440.2048,518.505246 1440.4704,518.751584 C1440.73801,518.999778 1441.09639,519.151395 1441.49018,519.151178 L1514.5531,519.142462 C1514.96712,519.142233 1515.34213,518.974215 1515.61364,518.702704 C1515.88515,518.431193 1516.05317,518.056184 1516.0534,517.641947 L1516.05709,444.44954 C1516.02445,444.067056 1515.84802,443.72569 1515.58241,443.479352 C1515.3148,443.231159 1514.95642,443.079542 1514.56263,443.079759 Z" id="Rectangle-6" transform="translate(1478.026407, 481.115468) rotate(-45.000000) translate(-1478.026407, -481.115468) "></path>
                    <circle id="Oval" cx="1604" cy="96" r="14.5"></circle>
                    <circle id="Oval" cx="1669.5" cy="343.5" r="9"></circle>
                </g>
            </g>
        </g>
    </g>
</svg>