<?xml version="1.0" encoding="UTF-8"?>
<svg width="13px" height="14px" viewBox="0 0 13 14" version="1.1" xmlns="http://www.w3.org/2000/svg" xmlns:xlink="http://www.w3.org/1999/xlink">
    <!-- Generator: Sketch 64 (93537) - https://sketch.com -->
    <title>icon/24x24/colmun</title>
    <desc>Created with Sketch.</desc>
    <g id="行业赛道" stroke="none" stroke-width="1" fill="none" fill-rule="evenodd" opacity="0.603562128">
        <g id="行业赛道首页（升降序样式）" transform="translate(-1604.000000, -307.000000)" fill="#000000">
            <g id="编组-3" transform="translate(350.000000, 301.000000)">
                <g id="icon/16x16/column" transform="translate(1252.000000, 5.000000)">
                    <path d="M6.53703704,1 C7.03611111,1 7.44444444,1.63 7.44444444,2.4 L7.44444444,13.6 C7.44444444,14.37 7.03611111,15 6.53703704,15 L2.90740741,15 C2.40833333,15 2,14.37 2,13.6 L2,2.4 C2,1.63 2.40833333,1 2.90740741,1 L6.53703704,1 Z M13.537037,1 C14.0361111,1 14.4444444,1.63 14.4444444,2.4 L14.4444444,13.6 C14.4444444,14.37 14.0361111,15 13.537037,15 L9.90740741,15 C9.40833333,15 9,14.37 9,13.6 L9,2.4 C9,1.63 9.40833333,1 9.90740741,1 L13.537037,1 Z M6.2,10.8 L3.2,10.8 L3.2,13.8 L6.2,13.8 L6.2,10.8 Z M13.2,10.8 L10.2,10.8 L10.2,13.8 L13.2,13.8 L13.2,10.8 Z M6.2,6.6 L3.2,6.6 L3.2,9.6 L6.2,9.6 L6.2,6.6 Z M13.2,6.6 L10.2,6.6 L10.2,9.6 L13.2,9.6 L13.2,6.6 Z M6.2,2.3 L3.2,2.3 L3.2,5.3 L6.2,5.3 L6.2,2.3 Z M13.2,2.3 L10.2,2.3 L10.2,5.3 L13.2,5.3 L13.2,2.3 Z" id="形状结合"></path>
                </g>
            </g>
        </g>
    </g>
</svg>