<?xml version="1.0" encoding="UTF-8"?>
<svg width="14px" height="13px" viewBox="0 0 14 13" version="1.1" xmlns="http://www.w3.org/2000/svg" xmlns:xlink="http://www.w3.org/1999/xlink">
    <!-- Generator: Sketch 64 (93537) - https://sketch.com -->
    <title>icon/24x24/arrow/down</title>
    <desc>Created with Sketch.</desc>
    <g id="行业赛道" stroke="none" stroke-width="1" fill="none" fill-rule="evenodd">
        <g id="行业赛道首页（升降序样式）" transform="translate(-778.000000, -308.000000)" fill="#000000">
            <g id="编组-3" transform="translate(350.000000, 301.000000)">
                <g id="编组-2备份" transform="translate(299.000000, 0.000000)">
                    <g id="icon/16x16/sort/排序" transform="translate(128.000000, 5.000000)">
                        <rect id="矩形" fill-rule="nonzero" opacity="0" x="0" y="0" width="16" height="16"></rect>
                        <g id="sort" stroke-width="1" fill-rule="evenodd" transform="translate(1.000000, 2.000000)" opacity="0.603562128">
                            <path d="M11.2,12.6 L8.4,9.8 L10.5,9.8 L10.5,2.8 L8.4,2.8 L11.2,0 L14,2.8 L11.9,2.8 L11.9,9.8 L14,9.8 M0,11.2 L0,9.8 L7,9.8 L7,11.2 M0,7 L0,5.6 L4.9,5.6 L4.9,7 M0,2.8 L0,1.4 L2.8,1.4 L2.8,2.8 L0,2.8 Z" id="形状"></path>
                        </g>
                    </g>
                </g>
            </g>
        </g>
    </g>
</svg>