<?xml version="1.0" encoding="UTF-8"?>
<svg width="24px" height="24px" viewBox="0 0 24 24" version="1.1" xmlns="http://www.w3.org/2000/svg" xmlns:xlink="http://www.w3.org/1999/xlink">
    <title>切片</title>
    <g id="详情页（新）" stroke="none" stroke-width="1" fill="none" fill-rule="evenodd">
        <g id="企业---企业资产状况信息" transform="translate(-335.000000, -108.000000)" fill="#4F709B">
            <g id="Tab" transform="translate(0.000000, 106.000000)">
                <g id="筛选项" transform="translate(313.000000, 0.000000)">
                    <g id="icon/箭头/down2" transform="translate(22.000000, 2.000000)">
                        <path d="M4.5,16.1666667 L4.5,17.8333333 L9.5,17.8333333 L9.5,16.1666667 L4.5,16.1666667 M4.5,6.16666667 L4.5,7.83333333 L12.8333333,7.83333333 L12.8333333,6.16666667 L4.5,6.16666667 M12.8333333,19.5 L12.8333333,17.8333333 L19.5,17.8333333 L19.5,16.1666667 L12.8333333,16.1666667 L12.8333333,14.5 L11.1666667,14.5 L11.1666667,19.5 L12.8333333,19.5 M7.83333333,9.5 L7.83333333,11.1666667 L4.5,11.1666667 L4.5,12.8333333 L7.83333333,12.8333333 L7.83333333,14.5 L9.5,14.5 L9.5,9.5 L7.83333333,9.5 M19.5,12.8333333 L19.5,11.1666667 L11.1666667,11.1666667 L11.1666667,12.8333333 L19.5,12.8333333 M14.5,9.5 L16.1666667,9.5 L16.1666667,7.83333333 L19.5,7.83333333 L19.5,6.16666667 L16.1666667,6.16666667 L16.1666667,4.5 L14.5,4.5 L14.5,9.5 Z" id="形状"></path>
                    </g>
                </g>
            </g>
        </g>
    </g>
</svg>